<svg width="119" height="21" viewBox="0 0 119 21" fill="none" xmlns="http://www.w3.org/2000/svg">
<rect x="1" width="118" height="21" fill="#FCCE00"/>
<path d="M0.00012207 0H39.0001C50.5981 0 60.0001 9.40202 60.0001 21V21H0.00012207V0Z" fill="#C46A79"/>
<path d="M22.8158 14H20.8558L21.2758 11.62C21.3038 11.4707 21.2711 11.34 21.1778 11.228C21.0938 11.116 20.9771 11.06 20.8278 11.06H18.0278C17.8691 11.06 17.7244 11.116 17.5938 11.228C17.4631 11.34 17.3838 11.4707 17.3558 11.62L16.9358 14H14.9758L16.6278 4.76H18.5878L17.9158 8.54C17.8878 8.68933 17.9158 8.82 17.9998 8.932C18.0558 8.99733 18.1818 9.05333 18.3778 9.1H19.8758L22.2558 6.16H24.2158L21.8358 9.1H22.5778C22.9138 9.1 23.1704 9.23067 23.3478 9.492C23.4038 9.56667 23.4411 9.67867 23.4598 9.828C23.4784 10.08 23.4878 10.2107 23.4878 10.22L22.8158 14ZM33.5651 7.28L32.3611 14H30.4011L31.3531 8.68C31.3811 8.53067 31.3485 8.4 31.2551 8.288C31.1711 8.176 31.0498 8.12 30.8911 8.12H30.7511C30.5925 8.12 30.4478 8.176 30.3171 8.288C30.1958 8.39067 30.1211 8.52133 30.0931 8.68L29.1411 14H27.1811L28.1331 8.68C28.1611 8.53067 28.1285 8.4 28.0351 8.288C27.9511 8.176 27.8298 8.12 27.6711 8.12H27.5311C27.3725 8.12 27.2278 8.176 27.0971 8.288C26.9758 8.39067 26.9011 8.52133 26.8731 8.68L25.9211 14H23.9611L25.1651 7.28C25.2211 6.972 25.3751 6.71067 25.6271 6.496C25.8885 6.272 26.1731 6.16 26.4811 6.16H32.6411C32.9585 6.16 33.2058 6.272 33.3831 6.496C33.5605 6.71067 33.6211 6.972 33.5651 7.28ZM36.8178 6.72H34.8578L35.2078 4.76H37.1678L36.8178 6.72ZM35.5158 14H33.5558L33.9058 12.04H35.8658L35.5158 14Z" fill="black"/>
</svg>
