<svg width="119" height="21" viewBox="0 0 119 21" fill="none" xmlns="http://www.w3.org/2000/svg">
<rect x="1" width="118" height="21" fill="#DB422E"/>
<path d="M0.00012207 0H39.0001C50.5981 0 60.0001 9.40202 60.0001 21V21H0.00012207V0Z" fill="#C46A79"/>
<path d="M11.1531 10.08C11.0971 10.388 10.9384 10.654 10.6771 10.878C10.4251 11.0927 10.1451 11.2 9.83706 11.2H3.67706L3.17306 14H1.21306L2.66906 5.88C2.72506 5.572 2.87906 5.31067 3.13106 5.096C3.3924 4.872 3.67706 4.76 3.98506 4.76H10.9851C11.3024 4.76 11.5497 4.872 11.7271 5.096C11.9044 5.31067 11.9651 5.572 11.9091 5.88L11.1531 10.08ZM9.44506 8.68L9.69706 7.28C9.72506 7.13067 9.6924 7 9.59906 6.888C9.51506 6.776 9.39373 6.72 9.23506 6.72H5.03506C4.8764 6.72 4.73173 6.776 4.60106 6.888C4.47973 7 4.40506 7.13067 4.37706 7.28L4.12506 8.68C4.09706 8.82933 4.12506 8.96 4.20906 9.072C4.3024 9.184 4.4284 9.24 4.58706 9.24H8.78706C8.9364 9.24 9.0764 9.184 9.20706 9.072C9.33773 8.96 9.41706 8.82933 9.44506 8.68ZM19.3555 12.88C19.2995 13.188 19.1409 13.454 18.8795 13.678C18.6275 13.8927 18.3475 14 18.0395 14H12.4395C12.1222 14 11.8749 13.8927 11.6975 13.678C11.5202 13.454 11.4595 13.188 11.5155 12.88L12.5235 7.28C12.5795 6.972 12.7335 6.71067 12.9855 6.496C13.2469 6.272 13.5315 6.16 13.8395 6.16H19.4395C19.7569 6.16 20.0042 6.272 20.1815 6.496C20.3589 6.71067 20.4195 6.972 20.3635 7.28L19.3555 12.88ZM17.6475 11.48L18.1515 8.68C18.1795 8.53067 18.1469 8.4 18.0535 8.288C17.9695 8.176 17.8482 8.12 17.6895 8.12H14.8895C14.7309 8.12 14.5862 8.176 14.4555 8.288C14.3342 8.4 14.2595 8.53067 14.2315 8.68L13.7275 11.48C13.6995 11.6293 13.7275 11.76 13.8115 11.872C13.9049 11.984 14.0309 12.04 14.1895 12.04H16.9895C17.1482 12.04 17.2882 11.984 17.4095 11.872C17.5402 11.76 17.6195 11.6293 17.6475 11.48ZM28.236 8.442L24.666 14H23.546L21.866 6.16H23.826L24.82 11.046L27.746 6.16H29.706L30.7 11.046L33.626 6.16H35.586L30.546 14H29.426L28.236 8.442ZM42.9623 14H36.2423C35.9249 14 35.6776 13.8927 35.5003 13.678C35.3229 13.454 35.2623 13.188 35.3183 12.88L36.3263 7.28C36.3823 6.972 36.5363 6.71067 36.7883 6.496C37.0496 6.272 37.3343 6.16 37.6423 6.16H43.2423C43.5596 6.16 43.8069 6.272 43.9843 6.496C44.1616 6.71067 44.2223 6.972 44.1663 7.28L43.6343 10.22C43.5783 10.528 43.4196 10.794 43.1583 11.018C42.9063 11.2327 42.6263 11.34 42.3183 11.34H37.5583L37.5303 11.48C37.5023 11.6293 37.5303 11.76 37.6143 11.872C37.7076 11.984 37.8336 12.04 37.9923 12.04H43.3123L42.9623 14ZM41.9263 8.82L41.9543 8.68C41.9823 8.53067 41.9496 8.4 41.8563 8.288C41.7723 8.176 41.6509 8.12 41.4923 8.12H38.6923C38.5336 8.12 38.3889 8.176 38.2583 8.288C38.1369 8.4 38.0623 8.53067 38.0343 8.68L38.0063 8.82C37.9783 8.96933 38.0063 9.1 38.0903 9.212C38.1836 9.324 38.3096 9.38 38.4683 9.38H41.2683C41.4269 9.38 41.5669 9.324 41.6883 9.212C41.8189 9.1 41.8983 8.96933 41.9263 8.82ZM53.0357 8.12H47.7157C47.557 8.12 47.4124 8.176 47.2817 8.288C47.1604 8.4 47.0857 8.53067 47.0577 8.68L46.1057 14H44.1457L45.3497 7.28C45.4057 6.972 45.5597 6.71067 45.8117 6.496C46.073 6.272 46.3577 6.16 46.6657 6.16H53.3857L53.0357 8.12ZM55.5805 6.72H53.6205L53.9705 4.76H55.9305L55.5805 6.72ZM54.2785 14H52.3185L52.6685 12.04H54.6285L54.2785 14Z" fill="black"/>
</svg>
