<svg width="17" height="17" viewBox="0 0 17 17" fill="none" xmlns="http://www.w3.org/2000/svg">
<mask id="path-1-outside-1_111_141" maskUnits="userSpaceOnUse" x="0.416666" y="0.416656" width="16" height="16" fill="black">
<rect fill="white" x="0.416666" y="0.416656" width="16" height="16"/>
<path d="M8.5 1.41666C7.5698 1.41666 6.64871 1.59987 5.78932 1.95584C4.92994 2.31181 4.14907 2.83357 3.49133 3.49132C2.16294 4.8197 1.41667 6.62137 1.41667 8.49999C1.41667 10.3786 2.16294 12.1803 3.49133 13.5087C4.14907 14.1664 4.92994 14.6882 5.78932 15.0441C6.64871 15.4001 7.5698 15.5833 8.5 15.5833C10.3786 15.5833 12.1803 14.837 13.5087 13.5087C14.8371 12.1803 15.5833 10.3786 15.5833 8.49999C15.5833 7.56979 15.4001 6.6487 15.0441 5.78932C14.6882 4.92993 14.1664 4.14906 13.5087 3.49132C12.8509 2.83357 12.0701 2.31181 11.2107 1.95584C10.3513 1.59987 9.4302 1.41666 8.5 1.41666ZM5.66667 5.66666L9.20833 8.49999L5.66667 11.3333M9.91667 5.66666H11.3333V11.3333H9.91667"/>
</mask>
<path d="M8.5 1.41666C7.5698 1.41666 6.64871 1.59987 5.78932 1.95584C4.92994 2.31181 4.14907 2.83357 3.49133 3.49132C2.16294 4.8197 1.41667 6.62137 1.41667 8.49999C1.41667 10.3786 2.16294 12.1803 3.49133 13.5087C4.14907 14.1664 4.92994 14.6882 5.78932 15.0441C6.64871 15.4001 7.5698 15.5833 8.5 15.5833C10.3786 15.5833 12.1803 14.837 13.5087 13.5087C14.8371 12.1803 15.5833 10.3786 15.5833 8.49999C15.5833 7.56979 15.4001 6.6487 15.0441 5.78932C14.6882 4.92993 14.1664 4.14906 13.5087 3.49132C12.8509 2.83357 12.0701 2.31181 11.2107 1.95584C10.3513 1.59987 9.4302 1.41666 8.5 1.41666ZM5.66667 5.66666L9.20833 8.49999L5.66667 11.3333M9.91667 5.66666H11.3333V11.3333H9.91667" fill="#8C292B"/>
<path d="M1.41667 8.49999H0.916666H1.41667ZM8.5 15.5833V16.0833V15.5833ZM9.20833 8.49999L9.52068 8.89042L10.0087 8.49999L9.52068 8.10956L9.20833 8.49999ZM11.3333 5.66666H11.8333V5.16666H11.3333V5.66666ZM11.3333 11.3333V11.8333H11.8333V11.3333H11.3333ZM8.5 1.41666V0.916656C7.50414 0.916656 6.51804 1.11281 5.59798 1.4939L5.78932 1.95584L5.98067 2.41778C6.77939 2.08694 7.63546 1.91666 8.5 1.91666V1.41666ZM5.78932 1.95584L5.59798 1.4939C4.67793 1.875 3.84195 2.43359 3.13777 3.13776L3.49133 3.49132L3.84488 3.84487C4.4562 3.23355 5.18194 2.74863 5.98067 2.41778L5.78932 1.95584ZM3.49133 3.49132L3.13777 3.13776C1.71562 4.55991 0.916666 6.48877 0.916666 8.49999H1.41667H1.91667C1.91667 6.75398 2.61027 5.07948 3.84488 3.84487L3.49133 3.49132ZM1.41667 8.49999H0.916666C0.916666 10.5112 1.71562 12.4401 3.13777 13.8622L3.49133 13.5087L3.84488 13.1551C2.61027 11.9205 1.91667 10.246 1.91667 8.49999H1.41667ZM3.49133 13.5087L3.13777 13.8622C3.84195 14.5664 4.67793 15.125 5.59798 15.5061L5.78932 15.0441L5.98067 14.5822C5.18194 14.2514 4.4562 13.7664 3.84488 13.1551L3.49133 13.5087ZM5.78932 15.0441L5.59798 15.5061C6.51804 15.8872 7.50414 16.0833 8.5 16.0833V15.5833V15.0833C7.63546 15.0833 6.77939 14.913 5.98067 14.5822L5.78932 15.0441ZM8.5 15.5833V16.0833C10.5112 16.0833 12.4401 15.2844 13.8622 13.8622L13.5087 13.5087L13.1551 13.1551C11.9205 14.3897 10.246 15.0833 8.5 15.0833V15.5833ZM13.5087 13.5087L13.8622 13.8622C15.2844 12.4401 16.0833 10.5112 16.0833 8.49999H15.5833H15.0833C15.0833 10.246 14.3897 11.9205 13.1551 13.1551L13.5087 13.5087ZM15.5833 8.49999H16.0833C16.0833 7.50413 15.8872 6.51803 15.5061 5.59797L15.0441 5.78932L14.5822 5.98066C14.9131 6.77938 15.0833 7.63545 15.0833 8.49999H15.5833ZM15.0441 5.78932L15.5061 5.59797C15.125 4.67792 14.5664 3.84194 13.8622 3.13776L13.5087 3.49132L13.1551 3.84487C13.7664 4.45619 14.2514 5.18193 14.5822 5.98066L15.0441 5.78932ZM13.5087 3.49132L13.8622 3.13776C13.158 2.43359 12.3221 1.875 11.402 1.4939L11.2107 1.95584L11.0193 2.41778C11.8181 2.74863 12.5438 3.23355 13.1551 3.84487L13.5087 3.49132ZM11.2107 1.95584L11.402 1.4939C10.482 1.11281 9.49586 0.916656 8.5 0.916656V1.41666V1.91666C9.36454 1.91666 10.2206 2.08694 11.0193 2.41778L11.2107 1.95584ZM5.66667 5.66666L5.35432 6.05709L8.89599 8.89042L9.20833 8.49999L9.52068 8.10956L5.97901 5.27622L5.66667 5.66666ZM9.20833 8.49999L8.89599 8.10956L5.35432 10.9429L5.66667 11.3333L5.97901 11.7238L9.52068 8.89042L9.20833 8.49999ZM9.91667 5.66666V6.16666H11.3333V5.66666V5.16666H9.91667V5.66666ZM11.3333 5.66666H10.8333V11.3333H11.3333H11.8333V5.66666H11.3333ZM11.3333 11.3333V10.8333H9.91667V11.3333V11.8333H11.3333V11.3333Z" fill="black" mask="url(#path-1-outside-1_111_141)"/>
</svg>
