<svg width="17" height="17" viewBox="0 0 17 17" fill="none" xmlns="http://www.w3.org/2000/svg">
<mask id="path-1-outside-1_103_23" maskUnits="userSpaceOnUse" x="0.416641" y="0.416656" width="16" height="16" fill="black">
<rect fill="white" x="0.416641" y="0.416656" width="16" height="16"/>
<path d="M8.49998 1.41666C7.56978 1.41666 6.64869 1.59987 5.7893 1.95584C4.92991 2.31181 4.14905 2.83357 3.4913 3.49132C2.16292 4.8197 1.41664 6.62137 1.41664 8.49999C1.41664 10.3786 2.16292 12.1803 3.4913 13.5087C4.14905 14.1664 4.92991 14.6882 5.7893 15.0441C6.64869 15.4001 7.56978 15.5833 8.49998 15.5833C10.3786 15.5833 12.1803 14.837 13.5086 13.5087C14.837 12.1803 15.5833 10.3786 15.5833 8.49999C15.5833 7.56979 15.4001 6.64871 15.0441 5.78932C14.6882 4.92993 14.1664 4.14907 13.5086 3.49132C12.8509 2.83357 12.07 2.31181 11.2106 1.95584C10.3513 1.59987 9.43017 1.41666 8.49998 1.41666ZM5.66664 5.66666L9.20831 8.49999L5.66664 11.3333M9.91664 5.66666H11.3333V11.3333H9.91664"/>
</mask>
<path d="M8.49998 1.41666C7.56978 1.41666 6.64869 1.59987 5.7893 1.95584C4.92991 2.31181 4.14905 2.83357 3.4913 3.49132C2.16292 4.8197 1.41664 6.62137 1.41664 8.49999C1.41664 10.3786 2.16292 12.1803 3.4913 13.5087C4.14905 14.1664 4.92991 14.6882 5.7893 15.0441C6.64869 15.4001 7.56978 15.5833 8.49998 15.5833C10.3786 15.5833 12.1803 14.837 13.5086 13.5087C14.837 12.1803 15.5833 10.3786 15.5833 8.49999C15.5833 7.56979 15.4001 6.64871 15.0441 5.78932C14.6882 4.92993 14.1664 4.14907 13.5086 3.49132C12.8509 2.83357 12.07 2.31181 11.2106 1.95584C10.3513 1.59987 9.43017 1.41666 8.49998 1.41666ZM5.66664 5.66666L9.20831 8.49999L5.66664 11.3333M9.91664 5.66666H11.3333V11.3333H9.91664" fill="#D4C7B6"/>
<path d="M1.41664 8.49999H0.916641H1.41664ZM8.49998 15.5833V16.0833V15.5833ZM9.20831 8.49999L9.52066 8.89042L10.0087 8.49999L9.52066 8.10956L9.20831 8.49999ZM11.3333 5.66666H11.8333V5.16666H11.3333V5.66666ZM11.3333 11.3333V11.8333H11.8333V11.3333H11.3333ZM8.49998 1.41666V0.916656C7.50412 0.916656 6.51801 1.11281 5.59796 1.4939L5.7893 1.95584L5.98064 2.41778C6.77937 2.08694 7.63544 1.91666 8.49998 1.91666V1.41666ZM5.7893 1.95584L5.59796 1.4939C4.67791 1.875 3.84193 2.43359 3.13775 3.13776L3.4913 3.49132L3.84486 3.84487C4.45617 3.23355 5.18192 2.74863 5.98064 2.41778L5.7893 1.95584ZM3.4913 3.49132L3.13775 3.13776C1.7156 4.55991 0.916641 6.48877 0.916641 8.49999H1.41664H1.91664C1.91664 6.75398 2.61024 5.07948 3.84486 3.84487L3.4913 3.49132ZM1.41664 8.49999H0.916641C0.916641 10.5112 1.7156 12.4401 3.13775 13.8622L3.4913 13.5087L3.84486 13.1551C2.61024 11.9205 1.91664 10.246 1.91664 8.49999H1.41664ZM3.4913 13.5087L3.13775 13.8622C3.84193 14.5664 4.67791 15.125 5.59796 15.5061L5.7893 15.0441L5.98064 14.5822C5.18192 14.2514 4.45617 13.7664 3.84486 13.1551L3.4913 13.5087ZM5.7893 15.0441L5.59796 15.5061C6.51801 15.8872 7.50412 16.0833 8.49997 16.0833L8.49998 15.5833V15.0833C7.63544 15.0833 6.77937 14.913 5.98064 14.5822L5.7893 15.0441ZM8.49998 15.5833V16.0833C10.5112 16.0833 12.4401 15.2844 13.8622 13.8622L13.5086 13.5087L13.1551 13.1551C11.9205 14.3897 10.246 15.0833 8.49997 15.0833L8.49998 15.5833ZM13.5086 13.5087L13.8622 13.8622C15.2844 12.4401 16.0833 10.5112 16.0833 8.49999H15.5833H15.0833C15.0833 10.246 14.3897 11.9205 13.1551 13.1551L13.5086 13.5087ZM15.5833 8.49999H16.0833C16.0833 7.50413 15.8872 6.51803 15.5061 5.59797L15.0441 5.78932L14.5822 5.98066C14.913 6.77938 15.0833 7.63545 15.0833 8.49999H15.5833ZM15.0441 5.78932L15.5061 5.59797C15.125 4.67792 14.5664 3.84194 13.8622 3.13776L13.5086 3.49132L13.1551 3.84487C13.7664 4.45619 14.2513 5.18193 14.5822 5.98066L15.0441 5.78932ZM13.5086 3.49132L13.8622 3.13776C13.158 2.43359 12.322 1.875 11.402 1.4939L11.2106 1.95584L11.0193 2.41778C11.818 2.74863 12.5438 3.23355 13.1551 3.84487L13.5086 3.49132ZM11.2106 1.95584L11.402 1.4939C10.4819 1.11281 9.49583 0.916656 8.49998 0.916656V1.41666L8.49997 1.91666C9.36451 1.91666 10.2206 2.08694 11.0193 2.41778L11.2106 1.95584ZM5.66664 5.66666L5.35429 6.05709L8.89596 8.89042L9.20831 8.49999L9.52066 8.10956L5.97899 5.27622L5.66664 5.66666ZM9.20831 8.49999L8.89596 8.10956L5.35429 10.9429L5.66664 11.3333L5.97899 11.7238L9.52066 8.89042L9.20831 8.49999ZM9.91664 5.66666V6.16666H11.3333V5.66666V5.16666H9.91664V5.66666ZM11.3333 5.66666H10.8333V11.3333H11.3333H11.8333V5.66666H11.3333ZM11.3333 11.3333V10.8333H9.91664V11.3333V11.8333H11.3333V11.3333Z" fill="#7E222F" mask="url(#path-1-outside-1_103_23)"/>
</svg>
