<svg width="15" height="15" viewBox="0 0 15 15" fill="none" xmlns="http://www.w3.org/2000/svg">
<mask id="path-1-inside-1_99_18" fill="white">
<path d="M7.5 0.416656C6.5698 0.416656 5.64871 0.599872 4.78933 0.955843C3.92994 1.31181 3.14907 1.83357 2.49133 2.49132C1.16294 3.8197 0.416666 5.62137 0.416666 7.49999C0.416666 9.37861 1.16294 11.1803 2.49133 12.5087C3.14907 13.1664 3.92994 13.6882 4.78933 14.0441C5.64871 14.4001 6.5698 14.5833 7.5 14.5833C9.37862 14.5833 11.1803 13.837 12.5087 12.5087C13.8371 11.1803 14.5833 9.37861 14.5833 7.49999C14.5833 6.56979 14.4001 5.64871 14.0441 4.78932C13.6882 3.92993 13.1664 3.14907 12.5087 2.49132C11.8509 1.83357 11.0701 1.31181 10.2107 0.955843C9.35128 0.599872 8.4302 0.416656 7.5 0.416656ZM4.66667 4.66666L8.20833 7.49999L4.66667 10.3333M8.91667 4.66666H10.3333V10.3333H8.91667"/>
</mask>
<path d="M7.5 0.416656C6.5698 0.416656 5.64871 0.599872 4.78933 0.955843C3.92994 1.31181 3.14907 1.83357 2.49133 2.49132C1.16294 3.8197 0.416666 5.62137 0.416666 7.49999C0.416666 9.37861 1.16294 11.1803 2.49133 12.5087C3.14907 13.1664 3.92994 13.6882 4.78933 14.0441C5.64871 14.4001 6.5698 14.5833 7.5 14.5833C9.37862 14.5833 11.1803 13.837 12.5087 12.5087C13.8371 11.1803 14.5833 9.37861 14.5833 7.49999C14.5833 6.56979 14.4001 5.64871 14.0441 4.78932C13.6882 3.92993 13.1664 3.14907 12.5087 2.49132C11.8509 1.83357 11.0701 1.31181 10.2107 0.955843C9.35128 0.599872 8.4302 0.416656 7.5 0.416656ZM4.66667 4.66666L8.20833 7.49999L4.66667 10.3333M8.91667 4.66666H10.3333V10.3333H8.91667" fill="white"/>
<path d="M0.416666 7.49999H-0.083334H0.416666ZM7.5 14.5833V15.0833V14.5833ZM8.20833 7.49999L8.52068 7.89042L9.00872 7.49999L8.52068 7.10956L8.20833 7.49999ZM10.3333 4.66666H10.8333V4.16666H10.3333V4.66666ZM10.3333 10.3333V10.8333H10.8333V10.3333H10.3333ZM7.5 0.416656V-0.0833435C6.50414 -0.0833435 5.51804 0.112805 4.59798 0.493903L4.78933 0.955843L4.98067 1.41778C5.77939 1.08694 6.63546 0.916656 7.5 0.916656V0.416656ZM4.78933 0.955843L4.59798 0.493903C3.67793 0.875002 2.84195 1.43359 2.13777 2.13776L2.49133 2.49132L2.84488 2.84487C3.4562 2.23355 4.18194 1.74863 4.98067 1.41778L4.78933 0.955843ZM2.49133 2.49132L2.13777 2.13776C0.715622 3.55991 -0.083334 5.48877 -0.083334 7.49999H0.416666H0.916666C0.916666 5.75398 1.61027 4.07948 2.84488 2.84487L2.49133 2.49132ZM0.416666 7.49999H-0.083334C-0.083334 9.51122 0.715622 11.4401 2.13777 12.8622L2.49133 12.5087L2.84488 12.1551C1.61027 10.9205 0.916666 9.246 0.916666 7.49999H0.416666ZM2.49133 12.5087L2.13777 12.8622C2.84195 13.5664 3.67793 14.125 4.59798 14.5061L4.78933 14.0441L4.98067 13.5822C4.18194 13.2514 3.4562 12.7664 2.84488 12.1551L2.49133 12.5087ZM4.78933 14.0441L4.59798 14.5061C5.51804 14.8872 6.50414 15.0833 7.5 15.0833L7.5 14.5833V14.0833C6.63546 14.0833 5.77939 13.913 4.98067 13.5822L4.78933 14.0441ZM7.5 14.5833V15.0833C9.51122 15.0833 11.4401 14.2844 12.8622 12.8622L12.5087 12.5087L12.1551 12.1551C10.9205 13.3897 9.24601 14.0833 7.5 14.0833L7.5 14.5833ZM12.5087 12.5087L12.8622 12.8622C14.2844 11.4401 15.0833 9.51122 15.0833 7.49999H14.5833H14.0833C14.0833 9.246 13.3897 10.9205 12.1551 12.1551L12.5087 12.5087ZM14.5833 7.49999H15.0833C15.0833 6.50413 14.8872 5.51803 14.5061 4.59797L14.0441 4.78932L13.5822 4.98066C13.9131 5.77938 14.0833 6.63545 14.0833 7.49999H14.5833ZM14.0441 4.78932L14.5061 4.59797C14.125 3.67792 13.5664 2.84194 12.8622 2.13776L12.5087 2.49132L12.1551 2.84487C12.7664 3.45619 13.2514 4.18193 13.5822 4.98066L14.0441 4.78932ZM12.5087 2.49132L12.8622 2.13776C12.158 1.43359 11.3221 0.875002 10.402 0.493903L10.2107 0.955843L10.0193 1.41778C10.8181 1.74863 11.5438 2.23355 12.1551 2.84487L12.5087 2.49132ZM10.2107 0.955843L10.402 0.493903C9.48196 0.112805 8.49586 -0.0833435 7.5 -0.0833435V0.416656L7.5 0.916656C8.36454 0.916656 9.22061 1.08694 10.0193 1.41778L10.2107 0.955843ZM4.66667 4.66666L4.35432 5.05709L7.89599 7.89042L8.20833 7.49999L8.52068 7.10956L4.97901 4.27622L4.66667 4.66666ZM8.20833 7.49999L7.89599 7.10956L4.35432 9.94289L4.66667 10.3333L4.97901 10.7238L8.52068 7.89042L8.20833 7.49999ZM8.91667 4.66666V5.16666H10.3333V4.66666V4.16666H8.91667V4.66666ZM10.3333 4.66666H9.83333V10.3333H10.3333H10.8333V4.66666H10.3333ZM10.3333 10.3333V9.83332H8.91667V10.3333V10.8333H10.3333V10.3333Z" fill="black" mask="url(#path-1-inside-1_99_18)"/>
</svg>
