<svg width="20" height="20" viewBox="0 0 20 20" fill="none" xmlns="http://www.w3.org/2000/svg">
<path d="M9.96205 0.127106C11.2566 0.138386 12.5363 0.408141 13.7257 0.919098C14.7666 1.36627 15.7204 1.99076 16.5451 2.76382L16.8898 3.10367C18.5548 4.82757 19.5231 7.09988 19.6193 9.48355L19.6271 9.96207C19.6062 12.3587 18.703 14.6575 17.1007 16.425L16.7716 16.7716C14.9639 18.5793 12.5184 19.6048 9.96205 19.6271L9.48354 19.6193C7.25872 19.5295 5.13064 18.6806 3.45522 17.214L3.10365 16.8898C2.17264 15.9905 1.43003 14.915 0.919083 13.7257C0.471968 12.6849 0.209696 11.5749 0.143692 10.4464L0.12709 9.96207C0.117246 8.82914 0.305212 7.70415 0.680801 6.63785L0.852676 6.18472C1.34291 4.98655 2.06715 3.89798 2.98256 2.98257C3.78364 2.1815 4.71766 1.52752 5.74135 1.048L6.18471 0.852692C7.23308 0.423767 8.34739 0.18133 9.4767 0.134918L9.96205 0.127106ZM6.75014 14.2502H9.25014V5.75015H6.75014V14.2502ZM10.7501 14.2502H13.2501V5.75015H10.7501V14.2502Z" fill="#D4C7B6" stroke="#7E222F" stroke-width="0.5"/>
</svg>
