<svg width="20" height="20" viewBox="0 0 20 20" fill="none" xmlns="http://www.w3.org/2000/svg">
<path d="M9.96208 0.127106C11.2566 0.138386 12.5363 0.408141 13.7257 0.919098C14.7666 1.36627 15.7204 1.99076 16.5451 2.76382L16.8898 3.10367C18.5548 4.82757 19.5231 7.09988 19.6193 9.48355L19.6271 9.96207C19.6062 12.3587 18.703 14.6575 17.1007 16.425L16.7716 16.7716C14.964 18.5793 12.5184 19.6048 9.96208 19.6271L9.48356 19.6193C7.25874 19.5295 5.13067 18.6806 3.45524 17.214L3.10368 16.8898C2.17266 15.9905 1.43006 14.915 0.919109 13.7257C0.471995 12.6849 0.209723 11.5749 0.143719 10.4464L0.127117 9.96207C0.117272 8.82914 0.305239 7.70415 0.680828 6.63785L0.852703 6.18472C1.34294 4.98655 2.06718 3.89798 2.98259 2.98257C3.78366 2.1815 4.71768 1.52752 5.74137 1.048L6.18473 0.852692C7.23311 0.423767 8.34742 0.18133 9.47673 0.134918L9.96208 0.127106ZM6.75016 14.2502H9.25016V5.75015H6.75016V14.2502ZM10.7502 14.2502H13.2502V5.75015H10.7502V14.2502Z" fill="white" stroke="black" stroke-width="0.5"/>
</svg>
