<svg width="15" height="15" viewBox="0 0 15 15" fill="none" xmlns="http://www.w3.org/2000/svg">
<mask id="path-1-outside-1_111_143" maskUnits="userSpaceOnUse" x="-0.416668" y="-0.583344" width="16" height="16" fill="black">
<rect fill="white" x="-0.416668" y="-0.583344" width="16" height="16"/>
<path d="M7.5 0.416656C8.43019 0.416656 9.35128 0.599872 10.2107 0.955843C11.0701 1.31181 11.8509 1.83357 12.5087 2.49132C13.8371 3.8197 14.5833 5.62137 14.5833 7.49999C14.5833 9.37861 13.8371 11.1803 12.5087 12.5087C11.8509 13.1664 11.0701 13.6882 10.2107 14.0441C9.35128 14.4001 8.43019 14.5833 7.5 14.5833C5.62138 14.5833 3.81971 13.837 2.49133 12.5087C1.16294 11.1803 0.416664 9.37861 0.416664 7.49999C0.416664 6.56979 0.59988 5.64871 0.955851 4.78932C1.31182 3.92993 1.83358 3.14907 2.49133 2.49132C3.14907 1.83357 3.92993 1.31181 4.78932 0.955843C5.64871 0.599872 6.5698 0.416656 7.5 0.416656ZM10.3333 4.66666L6.79167 7.49999L10.3333 10.3333M6.08333 4.66666H4.66667V10.3333H6.08333"/>
</mask>
<path d="M7.5 0.416656C8.43019 0.416656 9.35128 0.599872 10.2107 0.955843C11.0701 1.31181 11.8509 1.83357 12.5087 2.49132C13.8371 3.8197 14.5833 5.62137 14.5833 7.49999C14.5833 9.37861 13.8371 11.1803 12.5087 12.5087C11.8509 13.1664 11.0701 13.6882 10.2107 14.0441C9.35128 14.4001 8.43019 14.5833 7.5 14.5833C5.62138 14.5833 3.81971 13.837 2.49133 12.5087C1.16294 11.1803 0.416664 9.37861 0.416664 7.49999C0.416664 6.56979 0.59988 5.64871 0.955851 4.78932C1.31182 3.92993 1.83358 3.14907 2.49133 2.49132C3.14907 1.83357 3.92993 1.31181 4.78932 0.955843C5.64871 0.599872 6.5698 0.416656 7.5 0.416656ZM10.3333 4.66666L6.79167 7.49999L10.3333 10.3333M6.08333 4.66666H4.66667V10.3333H6.08333" fill="#8C292B"/>
<path d="M14.5833 7.49999H14.9833H14.5833ZM7.5 14.5833V14.9833V14.5833ZM6.79167 7.49999L6.54179 7.81234L6.15135 7.49999L6.54179 7.18764L6.79167 7.49999ZM4.66667 4.66666H4.26666V4.26666H4.66667V4.66666ZM4.66667 10.3333V10.7333H4.26666V10.3333H4.66667ZM7.5 0.416656V0.0166565C8.48272 0.0166565 9.45583 0.210219 10.3637 0.586291L10.2107 0.955843L10.0576 1.3254C9.24674 0.989526 8.37767 0.816657 7.5 0.816657V0.416656ZM10.2107 0.955843L10.3637 0.586291C11.2717 0.962364 12.0966 1.51358 12.7915 2.20847L12.5087 2.49132L12.2258 2.77416C11.6052 2.15355 10.8685 1.66126 10.0576 1.3254L10.2107 0.955843ZM12.5087 2.49132L12.7915 2.20847C14.1949 3.61187 14.9833 5.51529 14.9833 7.49999H14.5833H14.1833C14.1833 5.72746 13.4792 4.02753 12.2258 2.77416L12.5087 2.49132ZM14.5833 7.49999H14.9833C14.9833 9.48469 14.1949 11.3881 12.7915 12.7915L12.5087 12.5087L12.2258 12.2258C13.4792 10.9725 14.1833 9.27252 14.1833 7.49999H14.5833ZM12.5087 12.5087L12.7915 12.7915C12.0966 13.4864 11.2717 14.0376 10.3637 14.4137L10.2107 14.0441L10.0576 13.6746C10.8685 13.3387 11.6052 12.8464 12.2258 12.2258L12.5087 12.5087ZM10.2107 14.0441L10.3637 14.4137C9.45583 14.7898 8.48272 14.9833 7.5 14.9833L7.5 14.5833V14.1833C8.37767 14.1833 9.24674 14.0105 10.0576 13.6746L10.2107 14.0441ZM7.5 14.5833V14.9833C5.5153 14.9833 3.61188 14.1949 2.20848 12.7915L2.49133 12.5087L2.77417 12.2258C4.02754 13.4792 5.72747 14.1833 7.5 14.1833V14.5833ZM2.49133 12.5087L2.20848 12.7915C0.805085 11.3881 0.0166645 9.48469 0.0166645 7.49999H0.416664H0.816665C0.816665 9.27252 1.5208 10.9725 2.77417 12.2258L2.49133 12.5087ZM0.416664 7.49999H0.0166645C0.0166645 6.51726 0.210226 5.54416 0.586299 4.63624L0.955851 4.78932L1.3254 4.94239C0.989533 5.75325 0.816665 6.62232 0.816665 7.49999H0.416664ZM0.955851 4.78932L0.586299 4.63624C0.962372 3.72832 1.51359 2.90337 2.20848 2.20847L2.49133 2.49132L2.77417 2.77416C2.15356 3.39476 1.66127 4.13153 1.3254 4.94239L0.955851 4.78932ZM2.49133 2.49132L2.20848 2.20847C2.90337 1.51358 3.72833 0.962364 4.63625 0.586291L4.78932 0.955843L4.9424 1.3254C4.13154 1.66126 3.39477 2.15355 2.77417 2.77416L2.49133 2.49132ZM4.78932 0.955843L4.63625 0.586291C5.54417 0.210219 6.51727 0.0166565 7.5 0.0166565V0.416656V0.816657C6.62233 0.816657 5.75326 0.989526 4.9424 1.3254L4.78932 0.955843ZM10.3333 4.66666L10.5832 4.979L7.04154 7.81234L6.79167 7.49999L6.54179 7.18764L10.0835 4.35431L10.3333 4.66666ZM6.79167 7.49999L7.04154 7.18764L10.5832 10.021L10.3333 10.3333L10.0835 10.6457L6.54179 7.81234L6.79167 7.49999ZM6.08333 4.66666V5.06666H4.66667V4.66666V4.26666H6.08333V4.66666ZM4.66667 4.66666H5.06666V10.3333H4.66667H4.26666V4.66666H4.66667ZM4.66667 10.3333V9.93332H6.08333V10.3333V10.7333H4.66667V10.3333Z" fill="black" mask="url(#path-1-outside-1_111_143)"/>
</svg>
