<svg width="15" height="15" viewBox="0 0 15 15" fill="none" xmlns="http://www.w3.org/2000/svg">
<mask id="path-1-inside-1_99_20" fill="white">
<path d="M7.5 0.416656C8.43019 0.416656 9.35128 0.599872 10.2107 0.955843C11.0701 1.31181 11.8509 1.83357 12.5087 2.49132C13.8371 3.8197 14.5833 5.62137 14.5833 7.49999C14.5833 9.37861 13.8371 11.1803 12.5087 12.5087C11.8509 13.1664 11.0701 13.6882 10.2107 14.0441C9.35128 14.4001 8.43019 14.5833 7.5 14.5833C5.62138 14.5833 3.81971 13.837 2.49133 12.5087C1.16294 11.1803 0.416664 9.37861 0.416664 7.49999C0.416664 6.56979 0.59988 5.64871 0.955851 4.78932C1.31182 3.92993 1.83358 3.14907 2.49133 2.49132C3.14907 1.83357 3.92993 1.31181 4.78932 0.955843C5.64871 0.599872 6.5698 0.416656 7.5 0.416656ZM10.3333 4.66666L6.79167 7.49999L10.3333 10.3333M6.08333 4.66666H4.66667V10.3333H6.08333"/>
</mask>
<path d="M7.5 0.416656C8.43019 0.416656 9.35128 0.599872 10.2107 0.955843C11.0701 1.31181 11.8509 1.83357 12.5087 2.49132C13.8371 3.8197 14.5833 5.62137 14.5833 7.49999C14.5833 9.37861 13.8371 11.1803 12.5087 12.5087C11.8509 13.1664 11.0701 13.6882 10.2107 14.0441C9.35128 14.4001 8.43019 14.5833 7.5 14.5833C5.62138 14.5833 3.81971 13.837 2.49133 12.5087C1.16294 11.1803 0.416664 9.37861 0.416664 7.49999C0.416664 6.56979 0.59988 5.64871 0.955851 4.78932C1.31182 3.92993 1.83358 3.14907 2.49133 2.49132C3.14907 1.83357 3.92993 1.31181 4.78932 0.955843C5.64871 0.599872 6.5698 0.416656 7.5 0.416656ZM10.3333 4.66666L6.79167 7.49999L10.3333 10.3333M6.08333 4.66666H4.66667V10.3333H6.08333" fill="white"/>
<path d="M14.5833 7.49999H15.0833H14.5833ZM7.5 14.5833V15.0833V14.5833ZM6.79167 7.49999L6.47932 7.89042L5.99127 7.49999L6.47932 7.10956L6.79167 7.49999ZM4.66667 4.66666H4.16667V4.16666H4.66667V4.66666ZM4.66667 10.3333V10.8333H4.16667V10.3333H4.66667ZM7.5 0.416656V-0.0833435C8.49586 -0.0833435 9.48196 0.112805 10.402 0.493903L10.2107 0.955843L10.0193 1.41778C9.2206 1.08694 8.36453 0.916656 7.5 0.916656V0.416656ZM10.2107 0.955843L10.402 0.493903C11.3221 0.875002 12.158 1.43359 12.8622 2.13776L12.5087 2.49132L12.1551 2.84487C11.5438 2.23355 10.8181 1.74863 10.0193 1.41778L10.2107 0.955843ZM12.5087 2.49132L12.8622 2.13776C14.2844 3.55991 15.0833 5.48877 15.0833 7.49999H14.5833H14.0833C14.0833 5.75398 13.3897 4.07948 12.1551 2.84487L12.5087 2.49132ZM14.5833 7.49999H15.0833C15.0833 9.51122 14.2844 11.4401 12.8622 12.8622L12.5087 12.5087L12.1551 12.1551C13.3897 10.9205 14.0833 9.246 14.0833 7.49999H14.5833ZM12.5087 12.5087L12.8622 12.8622C12.158 13.5664 11.3221 14.125 10.402 14.5061L10.2107 14.0441L10.0193 13.5822C10.8181 13.2514 11.5438 12.7664 12.1551 12.1551L12.5087 12.5087ZM10.2107 14.0441L10.402 14.5061C9.48196 14.8872 8.49586 15.0833 7.5 15.0833L7.5 14.5833V14.0833C8.36453 14.0833 9.2206 13.913 10.0193 13.5822L10.2107 14.0441ZM7.5 14.5833V15.0833C5.48877 15.0833 3.55992 14.2844 2.13777 12.8622L2.49133 12.5087L2.84488 12.1551C4.07949 13.3897 5.75399 14.0833 7.5 14.0833L7.5 14.5833ZM2.49133 12.5087L2.13777 12.8622C0.715621 11.4401 -0.0833359 9.51122 -0.0833359 7.49999H0.416664H0.916664C0.916664 9.246 1.61026 10.9205 2.84488 12.1551L2.49133 12.5087ZM0.416664 7.49999H-0.0833359C-0.0833359 6.50413 0.112813 5.51803 0.493911 4.59797L0.955851 4.78932L1.41779 4.98066C1.08695 5.77938 0.916664 6.63545 0.916664 7.49999H0.416664ZM0.955851 4.78932L0.493911 4.59797C0.87501 3.67792 1.43359 2.84194 2.13777 2.13776L2.49133 2.49132L2.84488 2.84487C2.23356 3.45619 1.74863 4.18193 1.41779 4.98066L0.955851 4.78932ZM2.49133 2.49132L2.13777 2.13776C2.84195 1.43359 3.67793 0.875002 4.59798 0.493903L4.78932 0.955843L4.98067 1.41778C4.18194 1.74863 3.4562 2.23355 2.84488 2.84487L2.49133 2.49132ZM4.78932 0.955843L4.59798 0.493903C5.51803 0.112805 6.50414 -0.0833435 7.5 -0.0833435V0.416656L7.5 0.916656C6.63546 0.916656 5.77939 1.08694 4.98067 1.41778L4.78932 0.955843ZM10.3333 4.66666L10.6457 5.05709L7.10401 7.89042L6.79167 7.49999L6.47932 7.10956L10.021 4.27622L10.3333 4.66666ZM6.79167 7.49999L7.10401 7.10956L10.6457 9.94289L10.3333 10.3333L10.021 10.7238L6.47932 7.89042L6.79167 7.49999ZM6.08333 4.66666V5.16666H4.66667V4.66666V4.16666H6.08333V4.66666ZM4.66667 4.66666H5.16667V10.3333H4.66667H4.16667V4.66666H4.66667ZM4.66667 10.3333V9.83332H6.08333V10.3333V10.8333H4.66667V10.3333Z" fill="black" mask="url(#path-1-inside-1_99_20)"/>
</svg>
