<svg width="15" height="15" viewBox="0 0 15 15" fill="none" xmlns="http://www.w3.org/2000/svg">
<mask id="path-1-outside-1_103_25" maskUnits="userSpaceOnUse" x="-0.416702" y="-0.583344" width="16" height="16" fill="black">
<rect fill="white" x="-0.416702" y="-0.583344" width="16" height="16"/>
<path d="M7.49996 0.416656C8.43016 0.416656 9.35125 0.599872 10.2106 0.955843C11.07 1.31181 11.8509 1.83357 12.5086 2.49132C13.837 3.8197 14.5833 5.62137 14.5833 7.49999C14.5833 9.37861 13.837 11.1803 12.5086 12.5087C11.8509 13.1664 11.07 13.6882 10.2106 14.0441C9.35125 14.4001 8.43016 14.5833 7.49996 14.5833C5.62135 14.5833 3.81967 13.837 2.49129 12.5087C1.16291 11.1803 0.41663 9.37861 0.41663 7.49999C0.41663 6.56979 0.599846 5.64871 0.955816 4.78932C1.31179 3.92993 1.83354 3.14907 2.49129 2.49132C3.14904 1.83357 3.9299 1.31181 4.78929 0.955843C5.64868 0.599872 6.56977 0.416656 7.49996 0.416656ZM10.3333 4.66666L6.79163 7.49999L10.3333 10.3333M6.0833 4.66666H4.66663V10.3333H6.0833"/>
</mask>
<path d="M7.49996 0.416656C8.43016 0.416656 9.35125 0.599872 10.2106 0.955843C11.07 1.31181 11.8509 1.83357 12.5086 2.49132C13.837 3.8197 14.5833 5.62137 14.5833 7.49999C14.5833 9.37861 13.837 11.1803 12.5086 12.5087C11.8509 13.1664 11.07 13.6882 10.2106 14.0441C9.35125 14.4001 8.43016 14.5833 7.49996 14.5833C5.62135 14.5833 3.81967 13.837 2.49129 12.5087C1.16291 11.1803 0.41663 9.37861 0.41663 7.49999C0.41663 6.56979 0.599846 5.64871 0.955816 4.78932C1.31179 3.92993 1.83354 3.14907 2.49129 2.49132C3.14904 1.83357 3.9299 1.31181 4.78929 0.955843C5.64868 0.599872 6.56977 0.416656 7.49996 0.416656ZM10.3333 4.66666L6.79163 7.49999L10.3333 10.3333M6.0833 4.66666H4.66663V10.3333H6.0833" fill="#D4C7B6"/>
<path d="M14.5833 7.49999H14.9833H14.5833ZM7.49996 14.5833V14.9833V14.5833ZM6.79163 7.49999L6.54175 7.81234L6.15132 7.49999L6.54175 7.18764L6.79163 7.49999ZM4.66663 4.66666H4.26663V4.26666H4.66663V4.66666ZM4.66663 10.3333V10.7333H4.26663V10.3333H4.66663ZM7.49996 0.416656V0.0166565C8.48269 0.0166565 9.45579 0.210219 10.3637 0.586291L10.2106 0.955843L10.0576 1.3254C9.24671 0.989526 8.37763 0.816657 7.49996 0.816657V0.416656ZM10.2106 0.955843L10.3637 0.586291C11.2716 0.962364 12.0966 1.51358 12.7915 2.20847L12.5086 2.49132L12.2258 2.77416C11.6052 2.15355 10.8684 1.66126 10.0576 1.3254L10.2106 0.955843ZM12.5086 2.49132L12.7915 2.20847C14.1949 3.61187 14.9833 5.51529 14.9833 7.49999H14.5833H14.1833C14.1833 5.72746 13.4792 4.02753 12.2258 2.77416L12.5086 2.49132ZM14.5833 7.49999H14.9833C14.9833 9.48469 14.1949 11.3881 12.7915 12.7915L12.5086 12.5087L12.2258 12.2258C13.4792 10.9725 14.1833 9.27252 14.1833 7.49999H14.5833ZM12.5086 12.5087L12.7915 12.7915C12.0966 13.4864 11.2716 14.0376 10.3637 14.4137L10.2106 14.0441L10.0576 13.6746C10.8684 13.3387 11.6052 12.8464 12.2258 12.2258L12.5086 12.5087ZM10.2106 14.0441L10.3637 14.4137C9.45579 14.7898 8.48269 14.9833 7.49996 14.9833L7.49996 14.5833V14.1833C8.37763 14.1833 9.24671 14.0105 10.0576 13.6746L10.2106 14.0441ZM7.49996 14.5833V14.9833C5.51526 14.9833 3.61185 14.1949 2.20845 12.7915L2.49129 12.5087L2.77413 12.2258C4.0275 13.4792 5.72743 14.1833 7.49996 14.1833V14.5833ZM2.49129 12.5087L2.20845 12.7915C0.805051 11.3881 0.0166302 9.48469 0.0166302 7.49999H0.41663H0.81663C0.81663 9.27252 1.52077 10.9725 2.77413 12.2258L2.49129 12.5087ZM0.41663 7.49999H0.0166302C0.0166302 6.51726 0.210192 5.54416 0.586265 4.63624L0.955816 4.78932L1.32537 4.94239C0.989499 5.75325 0.81663 6.62232 0.81663 7.49999H0.41663ZM0.955816 4.78932L0.586265 4.63624C0.962337 3.72832 1.51356 2.90337 2.20845 2.20847L2.49129 2.49132L2.77413 2.77416C2.15353 3.39476 1.66124 4.13153 1.32537 4.94239L0.955816 4.78932ZM2.49129 2.49132L2.20845 2.20847C2.90334 1.51358 3.7283 0.962364 4.63622 0.586291L4.78929 0.955843L4.94236 1.3254C4.1315 1.66126 3.39474 2.15355 2.77413 2.77416L2.49129 2.49132ZM4.78929 0.955843L4.63622 0.586291C5.54414 0.210219 6.51724 0.0166565 7.49996 0.0166565V0.416656V0.816657C6.6223 0.816657 5.75322 0.989526 4.94236 1.3254L4.78929 0.955843ZM10.3333 4.66666L10.5832 4.979L7.04151 7.81234L6.79163 7.49999L6.54175 7.18764L10.0834 4.35431L10.3333 4.66666ZM6.79163 7.49999L7.04151 7.18764L10.5832 10.021L10.3333 10.3333L10.0834 10.6457L6.54175 7.81234L6.79163 7.49999ZM6.0833 4.66666V5.06666H4.66663V4.66666V4.26666H6.0833V4.66666ZM4.66663 4.66666H5.06663V10.3333H4.66663H4.26663V4.66666H4.66663ZM4.66663 10.3333V9.93332H6.0833V10.3333V10.7333H4.66663V10.3333Z" fill="#7E222F" mask="url(#path-1-outside-1_103_25)"/>
</svg>
