<svg width="51" height="50" viewBox="0 0 51 50" fill="none" xmlns="http://www.w3.org/2000/svg">
<path d="M19.9023 0.0150593C19.6117 0.0759968 19.3492 0.318575 19.1992 0.618575C18.9992 1.01857 19.1004 1.41818 19.4004 1.71818C21.7004 4.01818 22.1992 7.51818 22.1992 9.71818C16.4992 4.91818 6.49922 4.21858 0.699219 7.11858C0.299219 7.31857 0.0996094 7.71858 0.0996094 8.11858C0.0996094 8.51857 0.398828 8.81897 0.798828 9.01897C5.29883 10.319 8.09883 13.4186 9.29883 15.1186C6.99883 15.4186 5.29961 16.3186 3.59961 17.1186C3.19961 17.3186 2.99961 17.7186 3.09961 18.1186C3.09961 18.5186 3.40039 18.919 3.90039 19.019C5.80039 19.519 7.69961 20.4197 9.09961 21.3197C3.59961 22.2197 0.600391 25.2194 0.400391 25.4194C0.100391 25.7194 -0.000390626 26.0194 0.0996094 26.4194C0.199609 26.7194 0.498828 27.0186 0.798828 27.1186C0.798828 27.1186 3.19961 27.7194 5.09961 28.9194C2.59961 30.2194 0.398828 32.3194 0.298828 32.4194C0.0988281 32.6194 0 33.0194 0 33.4194C0.1 33.7194 0.299219 34.0186 0.699219 34.1186L10.6992 37.1186H11H11.0176C11.168 37.2696 11.3268 37.4107 11.5 37.519L14.9219 39.6088L15.2988 42.019C15.3988 42.819 15.8996 43.519 16.5996 44.019L22.9004 48.519C23.4004 48.819 23.9 49.019 24.5 49.019H26.0996C26.2996 49.019 26.4004 49.0186 26.4004 49.1186C26.8004 49.0186 27.2 48.8186 27.5 48.6186L33.7988 44.1186C34.4988 43.6186 34.8996 42.919 35.0996 42.019L35.4414 40.0112L39.4004 37.6186C39.6534 37.4499 39.8734 37.2442 40.0723 37.019H40.0996H40.4004L47.4004 35.019C47.7004 34.919 47.9996 34.6197 48.0996 34.3197C48.1996 34.0197 48.0988 33.6197 47.7988 33.3197L44.5 30.019L49.7988 24.7182C49.9988 24.5182 50.0996 24.1197 50.0996 23.8197C49.9996 23.5197 49.8 23.2186 49.5 23.1186L45.7988 21.6186L49.9004 16.7182C50.2004 16.4182 50.2 15.919 50 15.519C49.8 15.119 49.3004 15.0186 48.9004 15.1186L39.5996 17.9194C38.7996 16.7194 37.0992 14.6182 34.1992 14.2182C34.2992 11.4182 33.4992 8.71975 31.6992 6.31975C29.0992 2.91975 24.8992 0.618966 20.1992 0.0189655C20.0992 -0.00603445 19.9992 -0.0052532 19.9023 0.0150593ZM26.2988 25.019C26.3988 26.519 26.2996 29.019 25.0996 31.519C24.8996 31.819 24.9988 32.3186 25.2988 32.6186C25.5988 32.9186 26.0004 33.0197 26.4004 32.8197C29.2004 31.5197 32.2004 29.3186 33.9004 28.1186C34.3004 30.6186 34 31.519 34 31.519C33.7 31.919 33.7992 32.4182 34.1992 32.7182C34.5992 33.0182 35.1 33.0182 35.5 32.7182L38.7988 30.019C38.8988 30.119 38.9004 30.3186 38.9004 30.6186V34.8197C38.9004 35.2197 38.7004 35.6197 38.4004 35.8197L35.8984 37.3315L35.9004 37.3197C36.0004 36.7197 35.5996 36.2186 35.0996 36.1186C34.4996 36.0186 34.0004 36.4194 33.9004 36.9194L33.0996 41.6186C33.0996 41.9186 32.8996 42.2194 32.5996 42.4194L26.2988 46.9194C26.1988 47.0194 26.0004 47.019 25.9004 47.019H25.7988H24.4004C24.3004 47.019 24.1 47.0194 24 46.9194L17.6992 42.4194C17.4992 42.2194 17.2992 41.9186 17.1992 41.6186L16.4004 36.6186C16.4004 36.1186 15.8988 35.7197 15.2988 35.8197C14.7988 35.8197 14.4 36.4194 14.5 36.9194L14.5098 36.9877L12.5996 35.8197C12.2996 35.6197 12.0996 35.2197 12.0996 34.8197V30.6186V30.2182C12.8996 32.1182 13.4004 32.7182 14.4004 33.7182C14.7004 34.0182 15.1 34.1194 15.5 33.9194C15.9 33.8194 16.0996 33.419 16.0996 33.019C16.0996 30.819 16.8996 28.8182 17.5996 27.2182C17.4996 28.6182 17.5004 30.1197 17.9004 31.3197C18.0004 31.7197 18.3988 32.019 18.7988 32.019C19.1988 32.119 19.5988 31.919 19.7988 31.519C21.1988 28.919 24.4988 26.319 26.2988 25.019ZM32.1836 33.0151C32.0555 32.9932 31.9238 32.994 31.7988 33.019L27.7988 34.019C27.2988 34.119 26.9996 34.7182 27.0996 35.2182C27.1996 35.7182 27.6996 36.019 28.0996 36.019C28.1303 36.019 28.1558 36.0141 28.1836 36.0112C28.2858 36.3054 28.477 36.5605 28.7308 36.741C28.9845 36.9216 29.2882 37.0188 29.5996 37.019C29.8214 37.0189 30.0404 36.9697 30.2409 36.8748C30.4414 36.7799 30.6183 36.6418 30.759 36.4703C30.8996 36.2988 31.0005 36.0982 31.0543 35.8831C31.1082 35.6679 31.1136 35.4435 31.0703 35.226L32.2988 34.9194C32.7988 34.8194 33.1 34.2182 33 33.7182C32.925 33.3432 32.568 33.0807 32.1836 33.0151ZM18.209 33.0717C17.7578 33.0211 17.2867 33.3822 17.1992 33.8197C16.9992 34.3197 17.4004 34.919 17.9004 35.019L19.1133 35.3217C19.0852 35.5334 19.1026 35.7487 19.1645 35.9532C19.2263 36.1576 19.3311 36.3465 19.4718 36.5072C19.6125 36.6679 19.7859 36.7966 19.9804 36.8849C20.1749 36.9732 20.386 37.0189 20.5996 37.019C20.9094 37.0185 21.2115 36.9222 21.4644 36.7431C21.7172 36.564 21.9084 36.3111 22.0117 36.019H22.0996C22.4996 36.019 22.9996 35.7197 23.0996 35.3197C23.2996 34.8197 22.9004 34.2186 22.4004 34.1186L18.4004 33.1186C18.3379 33.0936 18.2734 33.0789 18.209 33.0717ZM24.0996 39.019C23.4996 39.019 23.0996 39.419 23.0996 40.019C23.0996 40.619 23.4996 41.019 24.0996 41.019H26.0996C26.6996 41.019 27.0996 40.619 27.0996 40.019C27.0996 39.419 26.6996 39.019 26.0996 39.019H24.0996ZM22.0996 42.019C22.5996 43.219 23.7996 44.019 25.0996 44.019C26.3996 44.019 27.5996 43.219 28.0996 42.019H22.0996Z" fill="black"/>
</svg>
