<svg width="42" height="47" viewBox="0 0 42 47" fill="none" xmlns="http://www.w3.org/2000/svg">
<path d="M28.8438 0.968805C28.625 1.00787 28.4297 1.11724 28.2813 1.28131L24.0625 5.50006L20.7813 1.37506C20.5703 1.10943 20.2422 0.968805 19.9063 1.00006C19.5899 1.03912 19.3125 1.22271 19.1563 1.50006L16.6563 5.65631L10.5 2.12506C10.1641 1.92193 9.74221 1.93756 9.41799 2.15631C9.09377 2.37896 8.93362 2.76959 9.00002 3.15631L9.78127 7.81256L4.15627 7.00006C3.77737 6.94537 3.39846 7.11724 3.18362 7.43756C2.97268 7.75396 2.96096 8.16802 3.15627 8.50006L5.59377 12.5626L0.562523 15.0938C0.179711 15.2852 -0.0390391 15.6954 0.0195539 16.1211C0.0742419 16.543 0.394554 16.8829 0.812523 16.9688L4.62502 17.7188L3.06252 21.6251C2.89065 22.0235 2.99612 22.4883 3.32424 22.7735C3.65237 23.0586 4.12893 23.1016 4.50002 22.8751L5.00002 22.5938V25.1876C5.07034 25.8751 5.52737 26.4766 6.12502 26.7813C5.95705 26.9141 5.76174 27.086 5.59377 27.3126C5.09377 28.0118 4.80471 29.1133 4.90627 30.3126C5.30471 33.9141 7.6133 35.1993 8.31252 35.5001C8.6133 37.1993 9.40627 39.211 10.9063 41.3126C12.4063 43.6133 19.4063 46.9063 20.9063 46.9063C22.4063 46.9063 29.4063 43.5118 30.9063 41.3126C32.3047 39.211 33.1055 37.1016 33.4063 35.5001C34.1055 35.1993 36.4063 33.9141 36.9063 30.3126C37.0078 29.1133 36.6875 28.0118 36.1875 27.3126C36.0469 27.1251 35.9219 26.9649 35.7813 26.8438C36.4297 26.5586 36.9258 25.9141 37 25.1876V23.0313C37.3438 23.0391 37.6641 22.8711 37.8555 22.586C38.0469 22.3008 38.0781 21.9376 37.9375 21.6251L36.3125 17.5626L40.375 15.9376C40.75 15.793 41.0078 15.4376 41.0196 15.0352C41.0313 14.6329 40.8047 14.2618 40.4375 14.0938L35.3438 11.5313L37.8125 6.43756C37.9922 6.07818 37.9414 5.64849 37.6836 5.3399C37.4258 5.03521 37.0078 4.91412 36.625 5.03131L30.8125 6.71881L30 1.84381C29.9688 1.57037 29.8281 1.32427 29.6094 1.15631C29.3906 0.992243 29.1133 0.925836 28.8438 0.968805ZM20.0938 3.71881L23.2188 7.62506C23.3946 7.85162 23.6602 7.99224 23.9492 8.01177C24.2344 8.0313 24.5156 7.92193 24.7188 7.71881L28.3125 4.12506L29 8.15631C29.043 8.44537 29.2071 8.69927 29.4531 8.85552C29.6992 9.01177 30.0039 9.05474 30.2813 8.96881L35 7.59381L33.0938 11.5626C32.9766 11.8008 32.961 12.0782 33.0469 12.3321C33.1367 12.586 33.3203 12.793 33.5625 12.9063L37.5313 14.9063L34.625 16.0626C34.375 16.1602 34.1758 16.3555 34.0664 16.6016C33.961 16.8477 33.961 17.1251 34.0625 17.3751L34.8438 19.3126L30.4063 17.0938C30.375 17.0704 30.3438 17.0508 30.3125 17.0313C30.2656 17.0118 30.1953 17.004 30.125 17.0001C30.0938 17.0001 30.0664 17.0001 30.0313 17.0001C30.0196 17.0001 30.0117 17.0001 30 17.0001H11C10.9649 17.0001 10.9375 17.0001 10.9063 17.0001C10.7813 17.0001 10.6797 17.0235 10.5938 17.0626C10.5664 17.0743 10.5196 17.0743 10.5 17.0938L9.46877 17.7188L6.00002 19.6876L6.93752 17.3751C7.04299 17.0977 7.02346 16.7852 6.87893 16.5274C6.7344 16.2657 6.48049 16.086 6.18752 16.0313L4.03127 15.5938L7.43752 13.9063C7.68362 13.7813 7.87112 13.5586 7.94534 13.293C8.02346 13.0235 7.9883 12.7383 7.84377 12.5001L5.93752 9.31256L10.8438 10.0001C11.1641 10.0547 11.4922 9.95318 11.7227 9.72271C11.9531 9.49224 12.0547 9.16412 12 8.84381L11.3438 4.93756L16.5 7.87506C16.9766 8.13287 17.5703 7.96881 17.8438 7.50006L20.0938 3.71881ZM15 19.0001H27C28.1016 19.0001 29 19.8985 29 21.0001V23.0001C29 24.1016 28.1016 25.0001 27 25.0001H15C13.8985 25.0001 13 24.1016 13 23.0001V21.0001C13 19.8985 13.8985 19.0001 15 19.0001ZM8.65627 27.0001H33.3125C33.3711 27.2227 33.4766 27.4376 33.6875 27.5938C33.8867 27.6954 34.3008 28.0079 34.5 28.4063C34.8008 28.8047 35.0078 29.293 34.9063 30.0938C34.5078 33.293 32.3125 33.9063 32.3125 33.9063C32.0664 33.9688 31.8985 34.1485 31.7813 34.3438C31.3321 34.0821 30.836 33.8712 30.3438 33.6876C29.2735 33.2852 28.25 33.0313 28.25 33.0313C28.1172 32.9922 27.9805 32.9844 27.8438 33.0001C27.3594 33.0587 26.9922 33.4571 26.9688 33.9454C26.9453 34.4297 27.2735 34.8633 27.75 34.9688C27.75 34.9688 28.7266 35.2149 29.6563 35.5626C30.1211 35.7383 30.5703 35.9532 30.8438 36.1251C30.9492 36.1915 30.9961 36.2188 31.0313 36.2501C31.0547 36.3282 31.086 36.3985 31.125 36.4688C30.9141 37.0313 30.6406 37.6329 30.3125 38.2813C29.9492 37.8282 29.5117 37.4376 29.0938 37.1251C28.2578 36.5001 27.4375 36.0938 27.4375 36.0938C27.2617 36.0079 27.0664 35.9766 26.875 36.0001C26.4258 36.0469 26.0625 36.3868 25.9883 36.8321C25.9141 37.2813 26.1485 37.7188 26.5625 37.9063C26.5625 37.9063 27.2422 38.2501 27.9063 38.7501C28.2383 39.0001 28.5508 39.2813 28.75 39.5313C28.9492 39.7813 29 39.9571 29 40.0001C29.0039 40.1407 29.0352 40.2774 29.0938 40.4063C28.7461 40.8438 28.2461 41.2774 27.6563 41.7188C27.4102 41.2501 27.086 40.8438 26.7813 40.4688C26.2344 39.8008 25.6875 39.2813 25.6875 39.2813C25.4453 39.0313 25.0899 38.9258 24.75 39.0001C24.3867 39.086 24.1016 39.3672 24.0117 39.7266C23.918 40.0899 24.0352 40.4688 24.3125 40.7188C24.3125 40.7188 24.7656 41.1641 25.2188 41.7188C25.5821 42.1641 25.8086 42.6563 25.9063 42.8438C23.8438 44.0587 21.586 45.0001 21 45.0001C20.4102 45.0001 18.1289 44.0743 16.0625 42.8751C16.1446 42.7266 16.3946 42.1915 16.7813 41.7188C17.2344 41.1641 17.6875 40.7188 17.6875 40.7188C18.0196 40.4141 18.1094 39.9258 17.9063 39.5274C17.6992 39.1251 17.2539 38.9102 16.8125 39.0001C16.6211 39.043 16.4492 39.1407 16.3125 39.2813C16.3125 39.2813 15.7656 39.8008 15.2188 40.4688C14.9063 40.8516 14.5586 41.2657 14.3125 41.7501C13.7383 41.3282 13.2461 40.879 12.9063 40.4688C12.9766 40.3243 13.0078 40.1602 13 40.0001C13 39.9571 13.0508 39.7813 13.25 39.5313C13.4492 39.2813 13.7617 39.0001 14.0938 38.7501C14.7578 38.2501 15.4375 37.9063 15.4375 37.9063C15.9649 37.7344 16.25 37.168 16.0781 36.6407C15.9063 36.1133 15.3399 35.8282 14.8125 36.0001C14.7266 36.0196 14.6406 36.0508 14.5625 36.0938C14.5625 36.0938 13.7422 36.5001 12.9063 37.1251C12.4883 37.4376 12.0508 37.8282 11.6875 38.2813C11.6641 38.3087 11.6485 38.3477 11.625 38.3751C11.2891 37.7383 11.0274 37.1485 10.8125 36.5938C10.8867 36.4883 10.9375 36.3751 10.9688 36.2501C11.0039 36.2188 11.0508 36.1915 11.1563 36.1251C11.4297 35.9532 11.8789 35.7383 12.3438 35.5626C13.2735 35.2149 14.25 34.9688 14.25 34.9688C14.793 34.8477 15.1367 34.3087 15.0156 33.7657C14.8946 33.2227 14.3555 32.879 13.8125 33.0001C13.793 33.0079 13.7696 33.0196 13.75 33.0313C13.75 33.0313 12.7266 33.2852 11.6563 33.6876C11.1446 33.879 10.6172 34.0938 10.1563 34.3751C10.0313 34.1954 9.83205 34.0587 9.59377 34.0001C9.59377 34.0001 7.39846 33.293 7.00002 30.0938C6.89846 29.293 7.10549 28.8047 7.40627 28.4063C7.70705 28.0079 7.9883 27.6954 8.18752 27.5938C8.4258 27.4766 8.60159 27.2657 8.65627 27.0001ZM15.5 28.0001C14.6719 28.0001 14 28.6719 14 29.5001C14 30.3282 14.6719 31.0001 15.5 31.0001C16.3281 31.0001 17 30.3282 17 29.5001C17 28.6719 16.3281 28.0001 15.5 28.0001ZM26.5 28.0001C25.6719 28.0001 25 28.6719 25 29.5001C25 30.3282 25.6719 31.0001 26.5 31.0001C27.3281 31.0001 28 30.3282 28 29.5001C28 28.6719 27.3281 28.0001 26.5 28.0001Z" fill="black"/>
</svg>
