<svg width="44" height="46" viewBox="0 0 44 46" fill="none" xmlns="http://www.w3.org/2000/svg">
<path d="M20.9845 0C19.8829 0 18.9845 0.898438 18.9845 2V2.04688C13.7267 2.48828 9.28529 6.37891 8.23451 11.5781C8.16029 11.8672 8.1017 12.1875 8.06263 12.5352C8.0392 12.6211 8.00013 12.75 7.98841 12.918C7.92591 13.6641 7.75013 14.668 7.46888 15.9023C7.43373 16.0508 7.39857 16.1992 7.36341 16.3477C9.3556 15.1875 11.715 15 12.9845 15C16.379 15 19.4259 15.8047 20.1251 16H23.84C24.5392 15.8008 27.5431 15 30.9845 15C31.9923 15 34.5079 15.1523 36.6408 16.4375L36.5158 15.9648C36.2228 14.707 36.0431 13.6836 35.9806 12.9141C35.9689 12.7617 35.9376 12.6406 35.9064 12.5391C35.8673 12.1914 35.8087 11.875 35.7462 11.6367C34.6876 6.38281 30.2462 2.48828 24.9845 2.04688V2C24.9845 0.898438 24.0861 0 22.9845 0H20.9845ZM20.9845 2H22.9845V16H20.9845V2ZM17.0704 6C17.4611 6.03516 17.8087 6.29688 17.9376 6.6875C18.1056 7.21484 17.8204 7.77734 17.297 7.94922C17.1915 7.98437 14.8556 8.80469 13.922 11.3438C13.7736 11.75 13.3908 12 12.9845 12C12.8712 12 12.754 11.9805 12.6408 11.9375C12.1212 11.7461 11.8556 11.1719 12.047 10.6562C13.3244 7.17578 16.5392 6.09375 16.672 6.04688C16.8048 6.00391 16.9415 5.99219 17.0704 6ZM13.0001 17C11.3595 17 7.4142 17.3516 6.30091 20.5977C6.30091 20.5977 4.06654 25.5273 3.51185 26.7773C1.70716 30.832 0.00013262 34.6641 0.00013262 36.9805C-0.00377338 37.3125 0.0704455 38.4922 1.32826 39.7695C2.44545 40.9023 5.06263 41.9766 8.52748 42.7617C9.43373 41.8203 10.6369 40.3359 11.0314 38.7578C11.1681 38.2227 11.7111 37.8984 12.2462 38.0312C12.7814 38.1641 13.1056 38.707 12.9689 39.2422C12.5548 40.8984 11.5079 42.4062 10.5509 43.5117C11.8712 45.1836 15.6447 46 22.0001 46C28.6915 46 32.4259 45.1445 33.59 43.3281C33.0158 42.5078 32.3595 41.4023 32.0392 40.2695C31.8908 39.7383 32.1994 39.1875 32.7306 39.0352C33.2619 38.8867 33.8126 39.1992 33.965 39.7305C34.2658 40.8047 35.047 41.9805 35.6212 42.7227C39.0079 41.9453 41.5744 40.8867 42.672 39.7695C43.9298 38.4922 44.0079 37.3086 44.0001 37C44.0001 34.6602 42.297 30.832 40.4962 26.7812C39.9376 25.5312 37.715 20.625 37.715 20.625C36.4533 17.2617 32.2579 17 31.0001 17C27.4415 17 24.3283 17.9453 24.297 17.957L24.0001 18H19.715C19.6798 17.9883 16.4884 17 13.0001 17ZM15.3595 19C18.2345 19 21.0001 21 21.0001 21V25.2656C21.2931 25.1016 21.6251 25 21.9845 25C22.3556 25 22.7033 25.1094 23.0001 25.2852V21C23.0001 21 25.7697 19 28.6447 19C31.6915 19 33.0001 21.875 33.0001 24C33.0001 24.0859 32.9845 24.1641 32.9728 24.2461C32.8517 26.4688 31.1173 30.8594 30.9142 31.3711C30.7579 31.7617 30.379 32 29.9845 32C29.8595 32 29.7345 31.9766 29.6134 31.9297C29.1017 31.7266 28.8517 31.1406 29.0548 30.6289C29.4259 29.6953 30.215 27.5742 30.6603 25.8672C29.7853 26.0234 29.0001 26 29.0001 26H23.7072C23.879 26.2969 23.9845 26.6328 23.9845 27V36H22.9845V30H20.9845V36H19.9845V27C19.9845 26.6328 20.09 26.2969 20.2619 26H15.0001C15.0001 26 14.1954 26.0234 13.3087 25.8594C13.7501 27.5664 14.5392 29.6953 14.9142 30.6289C15.1173 31.1406 14.8712 31.7266 14.3556 31.9297C14.2345 31.9766 14.1095 32 13.9845 32C13.5861 32 13.2111 31.7617 13.0548 31.3711C12.8439 30.8398 10.9845 26.1328 10.9845 24C10.9845 23.9609 11.0001 23.9297 11.004 23.8906C11.047 21.7812 12.3634 19 15.3595 19ZM17.9845 31.1992V36H14.9845L17.9845 31.1992ZM25.9845 31.1992L28.9845 36H25.9845V31.1992ZM26.9454 35C26.9572 35.0234 26.9728 35.0391 26.9845 35.0625V35H26.9454Z" fill="black"/>
</svg>
