<svg width="43" height="38" viewBox="0 0 43 38" fill="none" xmlns="http://www.w3.org/2000/svg">
<rect x="1.16504" y="0.5" width="41.3349" height="37" rx="9.5" fill="#F8F8F8" fill-opacity="0.62" stroke="black"/>
<path d="M17.5597 11.9375C17.7784 11.7031 18.0519 11.5938 18.38 11.6094C18.7238 11.6094 19.0597 11.6719 19.3878 11.7969C19.7159 11.9219 20.005 12.0781 20.255 12.2656C20.5206 12.4375 20.6925 12.5703 20.7706 12.6641C20.8175 12.7266 20.8566 12.8828 20.8878 13.1328C20.9191 13.3828 20.9347 13.6953 20.9347 14.0703C20.9503 14.4297 20.9503 14.8281 20.9347 15.2656C20.9347 15.6875 20.9191 16.1016 20.8878 16.5078C20.8566 16.9141 20.8019 17.2969 20.7238 17.6562C20.6613 18 20.5831 18.2734 20.4894 18.4766C20.3488 18.7891 20.1144 19.0391 19.7863 19.2266C19.4581 19.4141 19.1144 19.5391 18.755 19.6016C18.4113 19.6641 18.0753 19.6641 17.7472 19.6016C17.4191 19.5391 17.1847 19.4141 17.0441 19.2266C16.9503 19.1172 16.88 18.875 16.8331 18.5C16.7863 18.1094 16.7628 17.6641 16.7628 17.1641C16.7784 16.6641 16.8097 16.1328 16.8566 15.5703C16.9034 14.9922 16.9581 14.4531 17.0206 13.9531C17.0988 13.4531 17.1847 13.0234 17.2784 12.6641C17.3722 12.2891 17.4659 12.0469 17.5597 11.9375ZM18.1222 15.4297C18.1222 15.6797 18.1144 15.9531 18.0988 16.25C18.0988 16.5469 18.0988 16.8359 18.0988 17.1172C18.1144 17.3828 18.13 17.6094 18.1456 17.7969C18.1769 17.9844 18.2238 18.1016 18.2863 18.1484C18.3331 18.1953 18.4269 18.2344 18.5675 18.2656C18.7238 18.2812 18.8722 18.2734 19.0128 18.2422C19.1691 18.2109 19.3097 18.1406 19.4347 18.0312C19.5597 17.9062 19.6378 17.7188 19.6691 17.4688C19.6847 17.2188 19.6847 16.875 19.6691 16.4375C19.6534 16 19.6222 15.5625 19.5753 15.125C19.5441 14.6719 19.505 14.2656 19.4581 13.9062C19.4269 13.5469 19.3878 13.3125 19.3409 13.2031C19.3097 13.1406 19.2628 13.0781 19.2003 13.0156C19.1378 12.9688 19.0597 12.9219 18.9659 12.875C18.8722 12.8125 18.7628 12.7656 18.6378 12.7344C18.6378 12.7344 18.6066 12.7578 18.5441 12.8047C18.4972 12.8359 18.4425 12.9453 18.38 13.1328C18.3175 13.3047 18.255 13.5703 18.1925 13.9297C18.1456 14.2891 18.1222 14.7891 18.1222 15.4297ZM22.4816 21.4297C22.7003 21.1953 22.9738 21.0859 23.3019 21.1016C23.63 21.1016 23.9581 21.1641 24.2863 21.2891C24.6144 21.4141 24.9034 21.5625 25.1534 21.7344C25.4191 21.9062 25.5909 22.0391 25.6691 22.1328C25.7316 22.2266 25.7784 22.5234 25.8097 23.0234C25.8566 23.5234 25.8722 24.0938 25.8566 24.7344C25.8409 25.3594 25.7941 25.9844 25.7159 26.6094C25.6534 27.2188 25.5441 27.6797 25.3878 27.9922C25.2472 28.3047 25.0128 28.5547 24.6847 28.7422C24.3722 28.9141 24.0363 29.0234 23.6769 29.0703C23.3331 29.1328 22.9972 29.1328 22.6691 29.0703C22.3409 29.0234 22.1066 28.9062 21.9659 28.7188C21.8566 28.5938 21.7784 28.3438 21.7316 27.9688C21.7003 27.5938 21.6847 27.1562 21.6847 26.6562C21.7003 26.1406 21.7316 25.6016 21.7784 25.0391C21.8253 24.4766 21.88 23.9453 21.9425 23.4453C22.0206 22.9453 22.1066 22.5156 22.2003 22.1562C22.2941 21.7812 22.3878 21.5391 22.4816 21.4297ZM23.0441 24.9219C23.0441 25.1719 23.0363 25.4453 23.0206 25.7422C23.0206 26.0391 23.0206 26.3281 23.0206 26.6094C23.0206 26.875 23.0284 27.1016 23.0441 27.2891C23.0753 27.4766 23.1222 27.5938 23.1847 27.6406C23.2472 27.6875 23.3488 27.7266 23.4894 27.7578C23.63 27.7734 23.7706 27.7656 23.9113 27.7344C24.0675 27.7031 24.2081 27.6328 24.3331 27.5234C24.4581 27.3984 24.5363 27.2109 24.5675 26.9609C24.5831 26.7109 24.5831 26.3672 24.5675 25.9297C24.5519 25.4922 24.5284 25.0547 24.4972 24.6172C24.4659 24.1641 24.4269 23.7578 24.38 23.3984C24.3488 23.0391 24.3097 22.8125 24.2628 22.7188C24.2316 22.6406 24.1847 22.5703 24.1222 22.5078C23.9816 22.3672 23.7941 22.2734 23.5597 22.2266C23.4503 22.2734 23.3644 22.3984 23.3019 22.6016C23.2238 22.7734 23.1613 23.0391 23.1144 23.3984C23.0675 23.7578 23.0441 24.2656 23.0441 24.9219ZM16.8331 29.3984C16.7081 29.3984 16.6378 29.2734 16.6222 29.0234C16.6066 28.7891 16.6378 28.5547 16.7159 28.3203C17.5441 26.5391 18.2863 24.9531 18.9425 23.5625C19.6144 22.1719 20.2081 20.9375 20.7238 19.8594C21.255 18.7812 21.7159 17.8516 22.1066 17.0703C22.4972 16.2891 22.8331 15.625 23.1144 15.0781C23.7706 13.7969 24.2394 12.9297 24.5206 12.4766C24.6613 12.2891 24.8253 12.125 25.0128 11.9844C25.2159 11.8438 25.4034 11.7344 25.5753 11.6562C25.7628 11.5625 25.9191 11.5078 26.0441 11.4922C26.1847 11.4766 26.2706 11.4922 26.3019 11.5391C26.3488 11.6016 26.255 11.9062 26.0206 12.4531C25.7863 12.9844 25.4581 13.6797 25.0363 14.5391C24.63 15.3828 24.1534 16.3359 23.6066 17.3984C23.0597 18.4609 22.4894 19.5469 21.8956 20.6562C21.3175 21.75 20.7394 22.8203 20.1613 23.8672C19.5831 24.9141 19.0597 25.8516 18.5909 26.6797C18.1222 27.4922 17.7238 28.1484 17.3956 28.6484C17.0831 29.1484 16.8956 29.3984 16.8331 29.3984Z" fill="#972DE8"/>
</svg>
