<svg width="43" height="41" viewBox="0 0 43 41" fill="none" xmlns="http://www.w3.org/2000/svg">
<rect x="1.16504" y="3.5" width="41.3349" height="37" rx="9.5" fill="#FEFEFE" fill-opacity="0.62" stroke="black"/>
<path d="M25.7784 19.9688C26.0076 20.0312 26.1847 20.1875 26.3097 20.4375C26.4555 20.6875 26.5493 20.9583 26.5909 21.25C26.6534 21.5417 26.6534 21.8229 26.5909 22.0938C26.5284 22.3646 26.4034 22.5417 26.2159 22.625C26.0701 22.6667 25.6847 22.6979 25.0597 22.7188C24.4347 22.7396 23.7159 22.7396 22.9034 22.7188C22.8409 23.6354 22.7784 24.4375 22.7159 25.125C22.6534 25.7917 22.5805 26.1771 22.4972 26.2812C22.3097 26.5729 22.0389 26.75 21.6847 26.8125C21.3514 26.875 21.1118 26.8854 20.9659 26.8438C20.9034 26.8438 20.8409 26.7292 20.7784 26.5C20.7159 26.25 20.6534 25.9375 20.5909 25.5625C20.5284 25.1667 20.4659 24.7188 20.4034 24.2188C20.3618 23.7188 20.3201 23.1979 20.2784 22.6562C19.4243 22.6354 18.6639 22.5938 17.9972 22.5312C17.3305 22.4688 16.9451 22.3854 16.8409 22.2812C16.7159 22.2188 16.6222 22.125 16.5597 22C16.518 21.875 16.4868 21.75 16.4659 21.625C16.4659 21.4792 16.4764 21.3438 16.4972 21.2188C16.518 21.0729 16.5389 20.9583 16.5597 20.875C16.6014 20.7708 16.9659 20.6771 17.6534 20.5938C18.3618 20.4896 19.1847 20.3854 20.1222 20.2812C20.0805 19.4896 20.0597 18.7917 20.0597 18.1875C20.0597 17.5833 20.0805 17.1979 20.1222 17.0312C20.1847 16.7812 20.3514 16.5625 20.6222 16.375C20.893 16.1875 21.1847 16.0417 21.4972 15.9375C21.8305 15.8333 22.1326 15.7917 22.4034 15.8125C22.6951 15.8125 22.8826 15.8958 22.9659 16.0625C23.0076 16.1875 23.0284 16.6354 23.0284 17.4062C23.0493 18.1562 23.0389 19.0312 22.9972 20.0312C23.6639 19.9896 24.2472 19.9583 24.7472 19.9375C25.268 19.9167 25.6118 19.9271 25.7784 19.9688Z" fill="#972DE8"/>
</svg>
