<svg width="43" height="39" viewBox="0 0 43 39" fill="none" xmlns="http://www.w3.org/2000/svg">
<rect x="1.16504" y="1.5" width="41.3349" height="37" rx="9.5" fill="#FEFEFE" fill-opacity="0.62" stroke="black"/>
<path d="M26.2159 22.4688C26.1118 22.5104 25.8201 22.5417 25.3409 22.5625C24.8618 22.5833 24.2889 22.5938 23.6222 22.5938C22.9555 22.5938 22.2368 22.5833 21.4659 22.5625C20.7159 22.5208 20.0076 22.4896 19.3409 22.4688C18.6951 22.4271 18.1326 22.3854 17.6534 22.3438C17.1951 22.2812 16.9243 22.2188 16.8409 22.1562C16.5909 21.9896 16.4659 21.7604 16.4659 21.4688C16.4868 21.1562 16.518 20.9167 16.5597 20.75C16.5805 20.6875 16.7993 20.6146 17.2159 20.5312C17.6534 20.4271 18.1847 20.3438 18.8097 20.2812C19.4555 20.1979 20.143 20.125 20.8722 20.0625C21.6222 19.9792 22.3305 19.9167 22.9972 19.875C23.6847 19.8333 24.2784 19.8125 24.7784 19.8125C25.2993 19.7917 25.6326 19.8021 25.7784 19.8438C26.0076 19.8854 26.1847 20.0312 26.3097 20.2812C26.4555 20.5312 26.5493 20.8125 26.5909 21.125C26.6534 21.4167 26.6534 21.6979 26.5909 21.9688C26.5284 22.2188 26.4034 22.3854 26.2159 22.4688Z" fill="#972DE8"/>
</svg>
