<svg width="57" height="38" viewBox="0 0 57 38" fill="none" xmlns="http://www.w3.org/2000/svg">
<rect x="0.704468" y="0.5" width="55.7907" height="37" rx="9.5" fill="white" fill-opacity="0.62" stroke="black"/>
<path d="M32.5327 17.8281C32.4546 17.8594 32.2358 17.8828 31.8765 17.8984C31.5171 17.9141 31.0874 17.9219 30.5874 17.9219C30.0874 17.9219 29.5483 17.9141 28.9702 17.8984C28.4077 17.8828 27.8765 17.8594 27.3765 17.8281C26.8921 17.7969 26.4702 17.7656 26.1108 17.7344C25.7671 17.7031 25.564 17.6641 25.5015 17.6172C25.314 17.4922 25.2202 17.3125 25.2202 17.0781C25.2358 16.8438 25.2593 16.6719 25.2905 16.5625C25.3062 16.5 25.4702 16.4375 25.7827 16.375C26.1108 16.3125 26.5093 16.25 26.978 16.1875C27.4624 16.125 27.978 16.0703 28.5249 16.0234C29.0874 15.9609 29.6187 15.9141 30.1187 15.8828C30.6343 15.8516 31.0796 15.8359 31.4546 15.8359C31.8452 15.8203 32.0952 15.8281 32.2046 15.8594C32.3765 15.8906 32.5093 16.0078 32.603 16.2109C32.7124 16.3984 32.7827 16.6016 32.814 16.8203C32.8608 17.0391 32.8608 17.25 32.814 17.4531C32.7671 17.6562 32.6733 17.7812 32.5327 17.8281ZM32.7202 21.1328C32.6265 21.1641 32.3999 21.1875 32.0405 21.2031C31.6812 21.2188 31.2515 21.2266 30.7515 21.2266C30.2515 21.2266 29.7124 21.2188 29.1343 21.2031C28.5718 21.1875 28.0483 21.1641 27.564 21.1328C27.0796 21.1016 26.6577 21.0703 26.2983 21.0391C25.9546 21.0078 25.7515 20.9688 25.689 20.9219C25.5015 20.8125 25.4077 20.6406 25.4077 20.4062C25.4077 20.1719 25.439 19.9922 25.5015 19.8672C25.5171 19.8203 25.6812 19.7656 25.9937 19.7031C26.3218 19.6406 26.7202 19.5781 27.189 19.5156C27.6577 19.4531 28.1655 19.3984 28.7124 19.3516C29.2749 19.2891 29.8062 19.2422 30.3062 19.2109C30.8062 19.1797 31.2437 19.1641 31.6187 19.1641C32.0093 19.1484 32.2593 19.1484 32.3687 19.1641C32.5405 19.2109 32.6812 19.3281 32.7905 19.5156C32.8999 19.7031 32.9702 19.9141 33.0015 20.1484C33.0483 20.3672 33.0483 20.5781 33.0015 20.7812C32.9546 20.9688 32.8608 21.0859 32.7202 21.1328Z" fill="#972DE8"/>
</svg>
