<svg width="59" height="38" viewBox="0 0 59 38" fill="none" xmlns="http://www.w3.org/2000/svg">
<rect x="0.5" y="0.5" width="57.8558" height="37" rx="9.5" fill="#151515" stroke="black"/>
<mask id="path-2-outside-1_10_161" maskUnits="userSpaceOnUse" x="23.7195" y="7" width="11" height="22" fill="black">
<rect fill="white" x="23.7195" y="7" width="11" height="22"/>
<path d="M30.0398 11.6016C30.0085 11.5547 29.9539 11.5078 29.8757 11.4609C29.8132 11.4141 29.7351 11.375 29.6414 11.3438C29.5476 11.3125 29.4539 11.3047 29.3601 11.3203C29.282 11.3203 29.2195 11.3516 29.1726 11.4141C29.1257 11.4922 29.0398 11.7891 28.9148 12.3047C28.8054 12.8047 28.6882 13.4297 28.5632 14.1797C28.4382 14.9297 28.3289 15.7656 28.2351 16.6875C28.1414 17.6094 28.0945 18.5234 28.0945 19.4297C28.0945 20.0859 28.1179 20.7734 28.1648 21.4922C28.2117 22.1953 28.2664 22.8438 28.3289 23.4375C28.407 24.0312 28.4929 24.5234 28.5867 24.9141C28.696 25.2891 28.8054 25.4766 28.9148 25.4766C29.0242 25.4922 29.1726 25.375 29.3601 25.125C29.5476 24.875 29.7273 24.5938 29.8992 24.2812C30.071 23.9531 30.2273 23.6406 30.3679 23.3438C30.5242 23.0312 30.6257 22.8203 30.6726 22.7109C30.7351 22.5391 30.821 22.3516 30.9304 22.1484C31.0398 21.9297 31.1492 21.7344 31.2585 21.5625C31.3679 21.375 31.4773 21.2266 31.5867 21.1172C31.696 20.9922 31.7898 20.9297 31.8679 20.9297C31.9617 20.9297 32.0398 21.0234 32.1023 21.2109C32.1804 21.3984 32.2351 21.625 32.2664 21.8906C32.3132 22.1406 32.3445 22.4062 32.3601 22.6875C32.3757 22.9531 32.3835 23.1719 32.3835 23.3438C32.3835 23.6562 32.321 24.0469 32.196 24.5156C32.0867 24.9844 31.9382 25.4375 31.7507 25.875C31.5789 26.3125 31.3835 26.6875 31.1648 27C30.9617 27.3125 30.7664 27.4609 30.5789 27.4453C30.3914 27.4297 30.0867 27.3203 29.6648 27.1172C29.2585 26.9141 28.8367 26.6797 28.3992 26.4141C27.9617 26.1484 27.5632 25.8828 27.2039 25.6172C26.8445 25.3516 26.6335 25.1406 26.571 24.9844C26.4929 24.8438 26.3757 24.5078 26.2195 23.9766C26.0789 23.4297 25.9304 22.7734 25.7742 22.0078C25.6179 21.2422 25.4773 20.3984 25.3523 19.4766C25.2429 18.5547 25.1882 17.625 25.1882 16.6875C25.1882 15.75 25.196 14.8281 25.2117 13.9219C25.2273 13 25.2585 12.1797 25.3054 11.4609C25.3679 10.7422 25.4617 10.1641 25.5867 9.72656C25.7117 9.27344 25.8835 9.03125 26.1023 9C26.5398 8.95312 27.0164 8.98438 27.532 9.09375C28.0476 9.1875 28.5632 9.33594 29.0789 9.53906C29.5945 9.74219 30.0867 9.97656 30.5554 10.2422C31.0398 10.4922 31.4695 10.7578 31.8445 11.0391C32.2195 11.3047 32.5164 11.5625 32.7351 11.8125C32.9695 12.0625 33.0945 12.2734 33.1101 12.4453C33.1257 12.7109 33.0945 13.0078 33.0164 13.3359C32.9382 13.6641 32.8445 13.9844 32.7351 14.2969C32.6257 14.5938 32.5085 14.8672 32.3835 15.1172C32.2742 15.3516 32.1882 15.5156 32.1257 15.6094C32.0476 15.7188 31.9539 15.8359 31.8445 15.9609C31.7351 16.0859 31.6179 16.1953 31.4929 16.2891C31.3835 16.3828 31.2664 16.4531 31.1414 16.5C31.032 16.5312 30.9304 16.5078 30.8367 16.4297C30.7742 16.3828 30.7117 16.2344 30.6492 15.9844C30.6023 15.7344 30.5476 15.4375 30.4851 15.0938C30.4382 14.75 30.3914 14.3828 30.3445 13.9922C30.2976 13.5859 30.2507 13.2109 30.2039 12.8672C30.1726 12.5234 30.1414 12.2344 30.1101 12C30.0789 11.7656 30.0554 11.6328 30.0398 11.6016Z"/>
</mask>
<path d="M30.0398 11.6016C30.0085 11.5547 29.9539 11.5078 29.8757 11.4609C29.8132 11.4141 29.7351 11.375 29.6414 11.3438C29.5476 11.3125 29.4539 11.3047 29.3601 11.3203C29.282 11.3203 29.2195 11.3516 29.1726 11.4141C29.1257 11.4922 29.0398 11.7891 28.9148 12.3047C28.8054 12.8047 28.6882 13.4297 28.5632 14.1797C28.4382 14.9297 28.3289 15.7656 28.2351 16.6875C28.1414 17.6094 28.0945 18.5234 28.0945 19.4297C28.0945 20.0859 28.1179 20.7734 28.1648 21.4922C28.2117 22.1953 28.2664 22.8438 28.3289 23.4375C28.407 24.0312 28.4929 24.5234 28.5867 24.9141C28.696 25.2891 28.8054 25.4766 28.9148 25.4766C29.0242 25.4922 29.1726 25.375 29.3601 25.125C29.5476 24.875 29.7273 24.5938 29.8992 24.2812C30.071 23.9531 30.2273 23.6406 30.3679 23.3438C30.5242 23.0312 30.6257 22.8203 30.6726 22.7109C30.7351 22.5391 30.821 22.3516 30.9304 22.1484C31.0398 21.9297 31.1492 21.7344 31.2585 21.5625C31.3679 21.375 31.4773 21.2266 31.5867 21.1172C31.696 20.9922 31.7898 20.9297 31.8679 20.9297C31.9617 20.9297 32.0398 21.0234 32.1023 21.2109C32.1804 21.3984 32.2351 21.625 32.2664 21.8906C32.3132 22.1406 32.3445 22.4062 32.3601 22.6875C32.3757 22.9531 32.3835 23.1719 32.3835 23.3438C32.3835 23.6562 32.321 24.0469 32.196 24.5156C32.0867 24.9844 31.9382 25.4375 31.7507 25.875C31.5789 26.3125 31.3835 26.6875 31.1648 27C30.9617 27.3125 30.7664 27.4609 30.5789 27.4453C30.3914 27.4297 30.0867 27.3203 29.6648 27.1172C29.2585 26.9141 28.8367 26.6797 28.3992 26.4141C27.9617 26.1484 27.5632 25.8828 27.2039 25.6172C26.8445 25.3516 26.6335 25.1406 26.571 24.9844C26.4929 24.8438 26.3757 24.5078 26.2195 23.9766C26.0789 23.4297 25.9304 22.7734 25.7742 22.0078C25.6179 21.2422 25.4773 20.3984 25.3523 19.4766C25.2429 18.5547 25.1882 17.625 25.1882 16.6875C25.1882 15.75 25.196 14.8281 25.2117 13.9219C25.2273 13 25.2585 12.1797 25.3054 11.4609C25.3679 10.7422 25.4617 10.1641 25.5867 9.72656C25.7117 9.27344 25.8835 9.03125 26.1023 9C26.5398 8.95312 27.0164 8.98438 27.532 9.09375C28.0476 9.1875 28.5632 9.33594 29.0789 9.53906C29.5945 9.74219 30.0867 9.97656 30.5554 10.2422C31.0398 10.4922 31.4695 10.7578 31.8445 11.0391C32.2195 11.3047 32.5164 11.5625 32.7351 11.8125C32.9695 12.0625 33.0945 12.2734 33.1101 12.4453C33.1257 12.7109 33.0945 13.0078 33.0164 13.3359C32.9382 13.6641 32.8445 13.9844 32.7351 14.2969C32.6257 14.5938 32.5085 14.8672 32.3835 15.1172C32.2742 15.3516 32.1882 15.5156 32.1257 15.6094C32.0476 15.7188 31.9539 15.8359 31.8445 15.9609C31.7351 16.0859 31.6179 16.1953 31.4929 16.2891C31.3835 16.3828 31.2664 16.4531 31.1414 16.5C31.032 16.5312 30.9304 16.5078 30.8367 16.4297C30.7742 16.3828 30.7117 16.2344 30.6492 15.9844C30.6023 15.7344 30.5476 15.4375 30.4851 15.0938C30.4382 14.75 30.3914 14.3828 30.3445 13.9922C30.2976 13.5859 30.2507 13.2109 30.2039 12.8672C30.1726 12.5234 30.1414 12.2344 30.1101 12C30.0789 11.7656 30.0554 11.6328 30.0398 11.6016Z" fill="#F8F8F8" fill-opacity="0.62"/>
<path d="M30.0398 11.6016L30.9342 11.1543L30.9064 11.0987L30.8718 11.0469L30.0398 11.6016ZM29.8757 11.4609L29.2757 12.2609L29.317 12.2919L29.3612 12.3184L29.8757 11.4609ZM29.3601 11.3203V12.3203H29.4429L29.5245 12.3067L29.3601 11.3203ZM29.1726 11.4141L28.3726 10.8141L28.3417 10.8553L28.3151 10.8996L29.1726 11.4141ZM28.9148 12.3047L27.9429 12.0691L27.9403 12.08L27.9379 12.091L28.9148 12.3047ZM28.1648 21.4922L27.1669 21.5573L27.167 21.5587L28.1648 21.4922ZM28.3289 23.4375L27.3344 23.5422L27.3357 23.5551L27.3374 23.568L28.3289 23.4375ZM28.5867 24.9141L27.6143 25.1474L27.6199 25.1709L27.6267 25.1941L28.5867 24.9141ZM28.9148 25.4766L29.0562 24.4866L28.9859 24.4766H28.9148V25.4766ZM29.8992 24.2812L30.7754 24.7632L30.7803 24.7543L30.785 24.7453L29.8992 24.2812ZM30.3679 23.3438L29.4735 22.8965L29.4687 22.906L29.4642 22.9157L30.3679 23.3438ZM30.6726 22.7109L31.5918 23.1049L31.6028 23.0791L31.6124 23.0527L30.6726 22.7109ZM30.9304 22.1484L31.8109 22.6225L31.8181 22.6092L31.8248 22.5957L30.9304 22.1484ZM31.2585 21.5625L32.1022 22.0994L32.1126 22.0831L32.1223 22.0664L31.2585 21.5625ZM31.5867 21.1172L32.2938 21.8243L32.3173 21.8008L32.3392 21.7757L31.5867 21.1172ZM32.1023 21.2109L31.1536 21.5272L31.1652 21.5618L31.1792 21.5956L32.1023 21.2109ZM32.2664 21.8906L31.2732 22.0075L31.2772 22.0414L31.2835 22.0749L32.2664 21.8906ZM32.3601 22.6875L31.3616 22.743L31.3618 22.7462L32.3601 22.6875ZM32.196 24.5156L31.2298 24.258L31.2258 24.2731L31.2222 24.2884L32.196 24.5156ZM31.7507 25.875L30.8316 25.4811L30.8256 25.4951L30.82 25.5093L31.7507 25.875ZM31.1648 27L30.3456 26.4265L30.3357 26.4406L30.3264 26.455L31.1648 27ZM29.6648 27.1172L29.2176 28.0116L29.2243 28.015L29.231 28.0182L29.6648 27.1172ZM26.571 24.9844L27.4995 24.613L27.476 24.5541L27.4452 24.4987L26.571 24.9844ZM26.2195 23.9766L25.251 24.2256L25.2553 24.2422L25.2601 24.2587L26.2195 23.9766ZM25.3523 19.4766L24.3593 19.5944L24.3602 19.6027L24.3614 19.6109L25.3523 19.4766ZM25.2117 13.9219L26.2115 13.9391L26.2115 13.9388L25.2117 13.9219ZM25.3054 11.4609L24.3092 11.3743L24.3082 11.3851L24.3075 11.3959L25.3054 11.4609ZM25.5867 9.72656L26.5482 10.0013L26.5507 9.99249L25.5867 9.72656ZM26.1023 9L25.9958 8.00569L25.9783 8.00756L25.9609 8.01005L26.1023 9ZM27.532 9.09375L27.3245 10.072L27.3387 10.075L27.3531 10.0776L27.532 9.09375ZM30.5554 10.2422L30.0624 11.1122L30.0794 11.1218L30.0968 11.1308L30.5554 10.2422ZM31.8445 11.0391L31.2445 11.8391L31.2554 11.8472L31.2665 11.8551L31.8445 11.0391ZM32.7351 11.8125L31.9825 12.471L31.9938 12.4839L32.0056 12.4964L32.7351 11.8125ZM33.1101 12.4453L34.1084 12.3866L34.1074 12.3707L34.106 12.3548L33.1101 12.4453ZM32.7351 14.2969L33.6735 14.6426L33.6763 14.6349L33.679 14.6272L32.7351 14.2969ZM32.3835 15.1172L31.4891 14.67L31.4831 14.6821L31.4774 14.6943L32.3835 15.1172ZM32.1257 15.6094L32.9395 16.1906L32.9488 16.1775L32.9578 16.1641L32.1257 15.6094ZM31.4929 16.2891L30.8929 15.4891L30.8669 15.5086L30.8421 15.5298L31.4929 16.2891ZM31.1414 16.5L31.4161 17.4615L31.4548 17.4505L31.4925 17.4363L31.1414 16.5ZM30.8367 16.4297L31.4769 15.6615L31.4572 15.6451L31.4367 15.6297L30.8367 16.4297ZM30.6492 15.9844L29.6663 16.1687L29.6718 16.198L29.679 16.2269L30.6492 15.9844ZM30.4851 15.0938L29.4943 15.2289L29.4973 15.2508L29.5012 15.2726L30.4851 15.0938ZM30.3445 13.9922L29.3511 14.1068L29.3516 14.1113L30.3445 13.9922ZM30.2039 12.8672L29.208 12.9577L29.21 12.9801L29.213 13.0023L30.2039 12.8672ZM30.8718 11.0469C30.7231 10.8237 30.5259 10.6849 30.3902 10.6034L29.3612 12.3184C29.3642 12.3202 29.3492 12.3117 29.3246 12.2905C29.3007 12.27 29.2547 12.2267 29.2077 12.1563L30.8718 11.0469ZM30.4757 10.6609C30.3079 10.5351 30.1276 10.4517 29.9576 10.3951L29.3251 12.2924C29.3328 12.295 29.3314 12.2951 29.3231 12.2909C29.3146 12.2867 29.2977 12.2774 29.2757 12.2609L30.4757 10.6609ZM29.9576 10.3951C29.7155 10.3144 29.4568 10.2904 29.1957 10.3339L29.5245 12.3067C29.4509 12.319 29.3797 12.3106 29.3251 12.2924L29.9576 10.3951ZM29.3601 10.3203C28.9672 10.3203 28.6083 10.4998 28.3726 10.8141L29.9726 12.0141C29.914 12.0922 29.8251 12.1765 29.7019 12.2382C29.5786 12.2998 29.4578 12.3203 29.3601 12.3203V10.3203ZM28.3151 10.8996C28.2481 11.0112 28.2066 11.1259 28.1875 11.1798C28.1619 11.2522 28.1367 11.3333 28.1124 11.4173C28.0635 11.5862 28.0068 11.8055 27.9429 12.0691L29.8866 12.5403C29.9478 12.2882 29.9965 12.1013 30.0336 11.9734C30.0522 11.9089 30.0652 11.8689 30.0728 11.8475C30.0765 11.837 30.0766 11.8376 30.073 11.8459C30.0712 11.8501 30.0573 11.8833 30.0301 11.9286L28.3151 10.8996ZM27.9379 12.091C27.8237 12.6131 27.7034 13.2559 27.5768 14.0153L29.5496 14.3441C29.6731 13.6035 29.7872 12.9963 29.8917 12.5184L27.9379 12.091ZM27.5768 14.0153C27.4477 14.7902 27.3357 15.6477 27.2402 16.5863L29.23 16.7887C29.322 15.8836 29.4288 15.0692 29.5496 14.3441L27.5768 14.0153ZM27.2402 16.5863C27.1431 17.5411 27.0945 18.4889 27.0945 19.4297H29.0945C29.0945 18.558 29.1396 17.6777 29.23 16.7887L27.2402 16.5863ZM27.0945 19.4297C27.0945 20.1096 27.1188 20.8189 27.1669 21.5573L29.1627 21.4271C29.1171 20.728 29.0945 20.0623 29.0945 19.4297H27.0945ZM27.167 21.5587C27.2146 22.2724 27.2703 22.9337 27.3344 23.5422L29.3234 23.3328C29.2624 22.7538 29.2088 22.1182 29.1626 21.4257L27.167 21.5587ZM27.3374 23.568C27.4181 24.1813 27.5095 24.7108 27.6143 25.1474L29.5591 24.6807C29.4764 24.3361 29.3959 23.8812 29.3203 23.307L27.3374 23.568ZM27.6267 25.1941C27.6891 25.4082 27.7709 25.6408 27.887 25.8398C27.945 25.9393 28.0384 26.0776 28.182 26.2007C28.3323 26.3295 28.5818 26.4766 28.9148 26.4766V24.4766C29.1931 24.4766 29.388 24.6002 29.4836 24.6821C29.5724 24.7583 29.6112 24.8263 29.6145 24.8321C29.6212 24.8436 29.5936 24.7949 29.5467 24.6341L27.6267 25.1941ZM28.7734 26.4665C29.2387 26.533 29.5827 26.2998 29.7278 26.1853C29.8995 26.0497 30.0435 25.8805 30.1601 25.725L28.5601 24.525C28.4892 24.6195 28.4652 24.6339 28.4885 24.6155C28.5023 24.6047 28.5525 24.5665 28.6376 24.533C28.7263 24.498 28.8736 24.4605 29.0562 24.4866L28.7734 26.4665ZM30.1601 25.725C30.3794 25.4327 30.584 25.1111 30.7754 24.7632L29.023 23.7993C28.8706 24.0764 28.7159 24.3173 28.5601 24.525L30.1601 25.725ZM30.785 24.7453C30.9623 24.4067 31.1246 24.0822 31.2717 23.7718L29.4642 22.9157C29.33 23.199 29.1798 23.4995 29.0133 23.8172L30.785 24.7453ZM31.2623 23.791C31.4166 23.4824 31.5314 23.2456 31.5918 23.1049L29.7535 22.317C29.72 22.395 29.6317 22.5801 29.4735 22.8965L31.2623 23.791ZM31.6124 23.0527C31.6547 22.9363 31.7188 22.7935 31.8109 22.6225L30.0499 21.6743C29.9233 21.9096 29.8155 22.1419 29.7328 22.3692L31.6124 23.0527ZM31.8248 22.5957C31.9218 22.4018 32.0145 22.2372 32.1022 22.0994L30.4149 21.0256C30.2838 21.2315 30.1578 21.4576 30.036 21.7012L31.8248 22.5957ZM32.1223 22.0664C32.2044 21.9257 32.264 21.854 32.2938 21.8243L30.8796 20.4101C30.6905 20.5991 30.5315 20.8243 30.3948 21.0586L32.1223 22.0664ZM32.3392 21.7757C32.3606 21.7513 32.3459 21.7738 32.2937 21.8086C32.2455 21.8407 32.0956 21.9297 31.8679 21.9297V19.9297C31.5621 19.9297 31.3263 20.0499 31.1843 20.1445C31.0384 20.2418 30.9221 20.3581 30.8341 20.4587L32.3392 21.7757ZM31.8679 21.9297C31.5337 21.9297 31.318 21.7475 31.2286 21.6402C31.1537 21.5503 31.1404 21.4875 31.1536 21.5272L33.051 20.8947C33.0017 20.7468 32.9181 20.5435 32.765 20.3598C32.5975 20.1588 32.2959 19.9297 31.8679 19.9297V21.9297ZM31.1792 21.5956C31.2125 21.6754 31.2496 21.8066 31.2732 22.0075L33.2595 21.7738C33.2206 21.4434 33.1484 21.1215 33.0254 20.8263L31.1792 21.5956ZM31.2835 22.0749C31.3216 22.2781 31.3482 22.5004 31.3616 22.743L33.3586 22.632C33.3408 22.3121 33.3049 22.0031 33.2492 21.7063L31.2835 22.0749ZM31.3618 22.7462C31.3769 23.0016 31.3835 23.199 31.3835 23.3438H33.3835C33.3835 23.1448 33.3746 22.9046 33.3584 22.6288L31.3618 22.7462ZM31.3835 23.3438C31.3835 23.5353 31.3433 23.8324 31.2298 24.258L33.1623 24.7733C33.2988 24.2613 33.3835 23.7772 33.3835 23.3438H31.3835ZM31.2222 24.2884C31.126 24.7007 30.9957 25.098 30.8316 25.4811L32.6699 26.2689C32.8807 25.777 33.0473 25.268 33.1699 24.7429L31.2222 24.2884ZM30.82 25.5093C30.6706 25.8897 30.5101 26.1915 30.3456 26.4265L31.984 27.5735C32.257 27.1835 32.4871 26.7353 32.6815 26.2407L30.82 25.5093ZM30.3264 26.455C30.2584 26.5596 30.2322 26.5713 30.2609 26.5495C30.2987 26.5208 30.4422 26.4305 30.6619 26.4488L30.4958 28.4419C30.903 28.4758 31.2379 28.319 31.4711 28.1419C31.695 27.9717 31.8681 27.7529 32.0032 27.545L30.3264 26.455ZM30.6619 26.4488C30.6956 26.4516 30.6677 26.4535 30.5476 26.4104C30.4387 26.3713 30.2908 26.3087 30.0986 26.2162L29.231 28.0182C29.6464 28.2182 30.1029 28.4091 30.4958 28.4419L30.6619 26.4488ZM30.112 26.2228C29.733 26.0333 29.3352 25.8125 28.9181 25.5593L27.8802 27.2689C28.3382 27.5469 28.784 27.7948 29.2176 28.0116L30.112 26.2228ZM28.9181 25.5593C28.5029 25.3072 28.1301 25.0583 27.7982 24.813L26.6095 26.4214C26.9964 26.7074 27.4204 26.9897 27.8802 27.2689L28.9181 25.5593ZM27.7982 24.813C27.6409 24.6967 27.5409 24.6104 27.4832 24.5527C27.4551 24.5245 27.4459 24.512 27.4478 24.5146C27.4482 24.515 27.4738 24.5486 27.4995 24.613L25.6426 25.3558C25.749 25.6218 25.9304 25.8283 26.069 25.9669C26.2223 26.1201 26.4074 26.272 26.6095 26.4214L27.7982 24.813ZM27.4452 24.4987C27.451 24.5092 27.4255 24.4602 27.3688 24.2976C27.3177 24.1513 27.2546 23.9518 27.1788 23.6944L25.2601 24.2587C25.4078 24.7608 25.5542 25.2131 25.6969 25.47L27.4452 24.4987ZM27.188 23.7275C27.0528 23.2017 26.908 22.5628 26.754 21.8079L24.7944 22.2078C24.9528 22.9841 25.1049 23.6576 25.251 24.2256L27.188 23.7275ZM26.754 21.8079C26.6029 21.0676 26.4658 20.2461 26.3432 19.3422L24.3614 19.6109C24.4888 20.5508 24.6329 21.4168 24.7944 22.2078L26.754 21.8079ZM26.3453 19.3587C26.2406 18.4764 26.1882 17.586 26.1882 16.6875H24.1882C24.1882 17.664 24.2452 18.633 24.3593 19.5944L26.3453 19.3587ZM26.1882 16.6875C26.1882 15.7556 26.196 14.8394 26.2115 13.9391L24.2118 13.9046C24.1961 14.8168 24.1882 15.7444 24.1882 16.6875H26.1882ZM26.2115 13.9388C26.227 13.0288 26.2577 12.225 26.3033 11.526L24.3075 11.3959C24.2594 12.1343 24.2276 12.9712 24.2118 13.9049L26.2115 13.9388ZM26.3017 11.5476C26.3614 10.8602 26.4478 10.3525 26.5482 10.0013L24.6251 9.45184C24.4755 9.97563 24.3744 10.6242 24.3092 11.3743L26.3017 11.5476ZM26.5507 9.99249C26.5727 9.91249 26.593 9.85616 26.6089 9.81894C26.6252 9.78076 26.6325 9.773 26.6248 9.78382C26.6171 9.79467 26.5854 9.8368 26.5205 9.88222C26.4511 9.93081 26.3565 9.97384 26.2437 9.98995L25.9609 8.01005C25.4961 8.07644 25.1818 8.36145 24.9938 8.62633C24.813 8.88109 24.7002 9.17951 24.6227 9.46063L26.5507 9.99249ZM26.2088 9.99431C26.5231 9.96064 26.8922 9.9803 27.3245 10.072L27.7395 8.11552C27.1405 7.98845 26.5565 7.94561 25.9958 8.00569L26.2088 9.99431ZM27.3531 10.0776C27.801 10.1591 28.2539 10.2889 28.7123 10.4695L29.4454 8.60865C28.8726 8.383 28.2942 8.21594 27.7109 8.10988L27.3531 10.0776ZM28.7123 10.4695C29.1857 10.6559 29.6355 10.8703 30.0624 11.1122L31.0484 9.37217C30.5378 9.08283 30.0033 8.82844 29.4454 8.60865L28.7123 10.4695ZM30.0968 11.1308C30.5394 11.3593 30.9205 11.5961 31.2445 11.8391L32.4445 10.2391C32.0184 9.91952 31.5402 9.6251 31.0141 9.35357L30.0968 11.1308ZM31.2665 11.8551C31.5998 12.0912 31.831 12.2979 31.9825 12.471L33.4877 11.154C33.2017 10.8271 32.8391 10.5182 32.4225 10.223L31.2665 11.8551ZM32.0056 12.4964C32.0469 12.5405 32.0783 12.5775 32.1017 12.6075C32.1254 12.6378 32.1384 12.6579 32.1443 12.668C32.1505 12.6784 32.1464 12.6734 32.1392 12.6539C32.132 12.6342 32.1195 12.5938 32.1142 12.5358L34.106 12.3548C34.0582 11.8286 33.7248 11.406 33.4646 11.1286L32.0056 12.4964ZM32.1118 12.504C32.1204 12.6501 32.1048 12.8471 32.0436 13.1043L33.9892 13.5676C34.0842 13.1685 34.131 12.7717 34.1084 12.3866L32.1118 12.504ZM32.0436 13.1043C31.9732 13.3997 31.8891 13.687 31.7912 13.9665L33.679 14.6272C33.7999 14.2817 33.9032 13.9284 33.9892 13.5676L32.0436 13.1043ZM31.7968 13.9512C31.6985 14.2179 31.5956 14.4569 31.4891 14.67L33.278 15.5644C33.4215 15.2774 33.553 14.9696 33.6735 14.6426L31.7968 13.9512ZM31.4774 14.6943C31.4268 14.8026 31.3849 14.8876 31.3512 14.952C31.3345 14.984 31.3209 15.0086 31.3104 15.0269C31.3052 15.036 31.3011 15.0428 31.2981 15.0477C31.2951 15.0526 31.2936 15.0548 31.2937 15.0547L32.9578 16.1641C33.066 16.0017 33.1792 15.777 33.2897 15.5401L31.4774 14.6943ZM31.312 15.0281C31.2568 15.1054 31.1845 15.1967 31.0919 15.3024L32.5971 16.6194C32.7233 16.4752 32.8384 16.3321 32.9395 16.1906L31.312 15.0281ZM31.0919 15.3024C31.0255 15.3784 30.9589 15.4396 30.8929 15.4891L32.0929 17.0891C32.2769 16.9511 32.4447 16.7935 32.5971 16.6194L31.0919 15.3024ZM30.8421 15.5298C30.8145 15.5535 30.7974 15.561 30.7902 15.5637L31.4925 17.4363C31.7353 17.3453 31.9526 17.2121 32.1437 17.0483L30.8421 15.5298ZM30.8666 15.5385C30.9595 15.512 31.0791 15.5017 31.208 15.5315C31.334 15.5605 31.4239 15.6173 31.4769 15.6615L30.1965 17.1979C30.5225 17.4696 30.9621 17.5912 31.4161 17.4615L30.8666 15.5385ZM31.4367 15.6297C31.497 15.675 31.5406 15.7197 31.5696 15.7532C31.5989 15.7871 31.6193 15.8165 31.6321 15.8364C31.6451 15.8568 31.6535 15.8725 31.6579 15.8812C31.6603 15.8859 31.662 15.8894 31.663 15.8916C31.664 15.8938 31.6645 15.8951 31.6646 15.8951C31.6646 15.8952 31.6632 15.8918 31.6605 15.8844C31.6579 15.8771 31.6544 15.867 31.6502 15.8535C31.6416 15.8262 31.6312 15.7895 31.6193 15.7418L29.679 16.2269C29.7163 16.3759 29.762 16.5305 29.8213 16.6713C29.8626 16.7693 29.9782 17.0358 30.2367 17.2297L31.4367 15.6297ZM31.632 15.8001C31.5856 15.5524 31.5313 15.2574 31.469 14.9149L29.5012 15.2726C29.564 15.6176 29.619 15.9163 29.6663 16.1687L31.632 15.8001ZM31.4759 14.9586C31.4299 14.6209 31.3837 14.259 31.3374 13.873L29.3516 14.1113C29.399 14.5066 29.4466 14.8791 29.4943 15.2289L31.4759 14.9586ZM31.3379 13.8776C31.2904 13.4656 31.2426 13.0837 31.1947 12.7321L29.213 13.0023C29.2588 13.3382 29.3049 13.7062 29.3511 14.1068L31.3379 13.8776ZM31.1998 12.7767C31.1678 12.4247 31.1351 12.1207 31.1013 11.8678L29.1189 12.1322C29.1477 12.348 29.1775 12.6222 29.208 12.9577L31.1998 12.7767ZM31.1013 11.8678C31.085 11.7454 31.0692 11.6376 31.0539 11.5508C31.0464 11.5082 31.0371 11.4599 31.0258 11.4124C31.0211 11.3925 30.9952 11.2762 30.9342 11.1543L29.1454 12.0488C29.1269 12.0118 29.1146 11.9811 29.1073 11.962C29.0997 11.9418 29.0944 11.9254 29.091 11.9144C29.0844 11.8933 29.081 11.8789 29.0802 11.8757C29.0786 11.8692 29.0801 11.8746 29.0843 11.8984C29.0924 11.9444 29.104 12.0202 29.1189 12.1322L31.1013 11.8678Z" fill="black" mask="url(#path-2-outside-1_10_161)"/>
</svg>
