<svg width="43" height="38" viewBox="0 0 43 38" fill="none" xmlns="http://www.w3.org/2000/svg">
<rect x="1.16504" y="0.5" width="41.3349" height="37" rx="9.5" fill="#FEFEFE" fill-opacity="0.62" stroke="black"/>
<path d="M26.4451 9.79688C26.4451 9.85938 26.3513 10.1406 26.1638 10.6406C25.9919 11.1406 25.7498 11.7812 25.4373 12.5625C25.1404 13.3438 24.7888 14.2266 24.3826 15.2109C23.9919 16.1797 23.5857 17.1719 23.1638 18.1875C22.7419 19.2031 22.3201 20.1953 21.8982 21.1641C21.4919 22.1328 21.1169 23.0078 20.7732 23.7891C20.4294 24.5703 20.1404 25.2188 19.906 25.7344C19.6716 26.2344 19.5154 26.5156 19.4373 26.5781C19.1873 26.8125 18.9373 26.9531 18.6873 27C18.4373 27.0312 18.2498 27.0312 18.1248 27C18.0779 26.9844 18.1169 26.7578 18.2419 26.3203C18.3669 25.8672 18.5466 25.2734 18.781 24.5391C19.0154 23.7891 19.2888 22.9453 19.6013 22.0078C19.9294 21.0547 20.2654 20.0859 20.6091 19.1016C20.9529 18.1016 21.2966 17.1172 21.6404 16.1484C21.9998 15.1641 22.3279 14.2812 22.6248 13.5C22.9216 12.7188 23.1716 12.0703 23.3748 11.5547C23.5779 11.0234 23.7185 10.7031 23.7966 10.5938C23.9373 10.375 24.1482 10.1797 24.4294 10.0078C24.7263 9.83594 25.0232 9.71094 25.3201 9.63281C25.6169 9.53906 25.8748 9.50781 26.0935 9.53906C26.3279 9.55469 26.4451 9.64062 26.4451 9.79688Z" fill="#972DE8"/>
</svg>
