<svg width="43" height="42" viewBox="0 0 43 42" fill="none" xmlns="http://www.w3.org/2000/svg">
<rect x="0.648865" y="4.5" width="41.3349" height="37" rx="9.5" fill="#F8F8F8" fill-opacity="0.62" stroke="black"/>
<path d="M26.1516 18.0938C26.0891 18.0521 25.8599 18.0938 25.4641 18.2188C25.0474 18.3229 24.537 18.4896 23.9328 18.7188C23.3286 18.9271 22.6828 19.1771 21.9953 19.4688C21.3078 19.7396 20.6516 20.0104 20.0266 20.2812C19.4016 20.5521 18.8703 20.8021 18.4328 21.0312C17.9745 21.2604 17.6828 21.4271 17.5578 21.5312C17.4953 21.5729 17.4432 21.7188 17.4016 21.9688C17.3599 22.1979 17.3391 22.4583 17.3391 22.75C17.3182 23.0417 17.3391 23.3229 17.4016 23.5938C17.4432 23.8646 17.5266 24.0625 17.6516 24.1875C17.7766 24.2917 18.0474 24.4583 18.4641 24.6875C18.8807 24.9167 19.3703 25.1667 19.9328 25.4375C20.4953 25.7083 21.0995 25.9896 21.7453 26.2812C22.3703 26.5521 22.9536 26.8021 23.4953 27.0312C24.037 27.2396 24.4953 27.4062 24.8703 27.5312C25.2453 27.6562 25.4641 27.6875 25.5266 27.625C25.6516 27.5208 25.7974 27.3333 25.9641 27.0625C26.1099 26.7917 26.1203 26.5312 25.9953 26.2812C25.9536 26.1979 25.7453 26.0312 25.3703 25.7812C24.9953 25.5312 24.5474 25.25 24.0266 24.9375C23.4849 24.6042 22.9016 24.2604 22.2766 23.9062C21.6516 23.5312 21.0578 23.1875 20.4953 22.875C21.0786 22.5625 21.7141 22.2292 22.4016 21.875C23.0891 21.5208 23.7349 21.1875 24.3391 20.875C24.9432 20.5417 25.4641 20.25 25.9016 20C26.3182 19.75 26.5474 19.5729 26.5891 19.4688C26.7349 19.2396 26.7349 18.9792 26.5891 18.6875C26.4224 18.3958 26.2766 18.1979 26.1516 18.0938Z" fill="#972DE8"/>
</svg>
