<svg width="46" height="38" viewBox="0 0 46 38" fill="none" xmlns="http://www.w3.org/2000/svg">
<rect x="3.37445" y="0.5" width="41.3349" height="37" rx="9.5" fill="#F8F8F8" fill-opacity="0.62" stroke="black"/>
<path d="M18.9031 23.1562C18.8614 23.0938 18.9031 22.8646 19.0281 22.4688C19.1322 22.0521 19.2989 21.5417 19.5281 20.9375C19.7364 20.3333 19.9864 19.6875 20.2781 19C20.5489 18.3125 20.8197 17.6562 21.0906 17.0312C21.3614 16.4062 21.6114 15.875 21.8406 15.4375C22.0697 14.9792 22.2364 14.6875 22.3406 14.5625C22.3822 14.5 22.5281 14.4479 22.7781 14.4062C23.0072 14.3646 23.2677 14.3438 23.5593 14.3438C23.851 14.3229 24.1322 14.3438 24.4031 14.4062C24.6739 14.4479 24.8718 14.5312 24.9968 14.6562C25.101 14.7812 25.2677 15.0521 25.4968 15.4688C25.726 15.8854 25.976 16.375 26.2468 16.9375C26.5177 17.5 26.7989 18.1042 27.0906 18.75C27.3614 19.375 27.6114 19.9583 27.8406 20.5C28.0489 21.0417 28.2156 21.5 28.3406 21.875C28.4656 22.25 28.4968 22.4688 28.4343 22.5312C28.3302 22.6562 28.1427 22.8021 27.8718 22.9688C27.601 23.1146 27.3406 23.125 27.0906 23C27.0072 22.9583 26.8406 22.75 26.5906 22.375C26.3406 22 26.0593 21.5521 25.7468 21.0312C25.4135 20.4896 25.0697 19.9062 24.7156 19.2812C24.3406 18.6562 23.9968 18.0625 23.6843 17.5C23.3718 18.0833 23.0385 18.7188 22.6843 19.4062C22.3302 20.0938 21.9968 20.7396 21.6843 21.3438C21.351 21.9479 21.0593 22.4688 20.8093 22.9062C20.5593 23.3229 20.3822 23.5521 20.2781 23.5938C20.0489 23.7396 19.7885 23.7396 19.4968 23.5938C19.2052 23.4271 19.0072 23.2812 18.9031 23.1562Z" fill="#972DE8"/>
</svg>
