<svg width="43" height="39" viewBox="0 0 43 39" fill="none" xmlns="http://www.w3.org/2000/svg">
<rect x="1.16504" y="1.5" width="41.3349" height="37" rx="9.5" fill="#FEFEFE" fill-opacity="0.62" stroke="black"/>
<path d="M28.281 13.0938C28.3435 13.1354 28.2602 13.4062 28.031 13.9062C27.8018 14.3854 27.4789 15.0104 27.0623 15.7812C26.6664 16.5312 26.1873 17.3854 25.6248 18.3438C25.0831 19.2812 24.5206 20.2396 23.9373 21.2188C24.3539 22.1771 24.7498 23.1146 25.1248 24.0312C25.5206 24.9271 25.8539 25.7292 26.1248 26.4375C26.3956 27.1458 26.5935 27.7188 26.7185 28.1562C26.8435 28.5729 26.8748 28.7812 26.8123 28.7812C26.6664 28.7812 26.4685 28.7188 26.2185 28.5938C25.9893 28.4688 25.7498 28.3229 25.4998 28.1562C25.2498 27.9688 25.0102 27.7812 24.781 27.5938C24.5727 27.3854 24.4268 27.2188 24.3435 27.0938C24.1143 26.7396 23.8852 26.3646 23.656 25.9688C23.4477 25.5729 23.2498 25.2083 23.0623 24.875C22.8331 24.5 22.6248 24.125 22.4373 23.75C22.0206 24.4167 21.6248 25.0417 21.2498 25.625C20.8956 26.1875 20.5727 26.6875 20.281 27.125C19.9893 27.5625 19.7498 27.9062 19.5623 28.1562C19.3748 28.4062 19.2498 28.5312 19.1873 28.5312C19.0206 28.5312 18.8643 28.4792 18.7185 28.375C18.5935 28.25 18.4789 28.1042 18.3748 27.9375C18.2914 27.75 18.2393 27.5625 18.2185 27.375C18.1768 27.1875 18.1768 27.0312 18.2185 26.9062C18.5518 26.1771 18.8748 25.4583 19.1873 24.75C19.4998 24.0417 19.7914 23.4062 20.0623 22.8438C20.3539 22.1771 20.6456 21.5521 20.9373 20.9688C20.5623 20.2812 20.1977 19.6146 19.8435 18.9688C19.5102 18.3021 19.2081 17.6979 18.9373 17.1562C18.6664 16.5938 18.4373 16.1146 18.2498 15.7188C18.0623 15.3229 17.9581 15.0417 17.9373 14.875C17.8748 14.6042 17.9268 14.3542 18.0935 14.125C18.2602 13.875 18.4581 13.6771 18.6873 13.5312C18.9373 13.3646 19.1768 13.25 19.406 13.1875C19.656 13.1042 19.8435 13.0938 19.9685 13.1562C20.0518 13.1979 20.1664 13.3438 20.3123 13.5938C20.4789 13.8438 20.6664 14.1771 20.8748 14.5938C21.1039 15.0104 21.3435 15.5 21.5935 16.0625C21.8643 16.6042 22.1456 17.1979 22.4373 17.8438C22.8331 17.0938 23.1873 16.4375 23.4998 15.875C23.8123 15.2917 24.0623 14.8958 24.2498 14.6875C24.4789 14.4167 24.8018 14.1667 25.2185 13.9375C25.6352 13.7083 26.0518 13.5208 26.4685 13.375C26.906 13.2292 27.2914 13.1354 27.6248 13.0938C27.9789 13.0312 28.1977 13.0312 28.281 13.0938Z" fill="#972DE8"/>
</svg>
