<svg width="41" height="40" viewBox="0 0 41 40" fill="none" xmlns="http://www.w3.org/2000/svg">
<rect x="1.1651" y="0.5" width="39" height="39" rx="9.5" fill="#F8F8F8" fill-opacity="0.62" stroke="black"/>
<path d="M16.7054 12.2533C16.9242 12.0189 17.1976 11.9095 17.5258 11.9252C17.8695 11.9252 18.2054 11.9877 18.5336 12.1127C18.8617 12.2377 19.1508 12.3939 19.4008 12.5814C19.6664 12.7533 19.8383 12.8861 19.9164 12.9799C19.9633 13.0424 20.0023 13.1986 20.0336 13.4486C20.0648 13.6986 20.0804 14.0111 20.0804 14.3861C20.0961 14.7455 20.0961 15.1439 20.0804 15.5814C20.0804 16.0033 20.0648 16.4174 20.0336 16.8236C20.0023 17.2299 19.9476 17.6127 19.8695 17.972C19.807 18.3158 19.7289 18.5892 19.6351 18.7924C19.4945 19.1049 19.2601 19.3549 18.932 19.5424C18.6039 19.7299 18.2601 19.8549 17.9008 19.9174C17.557 19.9799 17.2211 19.9799 16.8929 19.9174C16.5648 19.8549 16.3304 19.7299 16.1898 19.5424C16.0961 19.433 16.0258 19.1908 15.9789 18.8158C15.932 18.4252 15.9086 17.9799 15.9086 17.4799C15.9242 16.9799 15.9554 16.4486 16.0023 15.8861C16.0492 15.308 16.1039 14.7689 16.1664 14.2689C16.2445 13.7689 16.3304 13.3392 16.4242 12.9799C16.5179 12.6049 16.6117 12.3627 16.7054 12.2533ZM17.2679 15.7455C17.2679 15.9955 17.2601 16.2689 17.2445 16.5658C17.2445 16.8627 17.2445 17.1517 17.2445 17.433C17.2601 17.6986 17.2758 17.9252 17.2914 18.1127C17.3226 18.3002 17.3695 18.4174 17.432 18.4642C17.4789 18.5111 17.5726 18.5502 17.7133 18.5814C17.8695 18.597 18.0179 18.5892 18.1586 18.558C18.3148 18.5267 18.4554 18.4564 18.5804 18.347C18.7054 18.222 18.7836 18.0345 18.8148 17.7845C18.8304 17.5345 18.8304 17.1908 18.8148 16.7533C18.7992 16.3158 18.7679 15.8783 18.7211 15.4408C18.6898 14.9877 18.6508 14.5814 18.6039 14.222C18.5726 13.8627 18.5336 13.6283 18.4867 13.5189C18.4554 13.4564 18.4086 13.3939 18.3461 13.3314C18.2836 13.2845 18.2054 13.2377 18.1117 13.1908C18.0179 13.1283 17.9086 13.0814 17.7836 13.0502C17.7836 13.0502 17.7523 13.0736 17.6898 13.1205C17.6429 13.1517 17.5883 13.2611 17.5258 13.4486C17.4633 13.6205 17.4008 13.8861 17.3383 14.2455C17.2914 14.6049 17.2679 15.1049 17.2679 15.7455ZM21.6273 21.7455C21.8461 21.5111 22.1195 21.4017 22.4476 21.4174C22.7758 21.4174 23.1039 21.4799 23.432 21.6049C23.7601 21.7299 24.0492 21.8783 24.2992 22.0502C24.5648 22.222 24.7367 22.3549 24.8148 22.4486C24.8773 22.5424 24.9242 22.8392 24.9554 23.3392C25.0023 23.8392 25.0179 24.4095 25.0023 25.0502C24.9867 25.6752 24.9398 26.3002 24.8617 26.9252C24.7992 27.5345 24.6898 27.9955 24.5336 28.308C24.3929 28.6205 24.1586 28.8705 23.8304 29.058C23.5179 29.2299 23.182 29.3392 22.8226 29.3861C22.4789 29.4486 22.1429 29.4486 21.8148 29.3861C21.4867 29.3392 21.2523 29.222 21.1117 29.0345C21.0023 28.9095 20.9242 28.6595 20.8773 28.2845C20.8461 27.9095 20.8304 27.472 20.8304 26.972C20.8461 26.4564 20.8773 25.9174 20.9242 25.3549C20.9711 24.7924 21.0258 24.2611 21.0883 23.7611C21.1664 23.2611 21.2523 22.8314 21.3461 22.472C21.4398 22.097 21.5336 21.8549 21.6273 21.7455ZM22.1898 25.2377C22.1898 25.4877 22.182 25.7611 22.1664 26.058C22.1664 26.3549 22.1664 26.6439 22.1664 26.9252C22.1664 27.1908 22.1742 27.4174 22.1898 27.6049C22.2211 27.7924 22.2679 27.9095 22.3304 27.9564C22.3929 28.0033 22.4945 28.0424 22.6351 28.0736C22.7758 28.0892 22.9164 28.0814 23.057 28.0502C23.2133 28.0189 23.3539 27.9486 23.4789 27.8392C23.6039 27.7142 23.682 27.5267 23.7133 27.2767C23.7289 27.0267 23.7289 26.683 23.7133 26.2455C23.6976 25.808 23.6742 25.3705 23.6429 24.933C23.6117 24.4799 23.5726 24.0736 23.5258 23.7142C23.4945 23.3549 23.4554 23.1283 23.4086 23.0345C23.3773 22.9564 23.3304 22.8861 23.2679 22.8236C23.1273 22.683 22.9398 22.5892 22.7054 22.5424C22.5961 22.5892 22.5101 22.7142 22.4476 22.9174C22.3695 23.0892 22.307 23.3549 22.2601 23.7142C22.2133 24.0736 22.1898 24.5814 22.1898 25.2377ZM15.9789 29.7142C15.8539 29.7142 15.7836 29.5892 15.7679 29.3392C15.7523 29.1049 15.7836 28.8705 15.8617 28.6361C16.6898 26.8549 17.432 25.2689 18.0883 23.8783C18.7601 22.4877 19.3539 21.2533 19.8695 20.1752C20.4008 19.097 20.8617 18.1674 21.2523 17.3861C21.6429 16.6049 21.9789 15.9408 22.2601 15.3939C22.9164 14.1127 23.3851 13.2455 23.6664 12.7924C23.807 12.6049 23.9711 12.4408 24.1586 12.3002C24.3617 12.1595 24.5492 12.0502 24.7211 11.972C24.9086 11.8783 25.0648 11.8236 25.1898 11.808C25.3304 11.7924 25.4164 11.808 25.4476 11.8549C25.4945 11.9174 25.4008 12.222 25.1664 12.7689C24.932 13.3002 24.6039 13.9955 24.182 14.8549C23.7758 15.6986 23.2992 16.6517 22.7523 17.7142C22.2054 18.7767 21.6351 19.8627 21.0414 20.972C20.4633 22.0658 19.8851 23.1361 19.307 24.183C18.7289 25.2299 18.2054 26.1674 17.7367 26.9955C17.2679 27.808 16.8695 28.4642 16.5414 28.9642C16.2289 29.4642 16.0414 29.7142 15.9789 29.7142Z" fill="#1814A3"/>
</svg>
