<svg width="41" height="40" viewBox="0 0 41 40" fill="none" xmlns="http://www.w3.org/2000/svg">
<rect x="1.1651" y="3.42682" width="39" height="36.0732" rx="9.5" fill="#FEFEFE" fill-opacity="0.62" stroke="black"/>
<path d="M24.9242 19.9688C25.1534 20.0312 25.3304 20.1875 25.4554 20.4375C25.6013 20.6875 25.695 20.9583 25.7367 21.25C25.7992 21.5417 25.7992 21.8229 25.7367 22.0938C25.6742 22.3646 25.5492 22.5417 25.3617 22.625C25.2159 22.6667 24.8304 22.6979 24.2054 22.7188C23.5804 22.7396 22.8617 22.7396 22.0492 22.7188C21.9867 23.6354 21.9242 24.4375 21.8617 25.125C21.7992 25.7917 21.7263 26.1771 21.6429 26.2812C21.4554 26.5729 21.1846 26.75 20.8304 26.8125C20.4971 26.875 20.2575 26.8854 20.1117 26.8438C20.0492 26.8438 19.9867 26.7292 19.9242 26.5C19.8617 26.25 19.7992 25.9375 19.7367 25.5625C19.6742 25.1667 19.6117 24.7188 19.5492 24.2188C19.5075 23.7188 19.4659 23.1979 19.4242 22.6562C18.57 22.6354 17.8096 22.5938 17.1429 22.5312C16.4763 22.4688 16.0909 22.3854 15.9867 22.2812C15.8617 22.2188 15.7679 22.125 15.7054 22C15.6638 21.875 15.6325 21.75 15.6117 21.625C15.6117 21.4792 15.6221 21.3438 15.6429 21.2188C15.6638 21.0729 15.6846 20.9583 15.7054 20.875C15.7471 20.7708 16.1117 20.6771 16.7992 20.5938C17.5075 20.4896 18.3304 20.3854 19.2679 20.2812C19.2263 19.4896 19.2054 18.7917 19.2054 18.1875C19.2054 17.5833 19.2263 17.1979 19.2679 17.0312C19.3304 16.7812 19.4971 16.5625 19.7679 16.375C20.0388 16.1875 20.3304 16.0417 20.6429 15.9375C20.9763 15.8333 21.2784 15.7917 21.5492 15.8125C21.8409 15.8125 22.0284 15.8958 22.1117 16.0625C22.1534 16.1875 22.1742 16.6354 22.1742 17.4062C22.195 18.1562 22.1846 19.0312 22.1429 20.0312C22.8096 19.9896 23.3929 19.9583 23.8929 19.9375C24.4138 19.9167 24.7575 19.9271 24.9242 19.9688Z" fill="#1814A3"/>
</svg>
