<svg width="41" height="40" viewBox="0 0 41 40" fill="none" xmlns="http://www.w3.org/2000/svg">
<rect x="1.1651" y="1.52563" width="39" height="37.9744" rx="9.5" fill="#FEFEFE" fill-opacity="0.62" stroke="black"/>
<path d="M25.3617 22.4688C25.2575 22.5104 24.9659 22.5417 24.4867 22.5625C24.0075 22.5833 23.4346 22.5938 22.7679 22.5938C22.1013 22.5938 21.3825 22.5833 20.6117 22.5625C19.8617 22.5208 19.1534 22.4896 18.4867 22.4688C17.8409 22.4271 17.2784 22.3854 16.7992 22.3438C16.3409 22.2812 16.07 22.2188 15.9867 22.1562C15.7367 21.9896 15.6117 21.7604 15.6117 21.4688C15.6325 21.1562 15.6638 20.9167 15.7054 20.75C15.7263 20.6875 15.945 20.6146 16.3617 20.5312C16.7992 20.4271 17.3304 20.3438 17.9554 20.2812C18.6013 20.1979 19.2888 20.125 20.0179 20.0625C20.7679 19.9792 21.4763 19.9167 22.1429 19.875C22.8304 19.8333 23.4242 19.8125 23.9242 19.8125C24.445 19.7917 24.7784 19.8021 24.9242 19.8438C25.1534 19.8854 25.3304 20.0312 25.4554 20.2812C25.6013 20.5312 25.695 20.8125 25.7367 21.125C25.7992 21.4167 25.7992 21.6979 25.7367 21.9688C25.6742 22.2188 25.5492 22.3854 25.3617 22.4688Z" fill="#1814A3"/>
</svg>
