<svg width="41" height="40" viewBox="0 0 41 40" fill="none" xmlns="http://www.w3.org/2000/svg">
<rect x="0.704468" y="0.5" width="39" height="39" rx="9.5" fill="white" fill-opacity="0.62" stroke="black"/>
<path d="M23.5469 19.8281C23.4688 19.8594 23.25 19.8828 22.8906 19.8984C22.5312 19.9141 22.1016 19.9219 21.6016 19.9219C21.1016 19.9219 20.5625 19.9141 19.9844 19.8984C19.4219 19.8828 18.8906 19.8594 18.3906 19.8281C17.9062 19.7969 17.4844 19.7656 17.125 19.7344C16.7812 19.7031 16.5781 19.6641 16.5156 19.6172C16.3281 19.4922 16.2344 19.3125 16.2344 19.0781C16.25 18.8438 16.2734 18.6719 16.3047 18.5625C16.3203 18.5 16.4844 18.4375 16.7969 18.375C17.125 18.3125 17.5234 18.25 17.9922 18.1875C18.4766 18.125 18.9922 18.0703 19.5391 18.0234C20.1016 17.9609 20.6328 17.9141 21.1328 17.8828C21.6484 17.8516 22.0938 17.8359 22.4688 17.8359C22.8594 17.8203 23.1094 17.8281 23.2188 17.8594C23.3906 17.8906 23.5234 18.0078 23.6172 18.2109C23.7266 18.3984 23.7969 18.6016 23.8281 18.8203C23.875 19.0391 23.875 19.25 23.8281 19.4531C23.7812 19.6562 23.6875 19.7812 23.5469 19.8281ZM23.7344 23.1328C23.6406 23.1641 23.4141 23.1875 23.0547 23.2031C22.6953 23.2188 22.2656 23.2266 21.7656 23.2266C21.2656 23.2266 20.7266 23.2188 20.1484 23.2031C19.5859 23.1875 19.0625 23.1641 18.5781 23.1328C18.0938 23.1016 17.6719 23.0703 17.3125 23.0391C16.9688 23.0078 16.7656 22.9688 16.7031 22.9219C16.5156 22.8125 16.4219 22.6406 16.4219 22.4062C16.4219 22.1719 16.4531 21.9922 16.5156 21.8672C16.5312 21.8203 16.6953 21.7656 17.0078 21.7031C17.3359 21.6406 17.7344 21.5781 18.2031 21.5156C18.6719 21.4531 19.1797 21.3984 19.7266 21.3516C20.2891 21.2891 20.8203 21.2422 21.3203 21.2109C21.8203 21.1797 22.2578 21.1641 22.6328 21.1641C23.0234 21.1484 23.2734 21.1484 23.3828 21.1641C23.5547 21.2109 23.6953 21.3281 23.8047 21.5156C23.9141 21.7031 23.9844 21.9141 24.0156 22.1484C24.0625 22.3672 24.0625 22.5781 24.0156 22.7812C23.9688 22.9688 23.875 23.0859 23.7344 23.1328Z" fill="#1814A3"/>
</svg>
