<svg width="40" height="40" viewBox="0 0 40 40" fill="none" xmlns="http://www.w3.org/2000/svg">
<rect x="0.5" y="0.5" width="39" height="39" rx="9.5" fill="#151515" stroke="black"/>
<mask id="path-2-outside-1_7_18" maskUnits="userSpaceOnUse" x="15.8" y="7.21054" width="11" height="22" fill="black">
<rect fill="white" x="15.8" y="7.21054" width="11" height="22"/>
<path d="M22.1204 11.8121C22.0891 11.7652 22.0344 11.7184 21.9563 11.6715C21.8938 11.6246 21.8157 11.5855 21.7219 11.5543C21.6282 11.523 21.5344 11.5152 21.4407 11.5309C21.3625 11.5309 21.3 11.5621 21.2532 11.6246C21.2063 11.7027 21.1204 11.9996 20.9954 12.5152C20.886 13.0152 20.7688 13.6402 20.6438 14.3902C20.5188 15.1402 20.4094 15.9762 20.3157 16.898C20.2219 17.8199 20.175 18.734 20.175 19.6402C20.175 20.2965 20.1985 20.984 20.2454 21.7027C20.2922 22.4059 20.3469 23.0543 20.4094 23.648C20.4875 24.2418 20.5735 24.734 20.6672 25.1246C20.7766 25.4996 20.886 25.6871 20.9954 25.6871C21.1047 25.7027 21.2532 25.5855 21.4407 25.3355C21.6282 25.0855 21.8079 24.8043 21.9797 24.4918C22.1516 24.1637 22.3079 23.8512 22.4485 23.5543C22.6047 23.2418 22.7063 23.0309 22.7532 22.9215C22.8157 22.7496 22.9016 22.5621 23.011 22.359C23.1204 22.1402 23.2297 21.9449 23.3391 21.773C23.4485 21.5855 23.5579 21.4371 23.6672 21.3277C23.7766 21.2027 23.8704 21.1402 23.9485 21.1402C24.0422 21.1402 24.1204 21.234 24.1829 21.4215C24.261 21.609 24.3157 21.8355 24.3469 22.1012C24.3938 22.3512 24.425 22.6168 24.4407 22.898C24.4563 23.1637 24.4641 23.3824 24.4641 23.5543C24.4641 23.8668 24.4016 24.2574 24.2766 24.7262C24.1672 25.1949 24.0188 25.648 23.8313 26.0855C23.6594 26.523 23.4641 26.898 23.2454 27.2105C23.0422 27.523 22.8469 27.6715 22.6594 27.6559C22.4719 27.6402 22.1672 27.5309 21.7454 27.3277C21.3391 27.1246 20.9172 26.8902 20.4797 26.6246C20.0422 26.359 19.6438 26.0934 19.2844 25.8277C18.925 25.5621 18.7141 25.3512 18.6516 25.1949C18.5735 25.0543 18.4563 24.7184 18.3 24.1871C18.1594 23.6402 18.011 22.984 17.8547 22.2184C17.6985 21.4527 17.5579 20.609 17.4329 19.6871C17.3235 18.7652 17.2688 17.8355 17.2688 16.898C17.2688 15.9605 17.2766 15.0387 17.2922 14.1324C17.3079 13.2105 17.3391 12.3902 17.386 11.6715C17.4485 10.9527 17.5422 10.3746 17.6672 9.9371C17.7922 9.48398 17.9641 9.24179 18.1829 9.21054C18.6204 9.16367 19.0969 9.19492 19.6125 9.30429C20.1282 9.39804 20.6438 9.54648 21.1594 9.7496C21.675 9.95273 22.1672 10.1871 22.636 10.4527C23.1204 10.7027 23.55 10.9684 23.925 11.2496C24.3 11.5152 24.5969 11.773 24.8157 12.023C25.05 12.273 25.175 12.484 25.1907 12.6559C25.2063 12.9215 25.175 13.2184 25.0969 13.5465C25.0188 13.8746 24.925 14.1949 24.8157 14.5074C24.7063 14.8043 24.5891 15.0777 24.4641 15.3277C24.3547 15.5621 24.2688 15.7262 24.2063 15.8199C24.1282 15.9293 24.0344 16.0465 23.925 16.1715C23.8157 16.2965 23.6985 16.4059 23.5735 16.4996C23.4641 16.5934 23.3469 16.6637 23.2219 16.7105C23.1125 16.7418 23.011 16.7184 22.9172 16.6402C22.8547 16.5934 22.7922 16.4449 22.7297 16.1949C22.6829 15.9449 22.6282 15.648 22.5657 15.3043C22.5188 14.9605 22.4719 14.5934 22.425 14.2027C22.3782 13.7965 22.3313 13.4215 22.2844 13.0777C22.2532 12.734 22.2219 12.4449 22.1907 12.2105C22.1594 11.9762 22.136 11.8434 22.1204 11.8121Z"/>
</mask>
<path d="M22.1204 11.8121C22.0891 11.7652 22.0344 11.7184 21.9563 11.6715C21.8938 11.6246 21.8157 11.5855 21.7219 11.5543C21.6282 11.523 21.5344 11.5152 21.4407 11.5309C21.3625 11.5309 21.3 11.5621 21.2532 11.6246C21.2063 11.7027 21.1204 11.9996 20.9954 12.5152C20.886 13.0152 20.7688 13.6402 20.6438 14.3902C20.5188 15.1402 20.4094 15.9762 20.3157 16.898C20.2219 17.8199 20.175 18.734 20.175 19.6402C20.175 20.2965 20.1985 20.984 20.2454 21.7027C20.2922 22.4059 20.3469 23.0543 20.4094 23.648C20.4875 24.2418 20.5735 24.734 20.6672 25.1246C20.7766 25.4996 20.886 25.6871 20.9954 25.6871C21.1047 25.7027 21.2532 25.5855 21.4407 25.3355C21.6282 25.0855 21.8079 24.8043 21.9797 24.4918C22.1516 24.1637 22.3079 23.8512 22.4485 23.5543C22.6047 23.2418 22.7063 23.0309 22.7532 22.9215C22.8157 22.7496 22.9016 22.5621 23.011 22.359C23.1204 22.1402 23.2297 21.9449 23.3391 21.773C23.4485 21.5855 23.5579 21.4371 23.6672 21.3277C23.7766 21.2027 23.8704 21.1402 23.9485 21.1402C24.0422 21.1402 24.1204 21.234 24.1829 21.4215C24.261 21.609 24.3157 21.8355 24.3469 22.1012C24.3938 22.3512 24.425 22.6168 24.4407 22.898C24.4563 23.1637 24.4641 23.3824 24.4641 23.5543C24.4641 23.8668 24.4016 24.2574 24.2766 24.7262C24.1672 25.1949 24.0188 25.648 23.8313 26.0855C23.6594 26.523 23.4641 26.898 23.2454 27.2105C23.0422 27.523 22.8469 27.6715 22.6594 27.6559C22.4719 27.6402 22.1672 27.5309 21.7454 27.3277C21.3391 27.1246 20.9172 26.8902 20.4797 26.6246C20.0422 26.359 19.6438 26.0934 19.2844 25.8277C18.925 25.5621 18.7141 25.3512 18.6516 25.1949C18.5735 25.0543 18.4563 24.7184 18.3 24.1871C18.1594 23.6402 18.011 22.984 17.8547 22.2184C17.6985 21.4527 17.5579 20.609 17.4329 19.6871C17.3235 18.7652 17.2688 17.8355 17.2688 16.898C17.2688 15.9605 17.2766 15.0387 17.2922 14.1324C17.3079 13.2105 17.3391 12.3902 17.386 11.6715C17.4485 10.9527 17.5422 10.3746 17.6672 9.9371C17.7922 9.48398 17.9641 9.24179 18.1829 9.21054C18.6204 9.16367 19.0969 9.19492 19.6125 9.30429C20.1282 9.39804 20.6438 9.54648 21.1594 9.7496C21.675 9.95273 22.1672 10.1871 22.636 10.4527C23.1204 10.7027 23.55 10.9684 23.925 11.2496C24.3 11.5152 24.5969 11.773 24.8157 12.023C25.05 12.273 25.175 12.484 25.1907 12.6559C25.2063 12.9215 25.175 13.2184 25.0969 13.5465C25.0188 13.8746 24.925 14.1949 24.8157 14.5074C24.7063 14.8043 24.5891 15.0777 24.4641 15.3277C24.3547 15.5621 24.2688 15.7262 24.2063 15.8199C24.1282 15.9293 24.0344 16.0465 23.925 16.1715C23.8157 16.2965 23.6985 16.4059 23.5735 16.4996C23.4641 16.5934 23.3469 16.6637 23.2219 16.7105C23.1125 16.7418 23.011 16.7184 22.9172 16.6402C22.8547 16.5934 22.7922 16.4449 22.7297 16.1949C22.6829 15.9449 22.6282 15.648 22.5657 15.3043C22.5188 14.9605 22.4719 14.5934 22.425 14.2027C22.3782 13.7965 22.3313 13.4215 22.2844 13.0777C22.2532 12.734 22.2219 12.4449 22.1907 12.2105C22.1594 11.9762 22.136 11.8434 22.1204 11.8121Z" fill="#F8F8F8" fill-opacity="0.62"/>
<path d="M22.1204 11.8121L23.0148 11.3649L22.9869 11.3092L22.9524 11.2574L22.1204 11.8121ZM21.9563 11.6715L21.3563 12.4715L21.3976 12.5024L21.4418 12.529L21.9563 11.6715ZM21.4407 11.5309V12.5309H21.5234L21.6051 12.5172L21.4407 11.5309ZM21.2532 11.6246L20.4532 11.0246L20.4222 11.0659L20.3957 11.1101L21.2532 11.6246ZM20.9954 12.5152L20.0235 12.2796L20.0209 12.2906L20.0185 12.3015L20.9954 12.5152ZM20.2454 21.7027L19.2475 21.7678L19.2476 21.7692L20.2454 21.7027ZM20.4094 23.648L19.4149 23.7527L19.4163 23.7656L19.418 23.7785L20.4094 23.648ZM20.6672 25.1246L19.6948 25.358L19.7005 25.3814L19.7072 25.4046L20.6672 25.1246ZM20.9954 25.6871L21.1368 24.6972L21.0664 24.6871H20.9954V25.6871ZM21.9797 24.4918L22.856 24.9737L22.8609 24.9648L22.8656 24.9558L21.9797 24.4918ZM22.4485 23.5543L21.5541 23.1071L21.5493 23.1166L21.5447 23.1262L22.4485 23.5543ZM22.7532 22.9215L23.6723 23.3154L23.6834 23.2896L23.693 23.2632L22.7532 22.9215ZM23.011 22.359L23.8915 22.8331L23.8986 22.8197L23.9054 22.8062L23.011 22.359ZM23.3391 21.773L24.1828 22.3099L24.1932 22.2936L24.2029 22.2769L23.3391 21.773ZM23.6672 21.3277L24.3743 22.0348L24.3979 22.0113L24.4198 21.9862L23.6672 21.3277ZM24.1829 21.4215L23.2342 21.7377L23.2457 21.7724L23.2598 21.8061L24.1829 21.4215ZM24.3469 22.1012L23.3538 22.218L23.3578 22.2519L23.3641 22.2855L24.3469 22.1012ZM24.4407 22.898L23.4422 22.9535L23.4424 22.9568L24.4407 22.898ZM24.2766 24.7262L23.3104 24.4685L23.3063 24.4837L23.3028 24.4989L24.2766 24.7262ZM23.8313 26.0855L22.9122 25.6916L22.9061 25.7057L22.9005 25.7199L23.8313 26.0855ZM23.2454 27.2105L22.4261 26.6371L22.4163 26.6512L22.4069 26.6656L23.2454 27.2105ZM21.7454 27.3277L21.2981 28.2222L21.3048 28.2255L21.3115 28.2287L21.7454 27.3277ZM18.6516 25.1949L19.5801 24.8235L19.5565 24.7647L19.5258 24.7093L18.6516 25.1949ZM18.3 24.1871L17.3316 24.4361L17.3358 24.4528L17.3407 24.4693L18.3 24.1871ZM17.4329 19.6871L16.4398 19.8049L16.4408 19.8132L16.4419 19.8215L17.4329 19.6871ZM17.2922 14.1324L18.2921 14.1497L18.2921 14.1494L17.2922 14.1324ZM17.386 11.6715L16.3897 11.5848L16.3888 11.5956L16.3881 11.6064L17.386 11.6715ZM17.6672 9.9371L18.6288 10.2118L18.6312 10.203L17.6672 9.9371ZM18.1829 9.21054L18.0763 8.21623L18.0588 8.2181L18.0414 8.22059L18.1829 9.21054ZM19.6125 9.30429L19.405 10.2825L19.4193 10.2856L19.4337 10.2882L19.6125 9.30429ZM22.636 10.4527L22.143 11.3228L22.16 11.3324L22.1773 11.3413L22.636 10.4527ZM23.925 11.2496L23.325 12.0496L23.3359 12.0578L23.347 12.0656L23.925 11.2496ZM24.8157 12.023L24.0631 12.6815L24.0744 12.6945L24.0861 12.707L24.8157 12.023ZM25.1907 12.6559L26.1889 12.5971L26.188 12.5812L26.1866 12.5653L25.1907 12.6559ZM24.8157 14.5074L25.754 14.8531L25.7568 14.8455L25.7595 14.8378L24.8157 14.5074ZM24.4641 15.3277L23.5697 14.8805L23.5636 14.8926L23.5579 14.9048L24.4641 15.3277ZM24.2063 15.8199L25.02 16.4012L25.0294 16.388L25.0383 16.3746L24.2063 15.8199ZM23.5735 16.4996L22.9735 15.6996L22.9474 15.7191L22.9227 15.7403L23.5735 16.4996ZM23.2219 16.7105L23.4966 17.6721L23.5354 17.661L23.573 17.6469L23.2219 16.7105ZM22.9172 16.6402L23.5574 15.872L23.5377 15.8556L23.5172 15.8402L22.9172 16.6402ZM22.7297 16.1949L21.7469 16.3792L21.7524 16.4085L21.7596 16.4375L22.7297 16.1949ZM22.5657 15.3043L21.5748 15.4394L21.5778 15.4614L21.5818 15.4832L22.5657 15.3043ZM22.425 14.2027L21.4316 14.3174L21.4322 14.3219L22.425 14.2027ZM22.2844 13.0777L21.2885 13.1683L21.2906 13.1906L21.2936 13.2128L22.2844 13.0777ZM22.9524 11.2574C22.8036 11.0342 22.6065 10.8954 22.4708 10.814L21.4418 12.529C21.4447 12.5307 21.4298 12.5222 21.4051 12.501C21.3812 12.4806 21.3353 12.4373 21.2883 12.3668L22.9524 11.2574ZM22.5563 10.8715C22.3885 10.7456 22.2081 10.6623 22.0382 10.6056L21.4057 12.503C21.4134 12.5055 21.412 12.5056 21.4036 12.5015C21.3952 12.4972 21.3783 12.488 21.3563 12.4715L22.5563 10.8715ZM22.0382 10.6056C21.796 10.5249 21.5374 10.5009 21.2763 10.5445L21.6051 12.5172C21.5314 12.5295 21.4603 12.5212 21.4057 12.503L22.0382 10.6056ZM21.4407 10.5309C21.0478 10.5309 20.6889 10.7103 20.4532 11.0246L22.0532 12.2246C21.9946 12.3027 21.9057 12.3871 21.7824 12.4487C21.6591 12.5104 21.5383 12.5309 21.4407 12.5309V10.5309ZM20.3957 11.1101C20.3287 11.2217 20.2872 11.3364 20.2681 11.3904C20.2424 11.4628 20.2173 11.5438 20.193 11.6278C20.1441 11.7967 20.0874 12.0161 20.0235 12.2796L21.9672 12.7508C22.0283 12.4987 22.0771 12.3118 22.1141 12.1839C22.1328 12.1194 22.1458 12.0794 22.1533 12.0581C22.157 12.0476 22.1571 12.0482 22.1536 12.0564C22.1518 12.0607 22.1378 12.0938 22.1107 12.1391L20.3957 11.1101ZM20.0185 12.3015C19.9042 12.8236 19.784 13.4664 19.6574 14.2258L21.6302 14.5546C21.7536 13.8141 21.8677 13.2068 21.9723 12.7289L20.0185 12.3015ZM19.6574 14.2258C19.5283 15.0007 19.4163 15.8582 19.3208 16.7969L21.3105 16.9992C21.4026 16.0941 21.5093 15.2797 21.6302 14.5546L19.6574 14.2258ZM19.3208 16.7969C19.2237 17.7516 19.175 18.6994 19.175 19.6402H21.175C21.175 18.7685 21.2201 17.8882 21.3105 16.9992L19.3208 16.7969ZM19.175 19.6402C19.175 20.3202 19.1993 21.0295 19.2475 21.7678L21.2432 21.6376C21.1976 20.9385 21.175 20.2728 21.175 19.6402H19.175ZM19.2476 21.7692C19.2952 22.4829 19.3509 23.1443 19.4149 23.7527L21.4039 23.5434C21.343 22.9643 21.2893 22.3288 21.2431 21.6362L19.2476 21.7692ZM19.418 23.7785C19.4987 24.3918 19.5901 24.9213 19.6948 25.358L21.6396 24.8912C21.5569 24.5466 21.4764 24.0917 21.4009 23.5176L19.418 23.7785ZM19.7072 25.4046C19.7697 25.6187 19.8514 25.8513 19.9675 26.0503C20.0255 26.1498 20.119 26.2882 20.2625 26.4112C20.4128 26.54 20.6623 26.6871 20.9954 26.6871V24.6871C21.2737 24.6871 21.4685 24.8107 21.5641 24.8927C21.653 24.9689 21.6917 25.0369 21.6951 25.0426C21.7018 25.0541 21.6742 25.0055 21.6272 24.8446L19.7072 25.4046ZM20.8539 26.6771C21.3193 26.7435 21.6632 26.5104 21.8084 26.3958C21.9801 26.2603 22.1241 26.091 22.2407 25.9355L20.6407 24.7355C20.5698 24.83 20.5458 24.8444 20.5691 24.826C20.5828 24.8152 20.633 24.7771 20.7182 24.7435C20.8069 24.7086 20.9541 24.6711 21.1368 24.6972L20.8539 26.6771ZM22.2407 25.9355C22.4599 25.6432 22.6646 25.3217 22.856 24.9737L21.1035 24.0099C20.9512 24.2869 20.7964 24.5279 20.6407 24.7355L22.2407 25.9355ZM22.8656 24.9558C23.0429 24.6173 23.2052 24.2928 23.3522 23.9824L21.5447 23.1262C21.4105 23.4096 21.2603 23.71 21.0939 24.0278L22.8656 24.9558ZM23.3429 24.0015C23.4972 23.693 23.612 23.4561 23.6723 23.3154L21.834 22.5276C21.8006 22.6056 21.7123 22.7906 21.5541 23.1071L23.3429 24.0015ZM23.693 23.2632C23.7353 23.1468 23.7994 23.004 23.8915 22.8331L22.1305 21.8849C22.0038 22.1202 21.896 22.3524 21.8134 22.5797L23.693 23.2632ZM23.9054 22.8062C24.0024 22.6123 24.0951 22.4477 24.1828 22.3099L22.4954 21.2362C22.3644 21.4421 22.2384 21.6681 22.1166 21.9118L23.9054 22.8062ZM24.2029 22.2769C24.2849 22.1363 24.3446 22.0646 24.3743 22.0348L22.9601 20.6206C22.7711 20.8096 22.612 21.0348 22.4753 21.2692L24.2029 22.2769ZM24.4198 21.9862C24.4412 21.9618 24.4265 21.9844 24.3743 22.0192C24.3261 22.0513 24.1762 22.1402 23.9485 22.1402V20.1402C23.6426 20.1402 23.4068 20.2604 23.2649 20.3551C23.119 20.4523 23.0027 20.5686 22.9147 20.6692L24.4198 21.9862ZM23.9485 22.1402C23.6143 22.1402 23.3986 21.958 23.3092 21.8507C23.2343 21.7608 23.221 21.6981 23.2342 21.7377L25.1315 21.1053C25.0823 20.9574 24.9987 20.754 24.8456 20.5704C24.6781 20.3693 24.3765 20.1402 23.9485 20.1402V22.1402ZM23.2598 21.8061C23.293 21.8859 23.3301 22.0172 23.3538 22.218L25.3401 21.9843C25.3012 21.6539 25.2289 21.3321 25.1059 21.0369L23.2598 21.8061ZM23.3641 22.2855C23.4022 22.4887 23.4287 22.711 23.4422 22.9535L25.4391 22.8426C25.4214 22.5226 25.3854 22.2137 25.3298 21.9169L23.3641 22.2855ZM23.4424 22.9568C23.4574 23.2122 23.4641 23.4095 23.4641 23.5543H25.4641C25.4641 23.3553 25.4552 23.1152 25.4389 22.8393L23.4424 22.9568ZM23.4641 23.5543C23.4641 23.7458 23.4238 24.043 23.3104 24.4685L25.2428 24.9838C25.3794 24.4718 25.4641 23.9878 25.4641 23.5543H23.4641ZM23.3028 24.4989C23.2066 24.9113 23.0763 25.3086 22.9122 25.6916L24.7504 26.4795C24.9613 25.9875 25.1279 25.4786 25.2505 24.9534L23.3028 24.4989ZM22.9005 25.7199C22.7511 26.1002 22.5906 26.4021 22.4261 26.6371L24.0646 27.784C24.3376 27.394 24.5677 26.9459 24.7621 26.4512L22.9005 25.7199ZM22.4069 26.6656C22.3389 26.7701 22.3128 26.7819 22.3414 26.7601C22.3793 26.7313 22.5227 26.641 22.7425 26.6593L22.5764 28.6524C22.9836 28.6863 23.3185 28.5296 23.5516 28.3524C23.7756 28.1822 23.9487 27.9634 24.0838 27.7555L22.4069 26.6656ZM22.7425 26.6593C22.7762 26.6621 22.7482 26.664 22.6281 26.6209C22.5193 26.5818 22.3713 26.5192 22.1792 26.4267L21.3115 28.2287C21.727 28.4288 22.1835 28.6197 22.5764 28.6524L22.7425 26.6593ZM22.1926 26.4333C21.8136 26.2438 21.4157 26.023 20.9987 25.7698L19.9608 27.4794C20.4188 27.7575 20.8646 28.0054 21.2981 28.2222L22.1926 26.4333ZM20.9987 25.7698C20.5835 25.5177 20.2106 25.2688 19.8788 25.0236L18.69 26.6319C19.077 26.9179 19.501 27.2003 19.9608 27.4794L20.9987 25.7698ZM19.8788 25.0236C19.7215 24.9073 19.6215 24.8209 19.5638 24.7632C19.5357 24.7351 19.5265 24.7225 19.5284 24.7251C19.5287 24.7256 19.5543 24.7592 19.5801 24.8235L17.7231 25.5663C17.8295 25.8323 18.011 26.0388 18.1496 26.1774C18.3028 26.3306 18.488 26.4826 18.69 26.6319L19.8788 25.0236ZM19.5258 24.7093C19.5316 24.7197 19.5061 24.6708 19.4493 24.5081C19.3983 24.3618 19.3351 24.1624 19.2594 23.9049L17.3407 24.4693C17.4884 24.9714 17.6347 25.4237 17.7775 25.6806L19.5258 24.7093ZM19.2685 23.9381C19.1333 23.4123 18.9886 22.7733 18.8345 22.0184L16.8749 22.4183C17.0334 23.1947 17.1855 23.8682 17.3316 24.4361L19.2685 23.9381ZM18.8345 22.0184C18.6835 21.2781 18.5464 20.4566 18.4238 19.5527L16.4419 19.8215C16.5694 20.7613 16.7135 21.6273 16.8749 22.4183L18.8345 22.0184ZM18.4259 19.5693C18.3212 18.6869 18.2688 17.7966 18.2688 16.898H16.2688C16.2688 17.8745 16.3258 18.8436 16.4398 19.8049L18.4259 19.5693ZM18.2688 16.898C18.2688 15.9661 18.2766 15.05 18.2921 14.1497L16.2924 14.1152C16.2767 15.0274 16.2688 15.955 16.2688 16.898H18.2688ZM18.2921 14.1494C18.3075 13.2394 18.3383 12.4356 18.3839 11.7366L16.3881 11.6064C16.3399 12.3449 16.3082 13.1817 16.2924 14.1155L18.2921 14.1494ZM18.3822 11.7581C18.442 11.0707 18.5284 10.563 18.6288 10.2118L16.7057 9.66238C16.5561 10.1862 16.455 10.8348 16.3897 11.5848L18.3822 11.7581ZM18.6312 10.203C18.6533 10.123 18.6736 10.0667 18.6895 10.0295C18.7058 9.9913 18.7131 9.98354 18.7054 9.99437C18.6977 10.0052 18.6659 10.0473 18.6011 10.0928C18.5316 10.1414 18.4371 10.1844 18.3243 10.2005L18.0414 8.22059C17.5767 8.28698 17.2624 8.57199 17.0744 8.83687C16.8936 9.09163 16.7808 9.39005 16.7032 9.67117L18.6312 10.203ZM18.2894 10.2048C18.6036 10.1712 18.9728 10.1908 19.405 10.2825L19.8201 8.32606C19.221 8.19899 18.6371 8.15615 18.0763 8.21623L18.2894 10.2048ZM19.4337 10.2882C19.8816 10.3696 20.3345 10.4994 20.7929 10.68L21.5259 8.81919C20.9531 8.59354 20.3748 8.42648 19.7914 8.32042L19.4337 10.2882ZM20.7929 10.68C21.2662 10.8665 21.7161 11.0808 22.143 11.3228L23.129 9.58271C22.6184 9.29337 22.0839 9.03898 21.5259 8.81919L20.7929 10.68ZM22.1773 11.3413C22.62 11.5698 23.0011 11.8066 23.325 12.0496L24.525 10.4496C24.099 10.1301 23.6207 9.83565 23.0946 9.56411L22.1773 11.3413ZM23.347 12.0656C23.6804 12.3018 23.9116 12.5084 24.0631 12.6815L25.5683 11.3645C25.2822 11.0377 24.9197 10.7287 24.5031 10.4336L23.347 12.0656ZM24.0861 12.707C24.1274 12.751 24.1589 12.788 24.1823 12.8181C24.2059 12.8484 24.2189 12.8684 24.2249 12.8785C24.2311 12.8889 24.227 12.884 24.2198 12.8644C24.2126 12.8448 24.2 12.8044 24.1948 12.7464L26.1866 12.5653C26.1387 12.0391 25.8053 11.6166 25.5452 11.3391L24.0861 12.707ZM24.1924 12.7146C24.201 12.8607 24.1854 13.0576 24.1241 13.3149L26.0697 13.7781C26.1647 13.3791 26.2116 12.9823 26.1889 12.5971L24.1924 12.7146ZM24.1241 13.3149C24.0538 13.6102 23.9696 13.8976 23.8718 14.1771L25.7595 14.8378C25.8805 14.4923 25.9838 14.139 26.0697 13.7781L24.1241 13.3149ZM23.8773 14.1617C23.7791 14.4284 23.6762 14.6675 23.5697 14.8805L25.3585 15.7749C25.502 15.488 25.6335 15.1802 25.754 14.8531L23.8773 14.1617ZM23.5579 14.9048C23.5074 15.0131 23.4655 15.0982 23.4318 15.1625C23.4151 15.1945 23.4015 15.2191 23.3909 15.2375C23.3857 15.2465 23.3817 15.2533 23.3787 15.2582C23.3756 15.2631 23.3742 15.2653 23.3742 15.2652L25.0383 16.3746C25.1466 16.2122 25.2597 15.9875 25.3703 15.7506L23.5579 14.9048ZM23.3926 15.2387C23.3374 15.316 23.265 15.4072 23.1725 15.513L24.6776 16.83C24.8038 16.6857 24.919 16.5426 25.02 16.4012L23.3926 15.2387ZM23.1725 15.513C23.106 15.5889 23.0395 15.6501 22.9735 15.6996L24.1735 17.2996C24.3575 17.1616 24.5253 17.0041 24.6776 16.83L23.1725 15.513ZM22.9227 15.7403C22.895 15.764 22.878 15.7715 22.8708 15.7742L23.573 17.6469C23.8159 17.5558 24.0332 17.4227 24.2243 17.2589L22.9227 15.7403ZM22.9472 15.749C23.04 15.7225 23.1596 15.7123 23.2886 15.742C23.4145 15.7711 23.5044 15.8279 23.5574 15.872L22.2771 17.4084C22.6031 17.6802 23.0426 17.8018 23.4966 17.6721L22.9472 15.749ZM23.5172 15.8402C23.5776 15.8855 23.6212 15.9302 23.6502 15.9637C23.6795 15.9976 23.6999 16.027 23.7126 16.047C23.7256 16.0673 23.734 16.083 23.7385 16.0918C23.7409 16.0964 23.7425 16.0999 23.7435 16.1022C23.7446 16.1044 23.7451 16.1056 23.7451 16.1057C23.7451 16.1057 23.7437 16.1023 23.7411 16.095C23.7385 16.0877 23.735 16.0775 23.7308 16.064C23.7222 16.0367 23.7118 16 23.6999 15.9524L21.7596 16.4375C21.7968 16.5864 21.8426 16.741 21.9019 16.8818C21.9431 16.9799 22.0587 17.2464 22.3172 17.4402L23.5172 15.8402ZM23.7126 16.0106C23.6662 15.7629 23.6118 15.468 23.5495 15.1254L21.5818 15.4832C21.6445 15.8281 21.6996 16.1269 21.7469 16.3792L23.7126 16.0106ZM23.5565 15.1692C23.5104 14.8314 23.4642 14.4696 23.4179 14.0836L21.4322 14.3219C21.4796 14.7171 21.5272 15.0897 21.5748 15.4394L23.5565 15.1692ZM23.4185 14.0881C23.3709 13.6762 23.3232 13.2943 23.2753 12.9426L21.2936 13.2128C21.3394 13.5487 21.3854 13.9168 21.4316 14.3174L23.4185 14.0881ZM23.2803 12.9872C23.2483 12.6352 23.2156 12.3313 23.1819 12.0784L21.1994 12.3427C21.2282 12.5585 21.258 12.8327 21.2885 13.1683L23.2803 12.9872ZM23.1819 12.0784C23.1656 11.9559 23.1498 11.8481 23.1344 11.7614C23.1269 11.7187 23.1177 11.6704 23.1064 11.623C23.1016 11.6031 23.0757 11.4868 23.0148 11.3649L21.2259 12.2593C21.2075 12.2224 21.1951 12.1917 21.1879 12.1726C21.1803 12.1524 21.1749 12.1359 21.1715 12.125C21.165 12.1039 21.1615 12.0895 21.1607 12.0862C21.1592 12.0797 21.1607 12.0851 21.1649 12.1089C21.173 12.155 21.1845 12.2308 21.1994 12.3427L23.1819 12.0784Z" fill="black" mask="url(#path-2-outside-1_7_18)"/>
</svg>
