<svg width="41" height="40" viewBox="0 0 41 40" fill="none" xmlns="http://www.w3.org/2000/svg">
<rect x="1.1651" y="0.5" width="39" height="39" rx="9.5" fill="#FEFEFE" fill-opacity="0.62" stroke="black"/>
<path d="M25.4771 10.0074C25.4771 10.0699 25.3833 10.3512 25.1958 10.8512C25.0239 11.3512 24.7817 11.9918 24.4692 12.773C24.1724 13.5543 23.8208 14.4371 23.4146 15.4215C23.0239 16.3902 22.6177 17.3824 22.1958 18.398C21.7739 19.4137 21.3521 20.4059 20.9302 21.3746C20.5239 22.3434 20.1489 23.2184 19.8052 23.9996C19.4614 24.7809 19.1724 25.4293 18.938 25.9449C18.7036 26.4449 18.5474 26.7262 18.4692 26.7887C18.2192 27.023 17.9692 27.1637 17.7192 27.2105C17.4692 27.2418 17.2817 27.2418 17.1567 27.2105C17.1099 27.1949 17.1489 26.9684 17.2739 26.5309C17.3989 26.0777 17.5786 25.484 17.813 24.7496C18.0474 23.9996 18.3208 23.1559 18.6333 22.2184C18.9614 21.2652 19.2974 20.2965 19.6411 19.3121C19.9849 18.3121 20.3286 17.3277 20.6724 16.359C21.0317 15.3746 21.3599 14.4918 21.6567 13.7105C21.9536 12.9293 22.2036 12.2809 22.4067 11.7652C22.6099 11.234 22.7505 10.9137 22.8286 10.8043C22.9692 10.5855 23.1802 10.3902 23.4614 10.2184C23.7583 10.0465 24.0552 9.92148 24.3521 9.84335C24.6489 9.7496 24.9067 9.71835 25.1255 9.7496C25.3599 9.76523 25.4771 9.85117 25.4771 10.0074Z" fill="#1814A3"/>
</svg>
