<svg width="41" height="40" viewBox="0 0 41 40" fill="none" xmlns="http://www.w3.org/2000/svg">
<rect x="0.648865" y="4.30951" width="39" height="35.1905" rx="9.5" fill="#F8F8F8" fill-opacity="0.62" stroke="black"/>
<path d="M24.6709 18.0938C24.6084 18.0521 24.3792 18.0938 23.9834 18.2188C23.5667 18.3229 23.0563 18.4896 22.4521 18.7188C21.848 18.9271 21.2021 19.1771 20.5146 19.4688C19.8271 19.7396 19.1709 20.0104 18.5459 20.2812C17.9209 20.5521 17.3896 20.8021 16.9521 21.0312C16.4938 21.2604 16.2021 21.4271 16.0771 21.5312C16.0146 21.5729 15.9626 21.7188 15.9209 21.9688C15.8792 22.1979 15.8584 22.4583 15.8584 22.75C15.8376 23.0417 15.8584 23.3229 15.9209 23.5938C15.9626 23.8646 16.0459 24.0625 16.1709 24.1875C16.2959 24.2917 16.5667 24.4583 16.9834 24.6875C17.4001 24.9167 17.8896 25.1667 18.4521 25.4375C19.0146 25.7083 19.6188 25.9896 20.2646 26.2812C20.8896 26.5521 21.473 26.8021 22.0146 27.0312C22.5563 27.2396 23.0146 27.4062 23.3896 27.5312C23.7646 27.6562 23.9834 27.6875 24.0459 27.625C24.1709 27.5208 24.3167 27.3333 24.4834 27.0625C24.6292 26.7917 24.6396 26.5312 24.5146 26.2812C24.473 26.1979 24.2646 26.0312 23.8896 25.7812C23.5146 25.5312 23.0667 25.25 22.5459 24.9375C22.0042 24.6042 21.4209 24.2604 20.7959 23.9062C20.1709 23.5312 19.5771 23.1875 19.0146 22.875C19.598 22.5625 20.2334 22.2292 20.9209 21.875C21.6084 21.5208 22.2542 21.1875 22.8584 20.875C23.4626 20.5417 23.9834 20.25 24.4209 20C24.8376 19.75 25.0667 19.5729 25.1084 19.4688C25.2542 19.2396 25.2542 18.9792 25.1084 18.6875C24.9417 18.3958 24.7959 18.1979 24.6709 18.0938Z" fill="#1814A3"/>
</svg>
