<svg width="41" height="40" viewBox="0 0 41 40" fill="none" xmlns="http://www.w3.org/2000/svg">
<rect x="3.1698" y="0.5" width="37.1395" height="39" rx="9.5" fill="#F8F8F8" fill-opacity="0.62" stroke="black"/>
<path d="M18.9031 24.4194C18.8614 24.3569 18.9031 24.1277 19.0281 23.7319C19.1322 23.3152 19.2989 22.8048 19.5281 22.2007C19.7364 21.5965 19.9864 20.9507 20.2781 20.2632C20.5489 19.5757 20.8197 18.9194 21.0906 18.2944C21.3614 17.6694 21.6114 17.1382 21.8406 16.7007C22.0697 16.2423 22.2364 15.9507 22.3406 15.8257C22.3822 15.7632 22.5281 15.7111 22.7781 15.6694C23.0072 15.6277 23.2677 15.6069 23.5593 15.6069C23.851 15.5861 24.1322 15.6069 24.4031 15.6694C24.6739 15.7111 24.8718 15.7944 24.9968 15.9194C25.101 16.0444 25.2677 16.3152 25.4968 16.7319C25.726 17.1486 25.976 17.6382 26.2468 18.2007C26.5177 18.7632 26.7989 19.3673 27.0906 20.0132C27.3614 20.6382 27.6114 21.2215 27.8406 21.7632C28.0489 22.3048 28.2156 22.7632 28.3406 23.1382C28.4656 23.5132 28.4968 23.7319 28.4343 23.7944C28.3302 23.9194 28.1427 24.0652 27.8718 24.2319C27.601 24.3777 27.3406 24.3882 27.0906 24.2632C27.0072 24.2215 26.8406 24.0132 26.5906 23.6382C26.3406 23.2632 26.0593 22.8152 25.7468 22.2944C25.4135 21.7527 25.0697 21.1694 24.7156 20.5444C24.3406 19.9194 23.9968 19.3257 23.6843 18.7632C23.3718 19.3465 23.0385 19.9819 22.6843 20.6694C22.3302 21.3569 21.9968 22.0027 21.6843 22.6069C21.351 23.2111 21.0593 23.7319 20.8093 24.1694C20.5593 24.5861 20.3822 24.8152 20.2781 24.8569C20.0489 25.0027 19.7885 25.0027 19.4968 24.8569C19.2052 24.6902 19.0072 24.5444 18.9031 24.4194Z" fill="#1814A3"/>
</svg>
