<svg width="41" height="40" viewBox="0 0 41 40" fill="none" xmlns="http://www.w3.org/2000/svg">
<rect x="1.1651" y="1.52563" width="39" height="37.9744" rx="9.5" fill="#FEFEFE" fill-opacity="0.62" stroke="black"/>
<path d="M27.313 13.0938C27.3755 13.1354 27.2922 13.4062 27.063 13.9062C26.8338 14.3854 26.5109 15.0104 26.0942 15.7812C25.6984 16.5312 25.2192 17.3854 24.6567 18.3438C24.1151 19.2812 23.5526 20.2396 22.9692 21.2188C23.3859 22.1771 23.7817 23.1146 24.1567 24.0312C24.5526 24.9271 24.8859 25.7292 25.1567 26.4375C25.4276 27.1458 25.6255 27.7188 25.7505 28.1562C25.8755 28.5729 25.9067 28.7812 25.8442 28.7812C25.6984 28.7812 25.5005 28.7188 25.2505 28.5938C25.0213 28.4688 24.7817 28.3229 24.5317 28.1562C24.2817 27.9688 24.0422 27.7812 23.813 27.5938C23.6047 27.3854 23.4588 27.2188 23.3755 27.0938C23.1463 26.7396 22.9172 26.3646 22.688 25.9688C22.4797 25.5729 22.2817 25.2083 22.0942 24.875C21.8651 24.5 21.6567 24.125 21.4692 23.75C21.0526 24.4167 20.6567 25.0417 20.2817 25.625C19.9276 26.1875 19.6047 26.6875 19.313 27.125C19.0213 27.5625 18.7817 27.9062 18.5942 28.1562C18.4067 28.4062 18.2817 28.5312 18.2192 28.5312C18.0526 28.5312 17.8963 28.4792 17.7505 28.375C17.6255 28.25 17.5109 28.1042 17.4067 27.9375C17.3234 27.75 17.2713 27.5625 17.2505 27.375C17.2088 27.1875 17.2088 27.0312 17.2505 26.9062C17.5838 26.1771 17.9067 25.4583 18.2192 24.75C18.5317 24.0417 18.8234 23.4062 19.0942 22.8438C19.3859 22.1771 19.6776 21.5521 19.9692 20.9688C19.5942 20.2812 19.2297 19.6146 18.8755 18.9688C18.5422 18.3021 18.2401 17.6979 17.9692 17.1562C17.6984 16.5938 17.4692 16.1146 17.2817 15.7188C17.0942 15.3229 16.9901 15.0417 16.9692 14.875C16.9067 14.6042 16.9588 14.3542 17.1255 14.125C17.2922 13.875 17.4901 13.6771 17.7192 13.5312C17.9692 13.3646 18.2088 13.25 18.438 13.1875C18.688 13.1042 18.8755 13.0938 19.0005 13.1562C19.0838 13.1979 19.1984 13.3438 19.3442 13.5938C19.5109 13.8438 19.6984 14.1771 19.9067 14.5938C20.1359 15.0104 20.3755 15.5 20.6255 16.0625C20.8963 16.6042 21.1776 17.1979 21.4692 17.8438C21.8651 17.0938 22.2192 16.4375 22.5317 15.875C22.8442 15.2917 23.0942 14.8958 23.2817 14.6875C23.5109 14.4167 23.8338 14.1667 24.2505 13.9375C24.6672 13.7083 25.0838 13.5208 25.5005 13.375C25.938 13.2292 26.3234 13.1354 26.6567 13.0938C27.0109 13.0312 27.2297 13.0312 27.313 13.0938Z" fill="#1814A3"/>
</svg>
