<svg width="119" height="21" viewBox="0 0 119 21" fill="none" xmlns="http://www.w3.org/2000/svg">
<rect x="1" width="118" height="21" fill="#D13B30"/>
<path d="M0.00012207 0H39.0001C50.5981 0 60.0001 9.40202 60.0001 21H0.00012207V0Z" fill="#4F567D"/>
<path d="M16.3057 10.682L15.6617 7.714L14.0657 10.682H16.3057ZM19.2597 14H17.0197L16.7257 12.642H13.0017L12.2597 14H10.0197L15.0317 4.76H17.2717L19.2597 14ZM25.5982 14.98C25.7569 14.98 25.8969 14.924 26.0182 14.812C26.1489 14.7 26.2282 14.5693 26.2562 14.42L26.3402 14H21.5802C21.2629 14 21.0155 13.8927 20.8382 13.678C20.6609 13.454 20.6002 13.188 20.6562 12.88L21.6642 7.28C21.7202 6.972 21.8742 6.71067 22.1262 6.496C22.3875 6.272 22.6722 6.16 22.9802 6.16H29.7002L27.9502 15.96C27.9035 16.1933 27.7822 16.3893 27.5862 16.548C27.3995 16.716 27.1895 16.8 26.9562 16.8H19.9562L20.2782 14.98H25.5982ZM26.6902 12.04L27.3902 8.12H24.0302C23.8715 8.12 23.7269 8.176 23.5962 8.288C23.4749 8.4 23.4002 8.53067 23.3722 8.68L22.8682 11.48C22.8402 11.6293 22.8682 11.76 22.9522 11.872C23.0455 11.984 23.1715 12.04 23.3302 12.04H26.6902ZM37.4545 14H30.7345C30.4171 14 30.1698 13.8927 29.9925 13.678C29.8151 13.454 29.7545 13.188 29.8105 12.88L30.8185 7.28C30.8745 6.972 31.0285 6.71067 31.2805 6.496C31.5418 6.272 31.8265 6.16 32.1345 6.16H37.7345C38.0518 6.16 38.2991 6.272 38.4765 6.496C38.6538 6.71067 38.7145 6.972 38.6585 7.28L38.1265 10.22C38.0705 10.528 37.9118 10.794 37.6505 11.018C37.3985 11.2327 37.1185 11.34 36.8105 11.34H32.0505L32.0225 11.48C31.9945 11.6293 32.0225 11.76 32.1065 11.872C32.1998 11.984 32.3258 12.04 32.4845 12.04H37.8045L37.4545 14ZM36.4185 8.82L36.4465 8.68C36.4745 8.53067 36.4418 8.4 36.3485 8.288C36.2645 8.176 36.1431 8.12 35.9845 8.12H33.1845C33.0258 8.12 32.8811 8.176 32.7505 8.288C32.6291 8.4 32.5545 8.53067 32.5265 8.68L32.4985 8.82C32.4705 8.96933 32.4985 9.1 32.5825 9.212C32.6758 9.324 32.8018 9.38 32.9605 9.38H35.7605C35.9191 9.38 36.0591 9.324 36.1805 9.212C36.3111 9.1 36.3905 8.96933 36.4185 8.82ZM41.7739 6.72H39.8139L40.1639 4.76H42.1239L41.7739 6.72ZM40.4719 14H38.5119L38.8619 12.04H40.8219L40.4719 14Z" fill="white"/>
</svg>
