<svg width="140" height="22" viewBox="0 0 140 22" fill="none" xmlns="http://www.w3.org/2000/svg">
<rect x="0.00012207" width="118" height="21" rx="5" fill="#9BB8C9"/>
<path d="M12.8 11.26L11.88 7.02L9.6 11.26H12.8ZM17.02 16H13.82L13.4 14.06H8.08L7.02 16H3.82L10.98 2.8H14.18L17.02 16ZM29.575 16H19.975C19.5217 16 19.1683 15.8467 18.915 15.54C18.6617 15.22 18.575 14.84 18.655 14.4L20.375 4.8H23.175L22.595 8H26.995L26.495 10.8H22.095L21.815 12.4C21.775 12.6133 21.815 12.8 21.935 12.96C22.0683 13.12 22.2483 13.2 22.475 13.2H30.075L29.575 16ZM43.2234 7.6H35.6234C35.3968 7.6 35.1901 7.68 35.0034 7.84C34.8301 8 34.7234 8.18667 34.6834 8.4L33.3234 16H30.5234L32.2434 6.4C32.3234 5.96 32.5434 5.58667 32.9034 5.28C33.2768 4.96 33.6834 4.8 34.1234 4.8H43.7234L43.2234 7.6ZM45.1789 16H42.3789L43.7389 8.4H46.5389L45.1789 16ZM46.6789 7.6H43.8789L44.3789 4.8H47.1789L46.6789 7.6ZM58.3469 14.4C58.2669 14.84 58.0402 15.22 57.6669 15.54C57.3069 15.8467 56.9069 16 56.4669 16H46.8669L49.2269 2.8H52.0269L51.6669 4.8H58.4669C58.9202 4.8 59.2735 4.96 59.5269 5.28C59.7802 5.58667 59.8669 5.96 59.7869 6.4L58.3469 14.4ZM55.9069 12.4L56.6269 8.4C56.6669 8.18667 56.6202 8 56.4869 7.84C56.3669 7.68 56.1935 7.6 55.9669 7.6H51.1669L50.1669 13.2H54.9669C55.1935 13.2 55.3935 13.12 55.5669 12.96C55.7535 12.8 55.8669 12.6133 55.9069 12.4ZM71.1831 14.4C71.1031 14.84 70.8765 15.22 70.5031 15.54C70.1431 15.8467 69.7431 16 69.3031 16H61.3031C60.8498 16 60.4965 15.8467 60.2431 15.54C59.9898 15.22 59.9031 14.84 59.9831 14.4L61.7031 4.8H64.5031L63.1431 12.4C63.1031 12.6133 63.1431 12.8 63.2631 12.96C63.3965 13.12 63.5765 13.2 63.8031 13.2H67.8031C68.0298 13.2 68.2298 13.12 68.4031 12.96C68.5898 12.8 68.7031 12.6133 68.7431 12.4L70.1031 4.8H72.9031L71.1831 14.4ZM83.9695 16H74.3695C73.9162 16 73.5629 15.8467 73.3095 15.54C73.0562 15.22 72.9695 14.84 73.0495 14.4L74.7695 4.8H77.5695L76.9895 8H81.3895L80.8895 10.8H76.4895L76.2095 12.4C76.1695 12.6133 76.2095 12.8 76.3295 12.96C76.4629 13.12 76.6429 13.2 76.8695 13.2H84.4695L83.9695 16ZM96.398 14.4C96.318 14.84 96.0913 15.22 95.718 15.54C95.358 15.8467 94.958 16 94.518 16H86.518C86.0646 16 85.7113 15.8467 85.458 15.54C85.2046 15.22 85.118 14.84 85.198 14.4L86.638 6.4C86.718 5.96 86.938 5.58667 87.298 5.28C87.6713 4.96 88.078 4.8 88.518 4.8H96.518C96.9713 4.8 97.3246 4.96 97.578 5.28C97.8313 5.58667 97.918 5.96 97.838 6.4L96.398 14.4ZM93.958 12.4L94.678 8.4C94.718 8.18667 94.6713 8 94.538 7.84C94.418 7.68 94.2446 7.6 94.018 7.6H90.018C89.7913 7.6 89.5846 7.68 89.398 7.84C89.2246 8 89.118 8.18667 89.078 8.4L88.358 12.4C88.318 12.6133 88.358 12.8 88.478 12.96C88.6113 13.12 88.7913 13.2 89.018 13.2H93.018C93.2446 13.2 93.4446 13.12 93.618 12.96C93.8046 12.8 93.918 12.6133 93.958 12.4ZM110.104 10.9L109.464 14.4C109.384 14.84 109.158 15.22 108.784 15.54C108.424 15.8467 108.024 16 107.584 16H97.9844L98.4844 13.2H106.144C106.438 13.2 106.691 13.0733 106.904 12.82C106.984 12.7267 107.031 12.62 107.044 12.5C107.071 12.34 107.024 12.1867 106.904 12.04C106.798 11.88 106.624 11.8 106.384 11.8H100.324C99.8844 11.8 99.5377 11.6467 99.2844 11.34C99.031 11.02 98.9444 10.64 99.0244 10.2L99.7044 6.4C99.7844 5.96 100.004 5.58667 100.364 5.28C100.738 4.96 101.144 4.8 101.584 4.8H111.184L110.684 7.6H103.084C102.858 7.6 102.658 7.68 102.484 7.84C102.311 7.98667 102.211 8.14 102.184 8.3C102.158 8.46 102.198 8.60667 102.304 8.74C102.424 8.91333 102.604 9 102.844 9H108.844C109.284 9 109.631 9.16 109.884 9.48C110.138 9.78667 110.224 10.16 110.144 10.6L110.084 10.96L110.104 10.9Z" fill="white"/>
</svg>
