<svg width="379" height="29" viewBox="0 0 379 29" fill="none" xmlns="http://www.w3.org/2000/svg">
<rect x="0.00012207" width="379" height="29" rx="10" fill="#9BB8C9"/>
<path d="M70.424 22H67.064L68.6 13.36L63.032 22H61.976L59.48 13.36L57.944 22H54.584L57.416 6.16H60.776L63.584 15.928L69.896 6.16H73.256L70.424 22ZM86.0759 22H74.5559C74.0119 22 73.5879 21.816 73.2839 21.448C72.9799 21.064 72.8759 20.608 72.9719 20.08L74.6999 10.48C74.7959 9.952 75.0599 9.504 75.4919 9.136C75.9399 8.752 76.4279 8.56 76.9559 8.56H86.5559C87.0999 8.56 87.5239 8.752 87.8279 9.136C88.1319 9.504 88.2359 9.952 88.1399 10.48L87.2279 15.52C87.1319 16.048 86.8599 16.504 86.4119 16.888C85.9799 17.256 85.4999 17.44 84.9719 17.44H76.8119L76.7639 17.68C76.7159 17.936 76.7639 18.16 76.9079 18.352C77.0679 18.544 77.2839 18.64 77.5559 18.64H86.6759L86.0759 22ZM84.2999 13.12L84.3479 12.88C84.3959 12.624 84.3399 12.4 84.1799 12.208C84.0359 12.016 83.8279 11.92 83.5559 11.92H78.7559C78.4839 11.92 78.2359 12.016 78.0119 12.208C77.8039 12.4 77.6759 12.624 77.6279 12.88L77.5799 13.12C77.5319 13.376 77.5799 13.6 77.7239 13.792C77.8839 13.984 78.0999 14.08 78.3719 14.08H83.1719C83.4439 14.08 83.6839 13.984 83.8919 13.792C84.1159 13.6 84.2519 13.376 84.2999 13.12ZM101.545 22H90.0247C89.4807 22 89.0567 21.816 88.7527 21.448C88.4487 21.064 88.3447 20.608 88.4407 20.08L90.5047 8.56H93.8647L93.1687 12.4H98.4487L97.8487 15.76H92.5687L92.2327 17.68C92.1847 17.936 92.2327 18.16 92.3767 18.352C92.5367 18.544 92.7527 18.64 93.0247 18.64H102.145L101.545 22ZM116.459 20.08C116.363 20.608 116.091 21.064 115.643 21.448C115.211 21.816 114.731 22 114.203 22H104.603C104.059 22 103.635 21.816 103.331 21.448C103.027 21.064 102.923 20.608 103.019 20.08L104.747 10.48C104.843 9.952 105.107 9.504 105.539 9.136C105.987 8.752 106.475 8.56 107.003 8.56H116.603C117.147 8.56 117.571 8.752 117.875 9.136C118.179 9.504 118.283 9.952 118.187 10.48L116.459 20.08ZM113.531 17.68L114.395 12.88C114.443 12.624 114.387 12.4 114.227 12.208C114.083 12.016 113.875 11.92 113.603 11.92H108.803C108.531 11.92 108.283 12.016 108.059 12.208C107.851 12.4 107.723 12.624 107.675 12.88L106.811 17.68C106.763 17.936 106.811 18.16 106.955 18.352C107.115 18.544 107.331 18.64 107.603 18.64H112.403C112.675 18.64 112.915 18.544 113.123 18.352C113.347 18.16 113.483 17.936 113.531 17.68ZM131.587 22H120.067C119.539 22 119.122 21.816 118.818 21.448C118.498 21.064 118.386 20.608 118.482 20.08L120.211 10.48C120.307 9.952 120.571 9.504 121.003 9.136C121.451 8.752 121.939 8.56 122.467 8.56H130.627L131.059 6.16H134.419L131.587 22ZM128.827 18.64L130.027 11.92H124.267C123.995 11.92 123.747 12.016 123.523 12.208C123.315 12.4 123.187 12.624 123.139 12.88L122.275 17.68C122.227 17.936 122.275 18.16 122.419 18.352C122.579 18.544 122.795 18.64 123.067 18.64H128.827ZM147.654 20.08C147.558 20.608 147.286 21.064 146.838 21.448C146.406 21.816 145.926 22 145.398 22H135.798C135.254 22 134.83 21.816 134.526 21.448C134.222 21.064 134.118 20.608 134.214 20.08L135.942 10.48C136.038 9.952 136.302 9.504 136.734 9.136C137.182 8.752 137.67 8.56 138.198 8.56H147.798C148.342 8.56 148.766 8.752 149.07 9.136C149.374 9.504 149.478 9.952 149.382 10.48L147.654 20.08ZM144.726 17.68L145.59 12.88C145.638 12.624 145.582 12.4 145.422 12.208C145.278 12.016 145.07 11.92 144.798 11.92H139.998C139.726 11.92 139.478 12.016 139.254 12.208C139.046 12.4 138.918 12.624 138.87 12.88L138.006 17.68C137.958 17.936 138.006 18.16 138.15 18.352C138.31 18.544 138.526 18.64 138.798 18.64H143.598C143.87 18.64 144.11 18.544 144.318 18.352C144.542 18.16 144.678 17.936 144.726 17.68ZM164.102 15.88L163.334 20.08C163.238 20.608 162.966 21.064 162.518 21.448C162.086 21.816 161.606 22 161.078 22H149.558L150.158 18.64H159.35C159.702 18.64 160.006 18.488 160.262 18.184C160.358 18.072 160.414 17.944 160.43 17.8C160.462 17.608 160.406 17.424 160.262 17.248C160.134 17.056 159.926 16.96 159.638 16.96H152.366C151.838 16.96 151.422 16.776 151.118 16.408C150.814 16.024 150.71 15.568 150.806 15.04L151.622 10.48C151.718 9.952 151.982 9.504 152.414 9.136C152.862 8.752 153.35 8.56 153.878 8.56H165.398L164.798 11.92H155.678C155.406 11.92 155.166 12.016 154.958 12.208C154.75 12.384 154.63 12.568 154.598 12.76C154.566 12.952 154.614 13.128 154.742 13.288C154.886 13.496 155.102 13.6 155.39 13.6H162.59C163.118 13.6 163.534 13.792 163.838 14.176C164.142 14.544 164.246 14.992 164.15 15.52L164.078 15.952L164.102 15.88Z" fill="white"/>
</svg>
