<svg width="119" height="21" viewBox="0 0 119 21" fill="none" xmlns="http://www.w3.org/2000/svg">
<rect x="1" width="118" height="21" fill="#868795"/>
<path d="M0.00012207 0H39.0001C50.5981 0 60.0001 9.40202 60.0001 21H0.00012207V0Z" fill="#4F567D"/>
<path d="M13.8515 14H11.6115L7.7615 7.364L6.5715 14H4.6115L6.2635 4.76H8.5035L12.3395 11.522L13.5435 4.76H15.5035L13.8515 14ZM16.2618 14C15.9445 14 15.6971 13.8927 15.5198 13.678C15.3425 13.454 15.2818 13.188 15.3378 12.88L15.8698 9.94C15.9258 9.632 16.0798 9.37067 16.3318 9.156C16.5931 8.932 16.8778 8.82 17.1858 8.82H21.9458L21.9738 8.68C22.0018 8.53067 21.9691 8.4 21.8758 8.288C21.7918 8.176 21.6705 8.12 21.5118 8.12H16.1918L16.5418 6.16H23.2618C23.5791 6.16 23.8265 6.272 24.0038 6.496C24.1811 6.71067 24.2418 6.972 24.1858 7.28L22.9818 14H16.2618ZM18.2358 10.78C18.0771 10.78 17.9325 10.836 17.8018 10.948C17.6805 11.06 17.6058 11.1907 17.5778 11.34L17.5498 11.48C17.5218 11.6293 17.5498 11.76 17.6338 11.872C17.7271 11.984 17.8531 12.04 18.0118 12.04H21.3718L21.5958 10.78H18.2358ZM33.906 7.28L32.702 14H30.742L31.694 8.68C31.722 8.53067 31.6893 8.4 31.596 8.288C31.512 8.176 31.3906 8.12 31.232 8.12H31.092C30.9333 8.12 30.7886 8.176 30.658 8.288C30.5366 8.39067 30.462 8.52133 30.434 8.68L29.482 14H27.522L28.474 8.68C28.502 8.53067 28.4693 8.4 28.376 8.288C28.292 8.176 28.1706 8.12 28.012 8.12H27.872C27.7133 8.12 27.5686 8.176 27.438 8.288C27.3166 8.39067 27.242 8.52133 27.214 8.68L26.262 14H24.302L25.506 7.28C25.562 6.972 25.716 6.71067 25.968 6.496C26.2293 6.272 26.514 6.16 26.822 6.16H32.982C33.2993 6.16 33.5466 6.272 33.724 6.496C33.9013 6.71067 33.962 6.972 33.906 7.28ZM41.8627 14H35.1427C34.8253 14 34.578 13.8927 34.4007 13.678C34.2233 13.454 34.1627 13.188 34.2187 12.88L35.2267 7.28C35.2827 6.972 35.4367 6.71067 35.6887 6.496C35.95 6.272 36.2347 6.16 36.5427 6.16H42.1427C42.46 6.16 42.7073 6.272 42.8847 6.496C43.062 6.71067 43.1227 6.972 43.0667 7.28L42.5347 10.22C42.4787 10.528 42.32 10.794 42.0587 11.018C41.8067 11.2327 41.5267 11.34 41.2187 11.34H36.4587L36.4307 11.48C36.4027 11.6293 36.4307 11.76 36.5147 11.872C36.608 11.984 36.734 12.04 36.8927 12.04H42.2127L41.8627 14ZM40.8267 8.82L40.8547 8.68C40.8827 8.53067 40.85 8.4 40.7567 8.288C40.6727 8.176 40.5513 8.12 40.3927 8.12H37.5927C37.434 8.12 37.2893 8.176 37.1587 8.288C37.0373 8.4 36.9627 8.53067 36.9347 8.68L36.9067 8.82C36.8787 8.96933 36.9067 9.1 36.9907 9.212C37.084 9.324 37.21 9.38 37.3687 9.38H40.1687C40.3273 9.38 40.4673 9.324 40.5887 9.212C40.7193 9.1 40.7987 8.96933 40.8267 8.82ZM46.1821 6.72H44.2221L44.5721 4.76H46.5321L46.1821 6.72ZM44.8801 14H42.9201L43.2701 12.04H45.2301L44.8801 14Z" fill="white"/>
</svg>
