<svg width="269" height="35" viewBox="0 0 269 35" fill="none" xmlns="http://www.w3.org/2000/svg">
<rect width="269" height="35" rx="10" fill="#9BB8C9"/>
<path d="M17.184 25H13.344L10.416 9.16H14.256L16.248 19.936L22.416 9.16H26.256L17.184 25ZM38.4431 25H26.9231C26.3791 25 25.9551 24.816 25.6511 24.448C25.3471 24.064 25.2431 23.608 25.3391 23.08L27.0671 13.48C27.1631 12.952 27.4271 12.504 27.8591 12.136C28.3071 11.752 28.7951 11.56 29.3231 11.56H38.9231C39.4671 11.56 39.8911 11.752 40.1951 12.136C40.4991 12.504 40.6031 12.952 40.5071 13.48L39.5951 18.52C39.4991 19.048 39.2271 19.504 38.7791 19.888C38.3471 20.256 37.8671 20.44 37.3391 20.44H29.1791L29.1311 20.68C29.0831 20.936 29.1311 21.16 29.2751 21.352C29.4351 21.544 29.6511 21.64 29.9231 21.64H39.0431L38.4431 25ZM36.6671 16.12L36.7151 15.88C36.7631 15.624 36.7071 15.4 36.5471 15.208C36.4031 15.016 36.1951 14.92 35.9231 14.92H31.1231C30.8511 14.92 30.6031 15.016 30.3791 15.208C30.1711 15.4 30.0431 15.624 29.9951 15.88L29.9471 16.12C29.8991 16.376 29.9471 16.6 30.0911 16.792C30.2511 16.984 30.4671 17.08 30.7391 17.08H35.5391C35.8111 17.08 36.0511 16.984 36.2591 16.792C36.4831 16.6 36.6191 16.376 36.6671 16.12ZM43.0879 9.16H46.4479L43.6159 25H40.2559L43.0879 9.16ZM59.6619 23.08C59.5659 23.608 59.2939 24.064 58.8459 24.448C58.4139 24.816 57.9339 25 57.4059 25H47.8059C47.2619 25 46.8379 24.816 46.5339 24.448C46.2299 24.064 46.1259 23.608 46.2219 23.08L47.9499 13.48C48.0459 12.952 48.3099 12.504 48.7419 12.136C49.1899 11.752 49.6779 11.56 50.2059 11.56H59.8059C60.3499 11.56 60.7739 11.752 61.0779 12.136C61.3819 12.504 61.4859 12.952 61.3899 13.48L59.6619 23.08ZM56.7339 20.68L57.5979 15.88C57.6459 15.624 57.5899 15.4 57.4299 15.208C57.2859 15.016 57.0779 14.92 56.8059 14.92H52.0059C51.7339 14.92 51.4859 15.016 51.2619 15.208C51.0539 15.4 50.9259 15.624 50.8779 15.88L50.0139 20.68C49.9659 20.936 50.0139 21.16 50.1579 21.352C50.3179 21.544 50.5339 21.64 50.8059 21.64H55.6059C55.8779 21.64 56.1179 21.544 56.3259 21.352C56.5499 21.16 56.6859 20.936 56.7339 20.68ZM65.8856 11.56H77.4056L76.8056 14.92H67.6856C67.4136 14.92 67.1656 15.016 66.9416 15.208C66.7336 15.4 66.6056 15.624 66.5576 15.88L65.6936 20.68C65.6456 20.936 65.6936 21.16 65.8376 21.352C65.9976 21.544 66.2136 21.64 66.4856 21.64H75.6056L75.0056 25H63.4856C62.9416 25 62.5176 24.816 62.2136 24.448C61.9096 24.064 61.8056 23.608 61.9016 23.08L63.6296 13.48C63.7256 12.952 63.9896 12.504 64.4216 12.136C64.8696 11.752 65.3576 11.56 65.8856 11.56ZM79.6678 25H76.3078L77.9398 15.88H81.2998L79.6678 25ZM81.4678 14.92H78.1078L78.7078 11.56H82.0678L81.4678 14.92ZM96.4534 18.88L95.6854 23.08C95.5894 23.608 95.3174 24.064 94.8694 24.448C94.4374 24.816 93.9574 25 93.4294 25H81.9094L82.5094 21.64H91.7014C92.0534 21.64 92.3574 21.488 92.6134 21.184C92.7094 21.072 92.7654 20.944 92.7814 20.8C92.8134 20.608 92.7574 20.424 92.6134 20.248C92.4854 20.056 92.2774 19.96 91.9894 19.96H84.7174C84.1894 19.96 83.7734 19.776 83.4694 19.408C83.1654 19.024 83.0614 18.568 83.1574 18.04L83.9734 13.48C84.0694 12.952 84.3334 12.504 84.7654 12.136C85.2134 11.752 85.7014 11.56 86.2294 11.56H97.7494L97.1494 14.92H88.0294C87.7574 14.92 87.5174 15.016 87.3094 15.208C87.1014 15.384 86.9814 15.568 86.9494 15.76C86.9174 15.952 86.9654 16.128 87.0934 16.288C87.2374 16.496 87.4534 16.6 87.7414 16.6H94.9414C95.4694 16.6 95.8854 16.792 96.1894 17.176C96.4934 17.544 96.5974 17.992 96.5014 18.52L96.4294 18.952L96.4534 18.88ZM110.865 25H99.345C98.801 25 98.377 24.816 98.073 24.448C97.769 24.064 97.665 23.608 97.761 23.08L99.825 11.56H103.185L102.489 15.4H107.769L107.169 18.76H101.889L101.553 20.68C101.505 20.936 101.553 21.16 101.697 21.352C101.857 21.544 102.073 21.64 102.345 21.64H111.465L110.865 25ZM113.923 25C113.379 25 112.955 24.816 112.651 24.448C112.347 24.064 112.243 23.608 112.339 23.08L113.251 18.04C113.347 17.512 113.611 17.064 114.043 16.696C114.491 16.312 114.979 16.12 115.507 16.12H123.667L123.715 15.88C123.763 15.624 123.707 15.4 123.547 15.208C123.403 15.016 123.195 14.92 122.923 14.92H113.803L114.403 11.56H125.923C126.467 11.56 126.891 11.752 127.195 12.136C127.499 12.504 127.603 12.952 127.507 13.48L125.443 25H113.923ZM117.307 19.48C117.035 19.48 116.787 19.576 116.563 19.768C116.355 19.96 116.227 20.184 116.179 20.44L116.131 20.68C116.083 20.936 116.131 21.16 116.275 21.352C116.435 21.544 116.651 21.64 116.923 21.64H122.683L123.067 19.48H117.307ZM142.25 18.88L141.482 23.08C141.386 23.608 141.114 24.064 140.666 24.448C140.234 24.816 139.754 25 139.226 25H127.706L128.306 21.64H137.498C137.85 21.64 138.154 21.488 138.41 21.184C138.506 21.072 138.562 20.944 138.578 20.8C138.61 20.608 138.554 20.424 138.41 20.248C138.282 20.056 138.074 19.96 137.786 19.96H130.514C129.986 19.96 129.57 19.776 129.266 19.408C128.962 19.024 128.858 18.568 128.954 18.04L129.77 13.48C129.866 12.952 130.13 12.504 130.562 12.136C131.01 11.752 131.498 11.56 132.026 11.56H143.546L142.946 14.92H133.826C133.554 14.92 133.314 15.016 133.106 15.208C132.898 15.384 132.778 15.568 132.746 15.76C132.714 15.952 132.762 16.128 132.89 16.288C133.034 16.496 133.25 16.6 133.538 16.6H140.738C141.266 16.6 141.682 16.792 141.986 17.176C142.29 17.544 142.394 17.992 142.298 18.52L142.226 18.952L142.25 18.88Z" fill="white"/>
</svg>
